<?xml version="1.0" standalone="no"?>
<!DOCTYPE svg PUBLIC "-//W3C//DTD SVG 1.1//EN" "http://www.w3.org/Graphics/SVG/1.1/DTD/svg11.dtd" >
<svg xmlns="http://www.w3.org/2000/svg" xmlns:xlink="http://www.w3.org/1999/xlink" version="1.1">
<metadata></metadata>
<defs>
<font id="bayshoreregular" horiz-adv-x="454" >
<font-face units-per-em="2048" ascent="1638" descent="-410" />
<missing-glyph horiz-adv-x="552" />
<glyph horiz-adv-x="0" />
<glyph unicode="&#xd;" horiz-adv-x="552" />
<glyph horiz-adv-x="0" />
<glyph horiz-adv-x="0" />
<glyph unicode=" "  horiz-adv-x="552" />
<glyph unicode="&#x09;" horiz-adv-x="552" />
<glyph unicode="&#xa0;" horiz-adv-x="552" />
<glyph unicode="!" horiz-adv-x="272" d="M-66 -47q0 10 3.5 17t7.5 16q4 6 8 13t8 13q6 8 19.5 9.5t24.5 -4t17.5 -15.5t0.5 -20q-6 -8 -11 -21q-4 -6 -6 -13t-6 -14q-6 -6 -16.5 -8t-21.5 1t-19.5 9.5t-8.5 16.5zM16.5 227.5q6.5 24.5 14.5 44.5q10 31 24.5 60.5t28.5 58.5q23 45 44.5 89t43.5 89q23 43 44.5 87 t41.5 89q18 41 40 82t28 86q2 12 17 13.5t24 -0.5q10 -4 19 -12.5t7 -20.5q-4 -33 -17.5 -62.5t-27.5 -58.5q-23 -43 -42 -87t-40 -87q-23 -45 -44 -89t-44 -89q-16 -33 -32.5 -65.5t-30.5 -67.5q-16 -31 -25 -62q0 -4 -4 -16v-6v-2v-11v-6q6 -14 -3 -20t-21.5 -6t-25.5 6 t-16 16q-10 23 -3.5 47.5z" />
<glyph unicode="&#x22;" horiz-adv-x="356" d="M63 708.5q3 12.5 7 22.5q8 14 16 26.5t18 24.5q8 12 16.5 23.5t18.5 23.5l13 17q0 4 2 4v2q2 6 10 8t12 0q17 0 27 -14q4 -10 -1 -19.5t-9 -17.5l-29 -45l-19 -27l-6 -10v-2l-2 -4q-2 -2 -2 -4q-4 -6 -6 -11.5t-2 -11.5h-2v-4q4 -10 -2 -16t-17 -8q-12 0 -24 5t-16 15 q-6 10 -3 22.5zM125 688v2v-2zM125 690v4v-4zM154 850q2 2 2 0h-2zM191.5 750.5q-5.5 7.5 1.5 15.5q10 14 21 27.5t24 27.5q10 10 21.5 23.5t27.5 15.5q6 0 13 -3t9 -11q0 -6 -4 -12.5t-8 -10.5q-4 -6 -9 -13t-12 -13l-36 -56q-4 -6 -14.5 -7t-19.5 4t-14.5 12.5z" />
<glyph unicode="#" horiz-adv-x="663" d="M-74 -78q35 76 71 150.5t75 148.5q20 39 38.5 78t39.5 78l-74 -6l-35 -4h-4h-12q-4 0 -17 4q-16 6 -20 22v2q-6 16 13 18.5t36 2.5l51 6l90 8q14 29 28.5 56.5t31.5 56.5q-20 -2 -40 -3t-38 -3q-23 -2 -45.5 -3.5t-44.5 3.5q-23 4 -31 18q-8 16 12 20q20 8 43 3h10l43 4 l89 10q8 0 14 1t14 1q20 39 40 77t40 79q10 23 20.5 44t20.5 44q10 18 18.5 38.5t12.5 41.5q-4 10 7 14t19 2q8 0 18.5 -5t10.5 -16q0 -23 -5 -40t-13 -37q-8 -18 -15.5 -37t-17.5 -37q-16 -37 -33.5 -73t-36.5 -71q-4 -4 -5 -9t-5 -11q20 2 38.5 3t39.5 1q14 2 27.5 2h29.5 q10 20 20.5 39t20.5 37q-2 -4 -1 -4t1 2t2 4l4 6q0 2 4 10l13 21q4 10 10 20.5t12 20.5l37 71q8 14 15.5 27.5t13.5 28.5l10 20q0 4 1 5t1 6q2 0 2 2v4h2q4 10 15.5 12t22.5 -1t19.5 -11.5t6.5 -20.5v-2v-2q-2 -2 -2 -6q-10 -29 -23.5 -54.5t-28.5 -52.5l-88 -163 q-2 -4 -4 -7.5t-4 -7.5h23q33 0 68.5 -1t64.5 -17q10 -4 17 -13.5t-1 -19.5q-12 -20 -37 -27q-12 -2 -25.5 1.5t-21.5 13.5q-6 6 -6 16h-8h-15h-20t-66 -2q-16 -27 -29.5 -52.5t-27.5 -49.5h6l74 8q23 0 46.5 -2t39.5 -19q6 -6 9 -14t-7 -14q-6 -4 -18 -8q-16 -4 -33 6l-2 2 h-4q-10 0 -22.5 -1t-24.5 -3q-23 -4 -46.5 -5t-46.5 -4q-18 -35 -36.5 -71.5t-36.5 -73.5q-16 -35 -31.5 -68.5t-26.5 -70.5q-6 -10 -8 -23q0 -8 -2 -12v-2q0 -4 1 -6t1 -6q4 -8 2 -13q-6 -16 -26 -12q-20 0 -39 18q-8 10 -8.5 22.5t2.5 25.5q4 12 7 25.5t7 25.5 q14 37 31.5 73.5t35.5 71.5q20 45 45 90l-135 -12q-59 -121 -118.5 -240.5t-114.5 -242.5q-6 -10 -18.5 -12.5t-22.5 1.5q-8 2 -20.5 11.5t-6.5 19.5zM256 438l25 2q29 4 55 5.5t55 5.5q14 27 27.5 52t30.5 54q-8 -2 -25 -2q-29 -2 -55.5 -2t-55.5 -2q-14 -29 -28.5 -56.5 t-28.5 -56.5zM305 66v2v-2zM641 922v2v-2zM641 924q2 2 2 3t-2 -3z" />
<glyph unicode="$" horiz-adv-x="808" d="M49 4q-2 33 12.5 62.5t38.5 52.5q12 10 24.5 19t29.5 16q18 8 40.5 11t45.5 -7q16 43 34.5 87t36.5 87q2 6 4 11t4 9q-10 4 -21 7t-22 8q-33 10 -64.5 27.5t-49.5 45.5q-12 20 -12 43t10 43q20 49 58 88t79 74q55 45 115.5 82t126.5 70l53 114q4 10 12 11.5t19 1.5 q4 0 10 -6q6 -4 12 -10.5t2 -12.5q-6 -16 -13 -30.5t-13 -28.5q47 20 88 34l2 2q6 20 14 33l12 23l4 12q0 2 1 3t1 3v2q-2 10 9 15q0 2 4 2l-4 -2h4v2q12 4 20 -2h2l2 -2q18 -8 21 -19q0 -14 -5 -26.5t-12 -22.5q-4 -4 -4 -8q20 4 41 3t41 -11q43 -20 47 -68q0 -23 -6 -45.5 t-16 -42.5q-27 -49 -64 -96q-16 -23 -35.5 -41.5t-39.5 -36.5q-16 -12 -35 -22.5t-39 -14.5q-23 0 -35 12q-8 8 -12 15q-2 2 -4 3t-5 5q-18 -41 -36.5 -81t-36.5 -81q-10 -20 -20.5 -40.5t-20.5 -41.5q6 -4 11 -6t11 -6q35 -16 70 -42t53 -61q31 -57 -6 -116 q-16 -29 -42 -52.5t-54 -42.5q-53 -39 -107 -63q-57 -25 -116 -41q-2 -4 -2 -7t-3 -7q-16 -45 -29.5 -90.5t-31.5 -90.5q-4 -8 -11 -9t-15.5 1t-14.5 8.5t-6 14.5q6 41 17.5 82t25.5 80v2q-8 0 -12 -2q-31 -4 -63 -1t-60 13q-29 12 -48.5 37.5t-21.5 58.5zM119 6 q0 -16 2 -22q2 -4 2 -8.5t4 -8.5q2 -2 4 -6t-2 0l4 -4l4 -2q0 -2 1 -2t1 -2h2h-2h2l4 -4q6 -2 1 1t-1 1q2 -2 7 -2l4 -2h2q4 0 6 -1t4 -1h4q0 16 5 32.5t9 32.5q20 66 43 121h-2h-2q-4 -2 -1 -1t1 -1q-10 0 -23.5 -9t-23.5 -18q-6 -4 -12 -12q-8 -6 -14 -14q-6 -4 -15 -17 q-4 -4 -4 -8l-2 -2l-2 -4t-4 -9t-2 -11q-2 -6 -3 -9.5t-1 -7.5zM141 -49l2 -2zM219 469q2 -4 2 -8v-4l4 -8l2 -3l2 -4q2 0 4.5 -2t6.5 -4v-2q4 -4 8 -4q8 -4 15 -8t18 -8q6 -4 -0.5 0t2.5 0l8 -4q4 -2 12 -4.5t37 -10.5q35 80 70.5 160t70.5 158l15 32q-27 -14 -52.5 -29.5 t-50.5 -35.5q-16 -10 -28 -23l-11 -6l-4 -4q4 4 2 2t-4 -2l-18 -16q-20 -18 -39 -37t-35 -41l-14 -21q-16 -27 -23 -57q2 4 1 0t-1 -6zM231 -53q2 0 3.5 1t3.5 1q10 2 19 4t19 4q8 25 16.5 47.5t18.5 44.5q27 70 56.5 138.5t60.5 134.5q-4 0 -5 1t-5 1q-10 4 -19.5 6 t-19.5 6q-29 -61 -54.5 -122.5t-48.5 -127.5q-10 -31 -21 -61.5t-19 -65.5zM348 -20l17 6q6 4 12 6t35 16q29 16 59.5 34.5t52.5 39.5q12 10 23.5 21.5t21.5 25.5l11 14l2 4q0 2 2 5q4 8 8 24q0 2 1 4t1 4v2q0 8 -2 15v6q-2 0 -2 2q0 4 -4 12l-6 8q2 -2 2 0l-2 2l-13 15 l-4 6h-2l-2 2l-14 12l-19 13q-6 4 -1 0.5t-1 1.5q-4 0 -8 4l-31 16q-27 -55 -51 -110.5t-47 -112.5q-10 -25 -19.5 -49.5t-19.5 -48.5zM397 379q12 -4 25.5 -7t26.5 -7l75 159l40 86t42 86q16 35 34.5 71t35.5 71l-4 -2q-16 -8 -25 -11l-49 -24q-12 -4 -16 -8 q-39 -86 -77 -170t-75 -170q-8 -18 -16 -37t-17 -37zM625 600q12 12 34 8h7q4 4 7 5t7 5l12 9q0 2 2 2l6 6q6 6 12.5 11t12.5 13q14 12 26.5 26.5t22.5 31.5l23 31q12 25 21 38t13 35l7 23q0 2 1 4t1 4q-2 -4 -1 -3t1 3v4q0 6 -1 14.5t-12 10.5h-8h-10h-4q-8 -4 -19 -4 q-14 -2 -32 -11q-16 -35 -32.5 -69.5t-33.5 -69.5q-16 -31 -31.5 -62.5t-31.5 -64.5zM776 1006h2q2 0 2 -2q2 0 -4 2z" />
<glyph unicode="%" horiz-adv-x="780" d="M-129 -86q4 8 6 10q4 6 8 13.5t9 11.5q27 37 52 74.5t50 76.5q49 76 99 152t104 149q84 115 171 224.5t179 216.5l-43 -13q-35 -10 -69 -13t-68 5q-2 0 -3 1t-6 1q-4 -37 -18 -67q-29 -63 -94 -86q-25 -10 -53.5 -2t-38.5 37q-6 20 -3 41.5t9 41.5q8 23 17 45.5t22 40.5 q10 16 26 29q0 2 11 6h2q4 4 8 4h2q4 4 8 7q10 4 27.5 2t27.5 -7q2 -2 3 -2t3 -2h3q4 -4 6 -5t4 -5l4 -4h-2l2 -2l18 -16l11 -7q2 0 2 -2h2h2q-2 0 -2 -1t2 -1h6q4 -2 12 -2h4q2 0 2 -1t-4 1h6h29q4 2 9 2t11 2l27 7q59 14 115 45q14 8 27.5 15t25.5 17q12 8 20.5 14.5 t18.5 16.5t23.5 9t23.5 -7q8 -4 16.5 -14t-0.5 -21q-102 -104 -195 -215.5t-183 -228.5q-57 -76 -112.5 -152.5t-109.5 -156.5l-106 -164q-12 -20 -25.5 -40t-27.5 -40l-29 -41l-10 -14v-2q2 -10 -4.5 -14.5t-14.5 -5.5t-17 0t-15 5v2q6 -4 9 -4t-5 2q-2 0 -3 1t-4 1 q-2 2 -4 3t-4 3l6 -6q-8 4 -15 11.5t-3 17.5zM-111 -115h2h3h-5zM-57 -104q2 0 2 2zM222 727q-1 -2 1 2v-4v-2q16 8 22.5 16.5t22.5 26.5q2 4 0 2q2 2 2 4l4 8l7 15q4 10 5 18t3 18q2 8 1 17.5t-3 13.5q0 4 -2 6q0 -4 -4 -4l-5 -4l-16 -20l-4 -9q4 4 2 2t-2 -4l-6 -12 q-20 -45 -27 -86q0 -2 -1 -4zM236 907h2h-2zM252 915zM365 872q-4 4 1 1t1 -3q0 2 -2 2zM371 870l4 -2zM375 868h2q4 -2 -2 0zM379 303q-14 -37 8 -67q10 -16 33.5 -24.5t42.5 -4.5q33 4 59.5 26.5t42.5 49.5q10 16 16.5 32.5t2.5 32.5q-4 20 -18.5 32.5t-30.5 18.5 q-29 10 -57.5 2t-49.5 -28l-4 -8q-8 -4 -12 -9q-23 -20 -33 -53zM438 252h2h-2zM440 254q2 0 2 2t-2 2q-2 20 13 47q0 2 2 4v2q8 8 10 13l8 6q10 -4 16 0q2 2 7.5 6t9.5 9t7 6t3 -3v-2q0 -2 -1 -3t-1 -3q-2 -8 -10 -25q-6 -10 -14.5 -19t-16.5 -20l-18 -14l-11 -6h-2 q0 -2 -2 -2zM444 250v2v-2z" />
<glyph unicode="&#x26;" horiz-adv-x="993" d="M-12 40.5q0 12.5 4 22.5q4 25 18.5 48.5t30.5 44.5q23 33 47.5 62.5t50.5 55.5q33 35 65 67t66 62q35 35 71 70t73 70q-2 4 -2 10q-2 84 26 168q14 35 34 65.5t46 55.5q25 25 55.5 45t67.5 22q27 0 52.5 -11t35.5 -40q10 -16 4 -37.5t-16 -38.5q-16 -29 -37 -55.5 t-43 -50.5q-29 -33 -58.5 -62.5l-60.5 -60.5l-37 -37q6 -61 25 -123q10 -35 24.5 -68.5t30.5 -66.5q6 -10 11.5 -18.5t9.5 -18.5q18 10 37.5 21.5t37.5 21.5q41 23 80 43.5t80 42.5q-23 -2 -46 -2t-48 -2l-22.5 9t-16.5 18q-6 10 3 16t20 8q33 -4 70.5 0t74.5 13l141 32 q12 4 26.5 -3t20.5 -17q4 -4 4 -13.5t-8 -13.5l-121 -61l-176 -98q-66 -31 -129 -68q8 -12 14.5 -24.5t12.5 -24.5l41 -66q6 -6 14 -18q10 0 21.5 -8.5t9.5 -18.5q-2 -6 -3 -11t-1 -11q-8 -16 -31.5 -12.5t-32.5 20.5l-6 6l-10 14q-4 8 -10 13.5t-11 13.5q-16 33 -38 61 q-4 10 -9.5 18.5t-11.5 18.5l-37 -18q-66 -37 -137 -72q-27 -12 -52.5 -23.5t-53.5 -21.5q-29 -8 -59 -16t-58 -13q-29 -6 -59.5 -8t-59.5 8q-16 8 -28.5 17.5t-18.5 25.5q-8 10 -8 22.5zM57 31q0 -4 2 -6l2 -5v-2h2h11h18q96 8 180 46t170 83q23 12 44.5 23.5t43.5 24.5 q-6 12 -12 23t-12 24q-16 35 -33.5 68.5t-28.5 70.5q-6 18 -12 36.5t-10 39.5q-45 -43 -89 -86t-91 -88q-29 -31 -57.5 -60.5t-53.5 -64.5q-16 -20 -34.5 -44t-28.5 -51q-4 -4 -6.5 -13t-4.5 -11v-2v-6zM57 37q0 2 2 2t-2 0v-2zM63 16q4 -2 0 2v-2zM485 614l27.5 27.5 t26.5 28.5q25 27 49 54.5t45 57.5q4 6 6 10.5t6 8.5q2 4 5 9t7 11l7 17q2 6 2 12v2q0 8 -11.5 6t-15.5 -6l-12 -6q-10 -6 -14.5 -9t-10.5 -10q-14 -12 -26.5 -23t-22.5 -26l-37 -57q-25 -53 -31 -107z" />
<glyph unicode="'" horiz-adv-x="311" d="M104.5 654q-0.5 1 4.5 3q2 2 3 4.5t5 4.5l18 24q8 12 14.5 21.5t10.5 21.5q6 16 29.5 10t25.5 -22q0 -16 -9 -31.5t-20 -27.5q-8 -10 -17 -23.5t-22 -17.5q-10 -2 -22 1t-19 11q-10 14 3 24q-4 -4 -4.5 -3z" />
<glyph unicode="(" horiz-adv-x="382" d="M31 -17.5q0 31.5 2 64.5q6 94 26.5 185.5t53.5 181.5q29 78 64.5 152.5t76.5 146.5q20 35 41.5 68.5t50.5 66.5q14 16 29.5 32.5t32.5 30.5q16 16 42 18t44 -14q4 -4 7 -8t1 -8q-8 -16 -29 -18q6 2 2 1t-6 -1q2 0 3 -1t-1 -1h-4q4 2 -1 -2.5t-5 -2.5q-2 -4 -6 -8 q-8 -8 -15.5 -15t-15.5 -17q-31 -35 -53 -68q-23 -31 -42.5 -63.5t-35.5 -65.5q-41 -78 -75 -156t-60 -159q-27 -84 -43.5 -171.5t-12.5 -175.5q0 -31 2 -61.5t11 -58.5q0 -6 4 -19v-4v2q0 -2 1 -3t1 -3q2 -8 10 -25l6 -12q-4 6 -1 2t5 -6l-2 2q8 -8 11 -12q2 -4 -0.5 -1 t2.5 -1q8 -10 0 -19q-6 -10 -23 -6q-23 2 -38 15.5t-25 31.5q-14 29 -20.5 59.5t-10.5 61.5q-4 33 -4 64.5z" />
<glyph unicode=")" horiz-adv-x="346" d="M-104 -201q4 10 8 20.5t10 20.5q8 10 23.5 8t23.5 -6q10 -4 17.5 -14t-1.5 -21q-4 -6 -6 -13t-6 -15q-16 6 -32.5 13t-32.5 13q23 25 45 50.5t41 54.5q80 117 131 258q53 143 71 295q10 68 11.5 137.5t-9.5 138.5q-2 12 -3 24.5t-5 22.5q-4 16 -7 27.5t-7 28.5 q-4 8 -6 14t-6 14t-9 13q0 2 -1 3t-1 3q2 -4 0 -2t-2 4q-2 4 -4 5t-6 5q0 2 -2 3t2 -3l-4 4t-6 4q6 -4 5 -3l-3 3q-2 0 -3 1t-3 1q8 -4 6 -2t-4 2q-10 4 -20.5 11.5t-6.5 19.5t16.5 13t22.5 -3q41 -10 66.5 -46t38.5 -75q18 -59 25 -121.5t5 -125.5q-2 -145 -41 -297 q-33 -143 -102 -283q-33 -63 -73 -121.5t-89 -109.5q-10 -10 -24.5 -8t-24.5 6q-6 4 -14.5 11t-3.5 17z" />
<glyph unicode="*" horiz-adv-x="434" d="M90 694q2 8 12.5 11.5t21.5 1.5t20.5 -9.5t9.5 -17.5q0 -6 2 2t-21 18q-8 4 -16 5q-16 2 -21.5 2t-6.5 -2.5t2 -3.5t5 1l-2 -2q4 4 8 7q2 2 -2 -1.5t0 -0.5q0 2 1 2t1 2q2 0 7 4l26 26q6 8 13.5 14.5t13.5 14.5q6 6 11 12.5t15 10.5t29 -2.5t19 -20.5q0 -10 -8.5 -19.5 t-14.5 -17.5q-8 -10 -16.5 -18t-16.5 -19q-6 -8 -14 -16t-16 -12q-12 -6 -22.5 -5t-23.5 5q-8 4 -14 11t-2 17zM130 863q-1 9 13 14q10 4 22.5 0.5t18.5 -13.5q4 -4 4 -8q2 -2 3.5 -5t-1.5 3v-6q2 -2 2.5 -3t2.5 -3q4 -10 6 -18.5t4 -18.5q4 -10 10 -33.5t-10 -28.5q2 0 3 1 t3 1q-4 -4 -16 -4q4 2 6 2t6 2l-2 -2q-4 -4 -11.5 -2t-11.5 9q2 -2 4 -3.5t4 -5.5q-4 4 -8 7q-4 4 -3 3t5 -6q-6 4 -10 11q-2 4 -2 6t-2 6q-4 8 -5 16.5t-5 16.5q-4 10 -8.5 17t-8.5 18q0 2 -1 3t-1 3t-2 4t2 -2l-2 2q-8 8 -9 17zM172 754q-2 10 0 17t6 15q4 12 9.5 23.5 t9.5 24.5q8 20 17.5 40.5t21.5 38.5q6 8 18 8.5t23.5 -5t17.5 -14.5t0 -19q-4 -4 -1 0t1 0q-4 -8 -4 -9q-4 -12 -8 -18q-4 -10 -9.5 -22.5t-9.5 -22.5q-8 -16 -14 -34.5t-10 -37.5q-4 -10 -17.5 -12t-23.5 2t-17.5 9t-9.5 16zM188.5 757.5q-4.5 8.5 1.5 14.5t15.5 11 t19.5 10q8 4 16.5 8t18.5 8q14 4 35 18q8 4 14 9.5t13 9.5q10 6 24 4t25 -10q6 -4 9 -12.5t-3 -16.5t-14.5 -13t-18.5 -10q-8 -6 -16.5 -10t-18.5 -8t-18 -8t-19 -8q-10 -4 -19.5 -8.5t-19.5 -8.5q-23 -4 -36 8q-4 4 -8.5 12.5zM190 753.5q1 8.5 13 12.5q16 4 29.5 -3 t17.5 -22q8 -20 10 -28q4 -14 8 -28.5t6 -31.5q0 -12 -11 -16t-21 -2t-20.5 8t-14.5 19q-2 6 -2 18q2 8 12 10t16 0q8 0 18.5 -4t14.5 -14q0 -2 1 -3t1 -3q-2 4 -1 3t1 -3q-16 0 -30.5 -1t-30.5 -3q0 12 -2 24t-6 23q-2 10 -6 26q-4 10 -3 18.5z" />
<glyph unicode="+" horiz-adv-x="616" d="M61 422q-8 18 13 22q23 6 44 8.5t44 4.5l127 8l49 106q8 14 15 27.5t12 30.5l6 26v7v4q-2 8 5 11t13 3q14 2 27 -8q14 -10 14 -21q0 -20 -2 -30q-6 -27 -22 -62l-41 -92q90 4 180 0q12 0 24.5 -4t20.5 -14q16 -16 -2 -31q-4 -4 -13 -8q-20 -10 -45 4h-32q-16 2 -34 2h-34 q-23 0 -45.5 -1t-44.5 -1q-27 -63 -59 -131q-14 -33 -28.5 -66t-27.5 -67q-4 -10 -16 -12.5t-24.5 0.5t-21.5 12.5t-5 19.5q25 68 55 129l51 113l-98 -6q-10 0 -21.5 -1.5t-23.5 -1.5q-4 -2 -15 -2h-4q-10 0 -16 2l-5 2.5l-5 2.5l-7 7t-8 7z" />
<glyph unicode="," horiz-adv-x="159" d="M-90 -37q-2 10 5 14.5t15 4.5q2 0 6.5 1t-2.5 -1q2 0 4.5 1t6.5 1q4 2 6 2t4 2q2 0 3 1t3 1q16 6 27 14q4 2 6 4t6 4q2 2 3 2t3 2t0 2q8 6 21 19q4 4 5 6t3 4t2 3t2 3q6 8 6 21q0 2 2 4v6q2 2 3 4t5 4q12 12 22.5 1t12.5 -7l-8 6q8 -4 14 -11t8 -18q0 -14 -6 -26 q-6 -16 -16 -27.5t-21 -21.5q-25 -23 -54.5 -38.5t-63.5 -10.5q-10 2 -21.5 8t-11.5 16z" />
<glyph unicode="-" horiz-adv-x="591" d="M51 442q-6 16 12 25q23 4 44.5 6t44.5 4q33 4 63.5 5t63.5 3q63 4 126.5 5.5t129.5 -1.5q12 -2 23.5 -5t21.5 -13q16 -18 -2 -33l-13 -6q-25 -10 -47 4h-31h-67h-66.5t-66.5 -2l-131 -6l-45 -4h-17h-2q-12 -2 -24.5 3t-16.5 15z" />
<glyph unicode="." horiz-adv-x="335" d="M-17.5 25.5q-7.5 9.5 1.5 19.5l30 31q10 6 23 2q12 0 24 -8q16 -16 9 -29q-6 -8 -13.5 -14.5t-13.5 -12.5q-10 -6 -18 -6q-12 -2 -27 4q-8 4 -15.5 13.5z" />
<glyph unicode="/" horiz-adv-x="432" d="M-166 -98.5q6 16.5 16 32.5q8 12 27 9q53 86 113.5 166.5t122.5 160.5q57 76 114.5 152t112.5 153q29 39 55.5 78t50.5 80l15 23q2 4 6 8q0 2 2 2h-2h2v2l4 8l19 39q4 12 17 13t23 -1q4 0 9 -4l8 -4q4 -4 9 -11t1 -13q-6 -12 -11 -25.5t-11 -24.5q-6 -10 -9 -12v-2 q-6 -4 -2 -4q-4 -4 -8 -12q-8 -14 -16 -26.5t-17 -24.5q-33 -51 -68.5 -100.5t-70.5 -98.5q-113 -154 -229.5 -301.5t-214.5 -313.5q-4 -8 -16.5 -8t-20.5 4q-20 4 -27 19q-10 20 -4 36.5zM467 764v2v-2zM468 768q3 4 1 0q-4 -4 -1 0z" />
<glyph unicode="0" horiz-adv-x="735" d="M-70 154q2 59 14.5 120.5t30.5 118.5q31 90 74 174t94 162q49 76 106.5 147.5t131.5 124.5q8 6 21.5 4.5t23.5 -9t14 -17.5t-8 -18q-6 -4 -12 -9.5t-12 -11.5q-70 -59 -124.5 -131t-101.5 -150t-87 -161.5t-64 -173.5q-16 -53 -25 -105q0 -10 -4 -31q0 -12 -2 -22v-57 q2 -8 2 -15.5t2 -13.5q2 -4 2 -6t2 -6q0 -2 1 -4.5t-1 2.5q0 -2 1 -3.5t1 -3.5q2 -8 10 -24q2 -2 2.5 -3t2.5 -3q2 -4 -1.5 0t1.5 0q2 -4 3 -5t3 -6q2 -2 3 -2t3 -2q-4 4 -3 2t3 -2q6 -6 10 -8q4 -4 -1 0t1 0q2 0 2 -1t2 -1q2 -2 3 -2t3 -2q6 -2 0 1t0 1q2 -2 4 -2t5 -2 q2 0 5 -1t-5 1q4 0 7 -1t7 -1h6h14q4 0 8.5 1t8.5 1q2 0 4 1t4 1q6 2 13 3t16 5q2 2 4 2t4 2q6 2 2 0t2 0q8 4 14 8t13.5 7.5t13.5 7.5q31 16 57.5 36.5t50.5 43.5q53 47 96.5 100t82.5 113q49 76 90 154.5t69 164.5q12 43 21.5 85t13.5 87q4 18 4 38t-2 38q0 10 -4 31v6 q-2 6 -1 2t-1 0q0 6 -4 10q0 4 -4 12q-4 4 0 -1t0 -1q0 2 -1 2t-1 2l-2 3q-4 4 -6 4q8 -4 4 -2t-6 4q10 -4 7 -3t-7 1q-4 2 2 1t2 -1h-4q-8 2 -2 1t0 -1h-11q-2 0 -4 -1t6 1h-4q-8 -2 -20 -7q-2 0 -7.5 -3t1.5 1q-4 -2 -5.5 -2t-5.5 -2q-4 -4 -10 -6t-10 -6 q-10 -6 -21.5 -12t-21.5 -15q-2 -4 -4 -5t-6 -5q-2 0 -4.5 -2t2.5 2q-4 -4 -5 -4l-18 -18q-27 -23 -48.5 -49.5t-43.5 -53.5q-47 -59 -88 -123.5t-72 -132.5q-10 -18 -18 -38.5t-11 -41.5q2 6 1 3t-1 -5q0 -4 3 -6q0 -4 -2.5 1t2.5 1q0 -2 1 -2t-4 4q0 -2 0 -1t-4 5 q4 -4 -2 -1t-2 3q-6 2 -5 2t-7 0q4 2 0 1t0 -1q4 2 6 2.5t6 2.5q-4 -2 -6 -2t-4 -3l2 3q20 6 37 -7q6 -4 9 -12t-7 -12q-2 -2 -2 -1t2 3l-4 -4l-2 -2q-4 0 -8 -4q-4 0 -7.5 -1t-7.5 -1q-25 0 -39 12q-14 10 -16 25.5t2 31.5q8 45 33 92q33 68 74 129q23 35 48 70t52 70 q20 23 40.5 46t43.5 44q41 35 87 62.5t99 23.5q59 -4 90 -53q16 -27 19.5 -59t1.5 -60q-4 -90 -28.5 -175t-61.5 -167t-85 -158t-104 -147q-41 -51 -87 -96.5t-99 -80.5q-53 -37 -122 -61.5t-134 0.5q-29 12 -53.5 32.5t-38.5 51.5q-23 53 -19 113z" />
<glyph unicode="1" horiz-adv-x="559" d="M-162 4q0 12 10 12q14 10 33 10.5t35 2.5l64 6l61 6q0 4 4 8l8 17l19 34q8 14 14 28.5t14 31.5q12 23 24.5 47t22.5 49l86 172l74 137l84 150q43 72 84 131l-53 -31q-27 -16 -52.5 -30.5t-54.5 -28.5t-59.5 -25.5t-60.5 -7.5q-10 2 -20.5 7t-14.5 13v2q-4 8 4 17 q10 10 24 6q4 2 9.5 2t-0.5 0q8 0 12 2q20 8 25.5 9t11.5 5l14 7l29 14q25 14 48 28.5t48 26.5l102 60q29 16 57.5 31.5t57.5 31.5q24 10 49 -8q8 -4 10.5 -15.5t-8.5 -17.5l-6 -2q-20 -14 -41 -39q-20 -20 -45 -55q-23 -29 -43 -59.5t-41 -61.5q-35 -61 -68.5 -122.5 t-68.5 -123.5q-29 -53 -56.5 -108.5t-54.5 -108.5q-12 -29 -25.5 -55.5t-27.5 -54.5q-8 -16 -16 -34t-19 -34q-4 -10 -9 -19.5t-9 -19.5q49 4 98 2t98 -6q27 -4 35 -23q4 -8 0 -15t-12 -9l-33 -8l-22 -6q-8 0 -13 2h-2q-4 0 -4 1t-2 1t-2 2q-2 2 -3 2t-3 2q-4 4 -6 8h-14 h-25q-27 0 -51.5 -1t-50.5 -3l-107 -8l-65 -6q-18 -2 -39 -4.5t-39 4.5q-6 4 -13.5 8t-9.5 14z" />
<glyph unicode="2" horiz-adv-x="839" d="M-162 0q-4 14 8 27q14 14 34 20t38 10q25 6 50.5 9.5t51.5 7.5l15 2q37 23 72.5 50.5t70.5 53.5l129 103q66 53 129.5 109.5t122.5 117.5q55 55 111 127q10 16 21 31.5t22 31.5q0 2 1 3.5t1 3.5t2 4l6 10l12 27q4 12 9.5 26t9.5 29q4 16 6 27.5t0 25.5v13.5t-2 13.5 q0 4 -2 8q-2 2 -2 4t-2 6l-4 6q4 -4 2 -2t-2 4l-9 9q-4 4 -6 4q-4 4 -6 4l-4 4h-6q-2 2 -8 2q4 -2 4 -1t-2 1h-4q-2 0 -6.5 1t1.5 1h-10q-4 -2 -11 -2t-11 -2h-6q-4 -2 -11 -2l-18 -6q-37 -10 -72 -32t-74 -52q-53 -43 -99 -103.5t-56 -132.5q0 -2 -6 -8q-12 -10 -30.5 -4 t-25.5 16q0 -2 -3 3t-3 7q0 6 2 11v10l6 20q4 10 7.5 21.5t7.5 21.5q33 68 87 124.5t120 97.5q33 20 71.5 36.5t78.5 21.5t79 -4t70 -40q23 -23 29.5 -50.5t4.5 -57t-11 -59.5t-19 -54q-31 -61 -74 -117q-25 -35 -53.5 -66.5t-57.5 -60.5q-59 -63 -124.5 -119.5 t-133.5 -109.5l-129 -105q-16 -12 -34.5 -25.5t-34.5 -27.5q63 6 129 6q49 2 97 1t97 -5q41 -4 81 -9t79 -22q10 -4 19.5 -11t9.5 -21q-4 -18 -19.5 -20.5t-29.5 1.5q-6 2 -13.5 7t-11.5 14h-12l-9 4h-6l-20 4l-80 6q-43 4 -88 4t-90 -2q-57 0 -113 -6q-6 0 -10 -2h-10 q-29 0 -56 -6h-10h-2q-12 -4 -18 -4l-29 -5q-16 -10 -31.5 -20t-31.5 -18q-23 -10 -49.5 -19.5t-53.5 0.5q-33 10 -39 39zM328 596h2h-2zM729 925q-2 1 4 -3q-2 2 -4 3z" />
<glyph unicode="3" horiz-adv-x="776" d="M-57 98.5q0 22.5 10 44.5q18 49 53 90t76 72q16 10 38.5 24.5t45.5 14.5q-6 0 -2 1t8 1q8 0 12 -2q10 0 15 -2q8 -4 17 -10t7 -17q2 -10 -7 -12t-19 2h-2l-13 -8l-28 -21l-21 -12l-8 -6q-4 -4 -1 -1t-1 -1l-2 -2q-18 -16 -36.5 -32.5t-33.5 -35.5l-14 -20l-6 -10 q-4 -4 -1 0t-1 0v-2q0 -2 -2 -2q-12 -25 -18.5 -60t18.5 -57q8 -8 12 -10q4 -4 8 -5q4 -4 8 -4l2 -2q4 0 6.5 -1t4.5 -1q2 -2 6 -2h2q2 -2 8 -2q14 -4 22 -2q-8 -2 -1.5 -1t10.5 -1q8 0 12 2q16 0 25 2h4h4l14 4l27 6q86 23 168 72q14 10 27.5 19.5t25.5 19.5 q14 8 24.5 15.5t22.5 17.5q23 23 44.5 45t37.5 49q4 6 7 11t7 12q4 8 8.5 14t8.5 16q14 31 16 60q2 -4 1 0t-1 6q0 4 2 6v12q-2 6 -1 11.5t-1 11.5l-2 4q0 2 -2 4q0 6 -4 10q-2 4 -2 6t-2 4t-1 3.5t-1 3.5q-12 16 -16.5 20t-12.5 10q-4 4 -12 8l-4 5l-21 10l-14 6h-2l-2 2 q-6 2 -13.5 3t-13.5 5l-24 8q-2 2 -5 2q-6 0 -6 2q-4 0 -6 1.5t-6 1.5l-57 4h-2h-2h-7q-8 0 -12 2h-14q-4 -2 -13 -2q-12 0 -25 6t-18 16q-6 10 1.5 16.5t17.5 10.5h4h2h4q8 4 12 4l29 10q6 0 11 2l10 4l8 4q10 4 18 8.5t17 10.5q90 37 168 96l10 8q2 0 4 2t-2 -2l4 4l18 17 q8 8 17.5 15t15.5 17q16 20 22.5 28.5t6.5 10.5l4 9q4 14 6 20t-2 29q-2 8 -9 17t-14 13q-2 0 -3 2.5t-3 2.5q-10 6 -21 11t-28 5h-29.5t-29.5 -4l-29 -6q-10 -4 -23.5 -8.5t-29.5 -10.5q-33 -12 -57 -33l-31 -20l-10 -8l-7 -4q-4 -4 -1 -1t-1 -1q-12 -8 -23 -18.5 t-24 -20.5l-33 -41q-6 -6 -10 -13.5t-8 -17.5l-4 -6q-4 -10 -16.5 -12t-24.5 2t-20.5 13t-2.5 19v3q0 2 1.5 3t1.5 3l4 6q29 53 74.5 93t95.5 69q53 35 119.5 53t127.5 8q31 -6 60.5 -19t52.5 -40q29 -31 27 -70q-4 -45 -33 -80t-64 -63q-41 -35 -87 -62.5t-93 -54.5 q-10 -4 -19 -8t-20 -8q53 -10 102.5 -32t84.5 -61q16 -18 28.5 -40.5t14.5 -49.5q4 -31 -4.5 -62.5t-20.5 -60.5q-31 -59 -76 -105t-98 -85q-53 -35 -110.5 -61.5t-120.5 -43.5q-55 -14 -113.5 -16t-110.5 27q-16 10 -33.5 26.5t-27.5 38.5q-10 23 -10 45.5zM39 25l4 -2 q-2 0 -4 2zM193 303l4 2q2 0 -4 -2zM502 510q2 0 5 -2t-1 0zM584 451q0 -2 1 -4t-1 4zM596 419q0 -1 2 -3q-2 4 -2 3z" />
<glyph unicode="4" horiz-adv-x="735" d="M-92 285q2 14 10 18q20 20 43 38.5t45 35.5q57 51 115.5 100t114.5 98q59 55 117.5 109.5t115.5 112.5q47 49 90 99t90 103q8 10 22.5 9t24.5 -7q6 -2 13.5 -10t5.5 -18q0 -2 -1 -3t-1 -3l-2 -2q-51 -115 -104.5 -226.5t-106.5 -222.5q-23 -49 -45.5 -97t-44.5 -95 q47 2 92 5t92 7q12 8 28.5 7t32.5 -5q10 -2 18.5 -8t10.5 -17q-2 -10 -9 -14t-16 -6q-6 -2 -13 -2t-13 -2h-12q-57 -6 -116 -10.5t-118 -6.5q-8 -16 -14 -31.5t-15 -31.5l-59 -141q-8 -18 -16.5 -37t-12.5 -35q-10 -12 -16 -26.5t-25 -18.5q-10 -2 -22 3t-17 13q-8 10 5 21 l4 6q4 6 4 11t2 11l20 56q12 29 22.5 53.5t20.5 52.5q10 23 21.5 45.5t21.5 44.5q-49 -2 -98 -2t-98 -2h-45.5t-44.5 -2l-45 -4q-16 -4 -25 -2q4 -2 8 -2h-2h-2q-8 2 -22 2q-8 2 -17.5 10t-11.5 19zM25 311q72 2 143.5 3t144.5 5h21q10 23 18.5 42t18.5 42q47 98 93 195.5 t93 196.5q-35 -35 -67.5 -68t-67.5 -65q-94 -94 -193.5 -179.5t-203.5 -171.5zM195 -12q2 2 4 2q-2 0 -2 -1t-2 -1z" />
<glyph unicode="5" horiz-adv-x="776" d="M-10 43q-16 43 0 96q16 49 49 91t72 75q16 14 34.5 28.5t38.5 18.5q4 0 9.5 1t9.5 1h2h6h2q4 -2 10 -2q2 -2 4 -2t6 -2q6 -4 12.5 -12t2.5 -17q0 -6 -6 -8t-13 0l-12 -6q-8 -4 -15 -9t-14 -11l-8 -6q-2 0 -2 -1.5t-2 -1.5q-4 -4 0 -0.5t0 -1.5l-16 -12l-33 -35 q-10 -10 -17.5 -19t-15.5 -20l-14 -22q0 -2 -1 -2t-1 -2t-2 -4l-4 -8q-10 -23 -17 -41q-2 -6 -3 -11.5t-1 -11.5v-2v-4v-8q0 -8 2 -13v-8l4 -8l4 -8l5 -6q0 2 -3 2h3l6 -8l6 -7q-6 4 -3 1t5 -3q0 -4 6 -4q2 -2 3 -2t3 -2l8 -4h9q2 0 0 -2h6h8h2h4h23q2 0 8 1t-2 1q8 0 10 2 q14 4 26.5 7t24.5 7l8 5h2l13 6l26 12l54 31q109 74 190 182q23 29 37 57q14 20 29 56q12 33 18 59v10v2q2 4 2 13q0 4 -1 10t-1 10l-4 12v4l-10 19q0 2 -1 2t-1 2l-7 6l-2 2l-2 2l-6 6l-10 6q8 -4 4 -2t-6 5l-21 8l-4 2t-6 2t-4 2l-22 6h-2h-5q-4 2 -12 2l-24 4 q-8 0 -14.5 1t-12.5 1h-14q-2 2 -7.5 2t0.5 0h-51t-51 -2h-4q-16 -8 -37.5 3.5t-17.5 29.5q2 10 4 18.5t8 14.5q20 59 44 117.5t42 119.5q4 10 16.5 12.5t24.5 -1t21.5 -12.5t5.5 -19q-18 -59 -41 -116.5t-45 -117.5q27 2 52 1t52 -3q53 -4 106.5 -19.5t92.5 -51.5 q41 -41 41 -95.5t-23 -103.5q-27 -61 -67.5 -116.5t-90.5 -102.5q-47 -45 -102 -83t-117 -63q-47 -18 -103.5 -24t-103.5 20q-47 23 -69 72zM92 6q2 0 6 -2t-6 2zM168 913.5q2 10.5 14 12.5q76 12 153 15t154 7q86 4 173.5 0t173.5 -16q22 -4 30 -14q12 -16 4 -25 q-12 -12 -22 -20.5t-27 -8.5q-10 0 -20 4t-13 17v6q-29 4 -58.5 5t-57.5 3q-10 2 -19.5 2h-19.5h-41h-80q-41 -2 -80 -3t-78 -5l-71 -6q-8 0 -16.5 -1t-18.5 -3q-12 0 -19 -2q-4 0 -9 -1t-5 1q-27 -6 -43 14q-6 8 -4 18.5zM492 555h2h-2zM530 543q8 -4 2 -1t-2 1z" />
<glyph unicode="6" horiz-adv-x="704" d="M-37 170q2 37 8 74q16 84 48 161.5t73 149.5q78 133 191 250q20 18 39.5 35.5t42.5 33.5q27 20 53 38t55 32t59.5 23.5t61.5 5.5q35 -4 66 -24.5t45 -53.5q14 -35 12 -71t-12 -70l-19 -41q-6 -12 -12 -22.5t-17 -16.5q-23 -16 -53 -2q-10 4 -17 15t1 22q6 10 20 10l4 4 l15 29q14 31 16 57q4 16 4 31.5t-4 31.5q0 2 -1 6.5t1 0.5q0 2 -1 3t-1 3l-6 12q0 4 -6 10t-13 11q-2 0 -2 1t-2 1t-2 2q-2 0 -3 1t-3 1h-4h-6h-12q-2 0 -3 -1t-4 -1q-4 0 -6 -1t-6 -1l-16 -7q-2 0 -3 -1t-3 -1q-4 -4 0 -1t-2 -1l-27 -12q-14 -8 -27.5 -15.5t-27.5 -17.5 q-29 -18 -51 -39q-10 -8 -19.5 -15t-19.5 -17q-53 -47 -97.5 -103.5t-83.5 -116.5q-45 -72 -79.5 -147.5t-55.5 -157.5q-10 -35 -15 -72.5t-1 -74.5q4 -16 6 -28.5t10 -29.5q2 -4 4 -7t4 -7l4 -6q-4 4 -2 1t5 -3q4 -8 9 -13t15 -16q8 -4 12 -8q2 0 2 -1t2 -1l13 -6q-4 2 2 0 q2 -2 8 -2q2 -2 8 -4t-2 2q16 -4 27 -4h4h8q10 0 14 2h2q6 0 9 2q4 0 8 1t8 1l18 6l9 4q-4 -2 -3 -1t3 1t4 2l16 8t19 9q68 39 125 98q25 27 48 55.5t42 59.5q16 27 26 49q12 25 19 57l6 29v4v6q0 8 -2 12v15q-2 2 -3 7t1 1q-2 6 -4 11t-7 11q4 -6 2 -3t-4 5l-4 4q0 2 -2 5 h-2l-4 4h-2q-4 2 -5 4t-5 2q-2 0 -2 1t-2 1h-2q-2 0 -3 1t-5 1q-6 0 -12.5 2t-14.5 2h-2h-4h-4q-35 0 -69 -11.5t-67 -29.5q-33 -16 -58 -40t-48 -52q-25 -33 -41 -66l-20 -37q-2 -2 -2 -4t-3 -4q0 -8 -7 -11t-13 -5q-10 0 -20.5 4t-14.5 14t-2 19.5t6 17.5q23 66 62 113 q37 47 87 79.5t107 49.5q41 10 82 12t80 -12q33 -10 58.5 -30.5t35.5 -55.5q18 -57 -3 -118.5t-54 -109.5q-45 -66 -103.5 -123t-130.5 -92q-35 -18 -70.5 -28t-76.5 -8q-72 4 -125 47q-55 43 -74 110q-10 37 -8 74zM504 459h2q2 0 2 -1t-4 1zM524 449q-2 -1 2 -5q-2 4 -2 5 zM582 924q6 0 1 -1t-1 1z" />
<glyph unicode="7" horiz-adv-x="665" d="M-74 0q4 18 11.5 36.5t15.5 37.5q8 18 16 35.5t19 35.5q18 35 38.5 69t43.5 69q43 63 90 122.5t96 116.5q53 61 107.5 120.5t113.5 117.5q31 29 61.5 56.5t65.5 51.5q12 10 24.5 18.5t24.5 16.5q-6 0 -12 -1t-14 -1q-41 -4 -81 -8t-81 -8t-83 -6t-83 0h-44.5t-43.5 4 q-23 2 -41 8t-35 22q-10 10 -5 20.5t17 14.5q27 6 48 -8v-2h6q8 0 16 -1t19 -1q12 0 18 -2h6h8h39q41 2 79 4t79 6t80 8t80 9q31 2 63.5 2t63.5 -9q10 -4 19 -10t13 -16t-2 -15q0 -4 -4 -4l-4 -4q-6 -6 -18 -12q-8 -4 -14.5 -8t-14.5 -8q-14 -8 -26.5 -16.5t-26.5 -18.5 q-29 -20 -53.5 -42t-51.5 -44q-53 -49 -102 -101.5t-96 -105.5q-55 -61 -107.5 -125t-101.5 -131q-27 -37 -50.5 -75t-45.5 -79q-10 -18 -20.5 -37.5t-18.5 -40.5v-4q2 -2 4 -5t-2 -7q-2 -4 -4 -9t-5 -11l-4 -7q4 4 2 2l-4 -4q0 -2 -1 -2t-1 -2l-22 -39q-6 -10 -21.5 -8 t-25.5 6q-6 4 -13.5 11.5t-3.5 17.5z" />
<glyph unicode="8" horiz-adv-x="696" d="M-104 158q4 31 18 58.5t31 51.5q41 59 95 106.5t114 84.5q43 27 87 49t89 47q-8 8 -15.5 14t-15.5 15q-27 27 -51.5 56.5t-36.5 64.5q-6 20 -8 39.5t4 39.5t17.5 39t25.5 35q49 59 112 92t121 45q35 8 68 11.5t67 -7.5q25 -6 50.5 -22t31.5 -45q4 -16 -2 -31.5t-12 -30.5 q-10 -23 -23.5 -41t-29.5 -36q10 4 21.5 3t19.5 -5q10 -4 15 -14.5t-1 -20.5q-10 -16 -20.5 -29.5t-24.5 -28.5q-31 -33 -57 -55q-31 -25 -65 -46.5t-68 -41.5q-8 -4 -15.5 -9t-17.5 -9q29 -33 53.5 -69t36.5 -77q25 -74 0 -151q-25 -68 -76 -125q-49 -53 -113.5 -92 t-136.5 -52q-76 -16 -147 4q-33 10 -64.5 29t-54.5 47q-33 47 -22 107zM-37 121q0 -16 2 -25q0 -4 2 -6q2 -4 0 -1t0 -1q2 -2 2 -4t2 -6l6 -10q4 -4 5 -9l10 -8q4 -4 6 -4l6 -6q2 -2 5 -4t-3 2l12 -6l17 -8q-6 4 -3 2t5 -2q2 -2 6 -2l18 -7q10 -2 18.5 -3t12.5 -1h2h16.5 t16.5 2q4 0 8 1t8 1q-4 -2 -4 -1t2 1h4q4 0 5.5 1t3.5 1l34 9l17 6l8 4h4q16 8 31.5 16t32.5 19q14 10 28.5 19t24.5 20q27 23 49.5 49t36.5 55q18 35 27.5 71t3.5 74q-4 16 -7.5 31t-11.5 31q-10 16 -17.5 28.5t-17.5 26.5q-6 8 -12 16.5t-14 16.5q-53 -29 -106.5 -58.5 t-102.5 -63.5t-92 -76t-74 -93l-12 -24l-13 -27l-6 -27q0 -4 -1 -6t-1 -6v-2v-6zM272 739q0 -33 23 -65q4 -4 9 -13.5t11 -15.5l23 -27q10 -10 19.5 -18t19.5 -18q20 10 39 22q31 18 61 38.5t55 43.5q25 20 49.5 44t41.5 52q-10 -14 -23.5 -26.5t-28.5 -24.5q-4 0 -10 -6 l-10 -10q-8 -8 -14 -10q-6 -6 -13.5 -11.5t-13.5 -9.5q-16 -10 -34.5 -14t-33.5 10l2 -2q-14 10 -10 21.5t12 21.5q4 6 15.5 4t15.5 -8v2q4 0 5 3t5 5l15 12l26 29q16 16 30.5 33.5t29.5 36.5l24 34l6 11q-2 -4 -2 -3t2 3q0 2 3 4l8 16l4 17q0 4 1 9t-1 11v2l-4 4l-2 2 q-2 0 -4 2l-2 2q-2 0 -3 2l-12 3t-14 1h-2h-4h-15q-4 0 -8 -1t-8 -1h-8q-2 0 -5 -1t3 -1q-16 0 -31 -6q-31 -6 -61 -18q-2 -2 -4 -2t-3.5 -1t3.5 1q-29 -12 -49.5 -25.5t-43.5 -32.5q-37 -31 -59 -63q-10 -16 -18.5 -32.5t-6.5 -35.5z" />
<glyph unicode="9" horiz-adv-x="663" d="M53 539q-8 41 4 82q16 53 50 98t71 84q39 41 83 79t91 68q16 10 35 20.5t37 18.5q23 8 47 -2q4 0 4 -2q8 -4 10 -8q12 -12 7 -23q-10 -23 -39 -14l-9 -4q-10 -4 -18 -10t-18 -13q-35 -25 -46.5 -33t-15.5 -12l-10 -8l-6 -4l-2 -2q-47 -37 -86 -80q-20 -23 -39 -44 t-35 -46l-14 -25l-7 -10q2 4 0 2t-2 -4t-1 -2t-1 -2q-12 -23 -18 -45l-6 -23q-4 -23 5 -51t38 -28q14 2 35 12l8 4q4 2 7 3t7 5q18 10 35.5 22.5t34.5 24.5q10 6 12 8.5t4 4.5l17 14l36 35q39 35 74 72.5t70 78.5q31 37 60.5 74t58.5 74l41 57l14 23l6 10q0 2 2 2q2 2 2 4 q6 10 21.5 9t25.5 -5q6 -4 14.5 -12t4.5 -19l-2 -4q-57 -92 -109.5 -184t-101.5 -186q-45 -86 -86 -171t-80 -171q-18 -45 -37 -88t-35 -89q-10 -23 -17.5 -44t-15.5 -44l-16 -47q-4 -8 -7 -17t-9 -13q-16 -8 -37 -1t-25 25q-2 4 0 10.5t4 10.5l4 8l8 20l17 49l39 99 q18 49 38.5 97t43.5 95q35 74 69.5 146.5t71.5 144.5q-18 -20 -38.5 -39.5t-43.5 -38.5q-27 -25 -61.5 -51.5t-73.5 -44.5t-79 -21.5t-77 23.5q-35 27 -43 68zM682 1020q4 6 3 5t-1 -5h-2z" />
<glyph unicode=":" horiz-adv-x="438" d="M95.5 23.5q-7.5 9.5 0.5 19.5l31 31q10 6 23 2q12 0 24 -8q16 -16 8 -29q-6 -8 -13 -14.5t-13 -12.5q-10 -6 -19 -6q-12 -2 -26 4q-8 4 -15.5 13.5zM200 359.5q-7 9.5 1 19.5l30 31q10 6 23 2q12 0 25 -9q16 -16 8 -28q-6 -8 -13.5 -14.5t-13.5 -12.5q-10 -6 -18 -6 q-12 -2 -27 4q-8 4 -15 13.5z" />
<glyph unicode=";" horiz-adv-x="438" d="M0 -37q-2 10 5 14.5t15 4.5q2 0 6.5 1t-1.5 -1q2 0 4 1t6 1q4 2 6 2t4 2q2 0 3 1t3 1q16 6 27 14q4 2 6 4t6 4q2 2 3 2t3 2t0 2q8 6 21 19q4 4 5 6t3 4t2 3t2 3q6 8 6 21q0 2 2 4v6q2 2 3 4t5 4q18 4 17.5 2t9.5 -2q8 -4 14.5 -11t8.5 -18q0 -14 -7 -26q-6 -16 -16 -27.5 t-20 -21.5q-25 -23 -54.5 -38.5t-64.5 -10.5q-10 2 -21.5 8t-11.5 16zM200 359.5q-7 9.5 1 19.5l30 31q10 6 23 2q12 0 25 -9q16 -16 8 -28q-6 -8 -13.5 -14.5t-13.5 -12.5q-10 -6 -18 -6q-12 -2 -27 4q-8 4 -15 13.5z" />
<glyph unicode="&#x3c;" horiz-adv-x="520" d="M34 499.5q3 6.5 7 10.5q59 41 111.5 86t105.5 92q55 51 110.5 101.5t112.5 99.5q16 12 39 5.5t27 -26.5q4 -6 -1 -13t-11 -11q-2 -2 -4.5 -2t-4.5 -2q-55 -45 -106 -93.5t-105 -95.5q-51 -45 -102 -88t-104 -84q31 -55 53 -113.5t43 -117.5l43 -127q10 -29 21.5 -56.5 t21.5 -56.5q4 -12 -3 -18t-18 -8q-12 0 -25.5 5t-19.5 17q-14 27 -24.5 55.5t-20.5 57.5l-43 127q-23 63 -45 124.5t-57 118.5q-4 6 -1 12.5z" />
<glyph unicode="=" horiz-adv-x="823" d="M37 350q-8 18 12 23q23 4 44.5 6t43.5 4l84 8l170 15l174 8q92 6 185 6q10 2 24.5 -4.5t18.5 -18.5q6 -10 -2.5 -17t-18.5 -7q-47 -4 -95 -4t-95 -2t-91.5 -4.5t-89.5 -6.5l-178 -12q-23 -4 -43 -5t-43 -3l-43 -4q-6 0 -13 -1t-13 1q-10 0 -23 8q-2 2 -2 4q-2 0 -2 1 t-2 1q0 2 -2 4zM121 565q0 10 11 13.5t22 3.5h2h2h26h37t37 2l213 6q37 0 75 2t75 -2q10 0 28.5 -12.5t5.5 -26.5q-4 -4 -4 -6t-2 -6q-8 -16 -29.5 -14.5t-31.5 18.5h-76q-53 -2 -107.5 -3t-107.5 -1q-23 -2 -44.5 -2h-43.5h-18.5t-18.5 2h-10h-4q-2 0 -3 1t-3 1h-2 q-10 2 -18.5 8t-10.5 16zM151 541q1 0 5 -2q-6 2 -5 2zM156 539h2h-2z" />
<glyph unicode="&#x3e;" horiz-adv-x="561" d="M-8 -40q-6 9 2 20q8 16 14 24q4 4 8 4q47 66 98.5 125.5t104.5 118.5t105.5 116.5t103.5 118.5l-10 17q-2 2 -5 6t1 0l-8 12l-33 49l-78 111l-74 111q-27 41 -47 77q-4 10 4 17.5t19 7.5q29 4 43 -21l4 -6q4 -10 9 -18t11 -19l15 -22l8 -10q-2 2 -2 0t2 -2l4 -6l74 -109 q35 -49 69.5 -98.5t65.5 -102.5q6 -6 -2 -18q-53 -61 -107.5 -121.5t-109.5 -122.5q-57 -66 -112.5 -130t-109.5 -134q-2 -2 -2 -3t-2 -3q-6 -10 -19 -10t-25.5 6t-18.5 15z" />
<glyph unicode="?" horiz-adv-x="552" d="M-78 -33q4 10 19 25l26 18q12 6 25.5 3t23.5 -9q8 -6 11.5 -16.5t-7.5 -16.5l-12 -8t-10 -8v-2h-2l-4 -4l-2 -2q-4 -12 -17.5 -14.5t-23.5 1.5t-20.5 12.5t-6.5 20.5zM-14 139q6 10 11 22.5l9 22.5q8 18 16.5 37t18.5 37q14 27 43 45q27 23 57.5 40t59.5 36 q29 16 56.5 36.5t55.5 43.5q33 25 64 49t59 53q29 29 55.5 57.5t49.5 63.5q18 29 33.5 60.5t19.5 66.5v2v4v6v15q-2 6 -2 14q-2 2 -2 6l-2 2q0 8 -4 12l-2 2q-4 4 -4 5q0 4 -3 4l-2 2q-2 0 -3 1t-3 1q-8 4 -3 2t1 0l-4 2h-4h-8q-2 0 -3 1t-3 1q-6 0 -8 -2h-11q-2 0 -3 -1 t-3 -1q-6 -2 -11 -2t-11 -4q-4 0 -13 -4q-2 0 -3 -1.5t-3 -1.5q-4 -2 0 0.5t-2 -0.5l-22 -12q-25 -12 -54 -28l-51 -37l-47 -39q-43 -41 -78 -90q-6 -6 -14 -23q-4 -4 -1 0t-1 0q0 -2 -1 -3t-1 -3q-4 -8 -4 -10q0 -4 -2 -6q8 -4 14 -13.5t-4 -17.5l-7 -7l-7 -7 q-23 -10 -48 0q-8 4 -18 10t-10 16q6 39 28 78q31 53 77 95t95 77q51 39 105 59q23 10 48.5 18.5t49.5 6.5q39 0 76 -15.5t53 -52.5q14 -29 12.5 -63.5t-12.5 -63.5q-27 -74 -79 -135t-109 -112q-57 -49 -115.5 -94.5t-124.5 -82.5l-61 -36q-14 -10 -23.5 -17.5t-19.5 -19.5 q-23 -29 -35 -62.5t-29 -66.5q-6 -10 -18 -12.5t-23 1.5q-8 2 -20 11.5t-8 21.5zM-12 -55q0 -2 2 0h-2zM-2 -47q0 2 2 2zM557 890q-2 1 2 -1h2q-2 0 -4 1z" />
<glyph unicode="@" horiz-adv-x="913" d="M22.5 186.5q4.5 59.5 20.5 112.5q23 68 57.5 132.5t75.5 121.5q45 59 100.5 113.5t120.5 91.5q63 35 137 50t146 -13q63 -27 90 -88q16 -35 18.5 -73t-2.5 -75q-12 -82 -46.5 -159.5t-84.5 -143.5q-43 -61 -94 -102q-27 -23 -56.5 -34t-64.5 5q-29 12 -41 42t-10 58 q0 16 2 23q-8 -6 -22 -21q-20 -16 -42 -31.5t-48 -25.5q-10 -4 -25.5 1t-22.5 15q-20 25 -15 55.5t15 57.5q18 47 46 89t63 79q12 14 27.5 26.5t31.5 20.5q43 20 74 -6q6 10 12.5 20.5t14.5 18.5t19 9t22.5 -3t18.5 -12.5t7 -20.5q-4 -27 -15 -49t-24 -45q-8 -12 -15 -25.5 t-17 -25.5q-6 -20 -12.5 -40t-10.5 -40l-10 -43q0 -4 -1 -9t-1 -10q0 -6 -2 -8q0 -10 -1 -21t3 -24q2 0 3 -4t3 -8q2 0 4 1t-2 -3l23 14q12 8 20 15.5t20 19.5q27 27 49.5 56.5t43.5 62.5q41 66 69 147q10 37 19.5 76t5.5 78q0 14 -1 29.5t-9 31.5q-6 14 -8.5 17.5t-4.5 5.5 l-10 12q-8 8 -23.5 18.5t-39.5 14.5h-15h-8h-18q-10 0 -24.5 -3t-25.5 -7q-10 -4 -14 -5t-14 -6l-27 -12q-66 -33 -120 -81t-101 -107q-90 -115 -139 -250q-10 -29 -15.5 -56.5t-9.5 -62.5v-14v-27q0 -14 1 -27.5t3 -27.5l6 -27q0 -4 1 -5t1 -3v-2l5 -10q6 -16 12 -32.5 t22 -33.5l17 -18l2 -2l4 -4q2 -2 4 -3t4 -6q2 0 7 -3t-1 1l10 -6q4 -6 15 -8h4l2 -2q4 0 12 -4q2 0 7.5 -1t2.5 -1l29 -4h4h4h2h17q8 0 16 1t17 1q6 2 16 2q6 2 1 1t1 1h8q16 4 30.5 8t31.5 8l28 13h4l9 4l12 6l55 31q14 8 26.5 16t24.5 18l13 11q2 2 8 6t22 18q39 35 74 74 t64 82q6 8 11 16t9 17q6 6 4 6q0 2 2 4l2 6h2q0 2 1 3t1 3q2 6 4 11t2 10q0 2 3 4q-8 16 10 20q10 2 21.5 -1t17.5 -11l6 -14l-2 2q2 -2 2 -7q0 -14 -4 -26t-8 -23q-10 -18 -19.5 -36.5t-21.5 -34.5q-29 -47 -68 -87t-80 -75q-49 -41 -105.5 -72t-117.5 -47 q-66 -18 -137.5 -18t-130.5 34q-53 31 -83 79t-41.5 103.5t-7 115zM291 248q0 2 2 2l6 4v2h2l10 8q45 43 86 92l31 43q4 16 10 31.5t15 30.5q0 2 1 3t1 3q-4 0 -13 4l-6 -6l-8 -4q0 -2 -1 -3t3 3l-4 -4l-14 -13l-29 -32q-16 -20 -30.5 -41t-26.5 -43q-2 0 -4.5 -3t2.5 1 l-5 -7q0 -2 -4 -10l-10 -20q-8 -18 -14 -41zM438 -61h2h-2zM772 242q0 2 2 2q0 2 -2 -2zM778 254l2 2zM791 281v2v-2z" />
<glyph unicode="A" horiz-adv-x="1617" d="M-160 -537q2 4 10 9q6 6 7 10q8 8 20 24l33 43q16 20 31.5 40t31.5 38q111 137 231 267.5t247 252.5q27 25 52 50.5t54 50.5l-203 -19q-35 -4 -68.5 -7t-68.5 -7q-74 -12 -156 -31q-4 -8 -15 -9t-21 3q-12 4 -24.5 14.5t-2.5 24.5q4 6 14.5 8t16.5 4q16 4 31.5 7.5 t31.5 7.5q72 16 144.5 23t144.5 14q51 4 101 8t102 8q18 0 28 2q100 90 203 175t211 163q156 113 320 209q74 41 148.5 81t152.5 68q39 14 76.5 23.5t78.5 13.5q16 0 37 1t40 -3t34.5 -14.5t23.5 -28.5q10 -25 3 -50.5t-17 -47.5q-16 -31 -34.5 -58.5t-39.5 -56.5 q-20 -29 -39.5 -56.5t-37.5 -55.5q-27 -43 -53.5 -85t-55.5 -83q-55 -86 -111.5 -168t-109.5 -168l-107 -164l-37 -60l-30 -49l-19 -32q-6 -10 -13 -19.5t-13 -19.5q-4 -10 -19.5 -8.5t-23.5 6.5q-10 4 -15.5 13t0.5 19t11.5 22.5t13.5 22.5l20 35l31 51l37 60 q31 47 61.5 92t59.5 92l223 336q27 41 51.5 81t52.5 81l76 108q10 14 19.5 27.5t17.5 30.5q4 8 7 12t7 12l13 25l4 12t2 12q2 4 2 11v6q0 6 -2 10h2q-2 0 -2 2h-4h-10h-5h-4q-12 0 -24.5 -1t-24.5 -3q-8 -2 -3 0t-1 0q-2 0 -3 -1t-3 -1q-4 0 -6 -1t-6 -1l-25 -6 q-14 -4 -26.5 -8.5t-26.5 -8.5q-51 -16 -99.5 -38.5t-95.5 -49.5q-168 -88 -322.5 -193.5t-301.5 -221.5q-45 -37 -88 -74t-88 -74q49 2 98 2t98 2q49 1 97 1t96 -1q96 -2 192 -12q27 -4 35 -23q4 -8 0 -15t-12 -9q-27 -4 -53.5 -5t-53.5 9l-4 4q-72 3 -142 3h-35 q-87 -1 -179 -3q-47 0 -95.5 -1t-97.5 -3q-84 -76 -163.5 -154t-157.5 -157q-61 -63 -121 -129t-119 -131l-102 -119q-16 -18 -29.5 -34.5t-30.5 -33.5q-8 -10 -16 -19.5t-19 -19.5q-12 -16 -26 -14q-6 2 -17.5 7t-7.5 15zM-119 -553h2q-2 -2 -2 0z" />
<glyph unicode="B" horiz-adv-x="1286" d="M0 -373q29 78 67.5 153t86.5 146q94 145 203.5 276.5t215.5 266.5q41 51 82 102.5t84 102.5l60 69q10 12 20 24.5t21 25.5l26 32l13 17q4 6 13 7t15 3q10 2 19.5 -2t13.5 -14q4 -18 -2 -27l-14 -16l-25 -31l-39 -47l-57 -68q-41 -51 -81 -101t-81 -102q-37 -47 -74 -91 t-73 -91q10 4 18 8l18 9q16 8 35 14t37 12q43 16 85 29.5t85 27.5q59 20 118.5 40t119.5 44q133 53 260 134q53 35 103 72.5t91 90.5q18 18 31 43q-4 -4 -2 -1t4 3q0 4 2 7q2 2 2 4t2 6t4 9t4 11l5 21v4v2v10q0 20 -9.5 45t-27.5 35q0 2 -2 4l-17 12q-2 0 -4 2.5t-4 2.5 l-4 4l-21 10h-4q0 2 -2 2q-4 2 -6 2t-4 2l-25 8l-22 6q0 -2 -4 -1t-6 1l-15 4l-57 7q-8 2 -16.5 2h-16.5q-10 0 -14 2h-2h-4h-4h-66q-66 -2 -131 -8.5t-131 -16.5l-61 -8q-4 0 -7 -2h-6q-4 -2 -12 -2l-27 -6q-45 -6 -96 -19q-27 -6 -53.5 -13t-52.5 -17l-62 -21l-33 -12 l-24 -13q-57 -20 -109 -53l-22 -16l-8 -6q4 4 -0.5 1t-4.5 -5q-8 -6 -14 -15l-6 -6v-2q-6 -10 -17.5 -12t-21.5 2q-8 2 -18.5 10t-5.5 19q8 16 19 28t26 23q16 12 33.5 22t35.5 21q47 23 94.5 41t96.5 35q49 16 99 28t101 23q125 25 252 37q67 6 135 8q22 1 45 1q45 0 89 -3 q55 -4 113.5 -15.5t107.5 -40.5q41 -25 73 -65q28 -35 27 -80v-12q-4 -53 -34.5 -97.5t-67.5 -80.5q-51 -47 -108.5 -87t-119.5 -75q-129 -74 -270 -123q-59 -23 -119.5 -42.5t-120.5 -39.5l-49 -16q41 -2 78 -5.5t74 -13.5q43 -10 86 -35.5t53 -72.5q4 -20 -1 -42t-15 -38 q-16 -31 -38 -57.5t-48 -51.5q-113 -106 -249 -183t-280 -132q-51 -18 -101 -34.5t-101 -31.5l-62 -14q-10 -2 -19.5 -4t-19.5 0q-20 0 -35 14q-10 10 -2 21q-6 4 -12 11t-2 15zM78 -379q23 4 42 9t42 14q27 8 51.5 15t50.5 17l60 21q8 4 15 7t15 7l17 6q6 2 1 0t1 0l8 4 q139 59 266 140q35 23 66.5 46t62.5 48q31 27 59.5 53.5t51.5 57.5q16 23 24 43l7 20q4 8 3 16.5t-3 16.5v2q0 2 -1.5 3t-1.5 5l-6 6q4 -4 2 -2t-2 4q-8 8 -11 10.5t-7 6.5q2 -2 -1 0t-5 4l-8 4q-14 4 -20.5 7t-14.5 5q-8 4 -15 4h-4q-2 0 -4 2q-8 0 -20 4l-54 6h-24h-4h-6 h-15h-55l-55 -6q-8 0 -14.5 -1t-14.5 -1q6 0 2 -1t-6 -1t-4 -1t-4 -1l-21 -4h-4q-8 -4 -4 0h-2q-20 -10 -43 6l-6 6q-10 -12 -18.5 -23t-18.5 -24q-100 -125 -193.5 -258t-152.5 -282v-9q-2 -4 -2 -6t-2 -6zM829 977q4 2 2 0h-2zM864 209h2h-2zM1419 979q4 0 4 -2q2 0 -4 2z M1452 963l4 -2z" />
<glyph unicode="C" horiz-adv-x="1136" d="M-119 -236q-1 18 -1 36q0 43 6 87q10 62 30 121q41 131 112.5 248t157.5 223q74 92 155 177t169 163q68 59 141.5 114.5t151.5 102.5q47 29 95 52.5t101 37.5q41 12 89 12h4q50 0 88 -34q20 -16 31.5 -36.5t17.5 -43.5q6 -25 1 -50.5t-13 -47.5q-18 -55 -43 -111 q-4 -10 -10.5 -21.5t-12.5 -21.5q-4 -4 -8 -10t-10 -10q-10 -6 -23.5 -4t-24.5 10q-8 6 -10 16t8 14q4 2 -1 -1t-1 1l6 7l5 10l4 4q8 16 15 29.5t13 29.5q12 33 24.5 66t16.5 67v5v4v8q0 4 -1 6t-1 6q-2 2 -2 4q2 -4 1 -2t-1 4q-2 4 -4 10.5t-4 10.5q-2 2 -3 4t-3 4 q-2 4 1 -1t1 -1l-4 4q-2 4 -6 8l-2 2q-2 2 -3 2t-4 2q-6 4 -0.5 1t0.5 1q-2 0 -10 4q-4 2 2 -1t2 -1q-2 0 -2 1t-2 1t-3 1.5t-5 1.5q-6 2 1 -0.5t-1 0.5q-8 0 -10 2h-2q-14 0 -21 -2h-10h-6q-4 -2 1 -1t1 1q-6 -2 -11 -3.5t-12 -3.5q-10 -4 -22 -7t-23 -7q-2 0 -14 -4l-4 -2 q-6 -4 -2 -1t0 1q-16 -8 -23 -12q-90 -41 -171 -97.5t-156 -117.5q-2 -2 -5.5 -4.5t1.5 2.5l-7 -7q-6 -4 -14 -12q-8 -6 -15 -12t-16 -15q-37 -31 -71 -65q-43 -41 -84 -84t-82 -90q-90 -100 -170 -211t-135 -234q-57 -119 -76 -241q-2 -16 -3 -28.5t-1 -29.5v-28.5t2 -28.5 q0 -10 1 -20.5t3 -20.5q2 -2 2 -6q0 -2 1 -2t1 -2q0 -4 -1 1t-1 1q4 -8 4 -12q4 -8 12 -21q-4 6 -1 2t5 -8l7 -6q-8 6 -4 3t8 -7q2 0 4 -2q4 -4 -2 1t0 1q2 -2 10 -6q4 -2 -2 1t-2 1q2 0 3 -1t3 -1q2 -2 10 -2q-12 2 -7 1t9 -3h15h-2h6h13t13 2q6 0 9 2q-10 -2 -6 -2t6 2 q4 0 7 1t7 1q16 4 31.5 9t31.5 11l19 6l8 4q4 2 -1 -1t-1 -1q2 2 4 2q10 4 18.5 8.5t18.5 8.5q39 18 77 39.5t77 44.5q86 53 166.5 109.5t160.5 115.5q76 55 148.5 110.5t146.5 110.5q29 20 55.5 40t55.5 38q10 6 20 13.5t21 11.5q12 6 25.5 12t27.5 4h-14h2q10 4 23.5 0 t21.5 -12q8 -10 5 -17.5t-13 -11.5q-2 0 -2.5 -1t-2.5 -1q4 2 5.5 3t5.5 3q-2 -4 -6.5 -5t-8.5 -3q-6 -4 -14 -8q-8 -6 -16.5 -11.5t-16.5 -9.5q-23 -14 -44 -29.5t-44 -31.5q-72 -51 -141.5 -104.5t-140.5 -106.5q-82 -59 -163 -117.5t-167 -111.5q-72 -47 -146.5 -88 t-156.5 -68q-57 -19 -124 -19h-1q-66 0 -111 50q-23 27 -31 58.5t-10 63.5z" />
<glyph unicode="D" horiz-adv-x="1196" d="M-586 680q14 25 41 45q12 10 25.5 17.5t25.5 15.5q27 16 53.5 31.5t55.5 31.5q55 29 114.5 55.5t118.5 51.5q82 31 166 56.5t170 43.5q166 39 336 55q86 9 173 11q26 1 51 0q61 0 122 -4q82 -6 166 -25t156 -66q53 -33 85 -85t32 -113q0 -66 -22.5 -127.5t-57.5 -114.5 q-37 -61 -84 -114.5t-99 -104.5q-51 -49 -103 -96t-110 -92q-125 -98 -261 -179.5t-277 -156.5q-47 -25 -93 -48.5t-94 -46.5q-66 -29 -130 -56t-130 -54q-10 -4 -23.5 1t-21.5 13q-8 14 0 23v8q4 16 11.5 31.5t15.5 31.5l33 62q47 84 99 163t108 156q53 76 104 151t104 148 q39 55 79 110.5t81 111.5l94 129q14 18 27.5 36.5t30.5 36.5l26 41q6 10 10.5 19.5t14.5 15.5q12 6 28.5 2t22.5 -16v-2l8 -6q6 -4 2 -8.5t-8 -6.5h-2q-2 -4 -3 -7t-5 -7q-4 -8 -8 -15.5t-8 -15.5l-43 -55q-27 -35 -51.5 -71t-49.5 -70q-23 -29 -42 -55.5t-40 -55.5 q-45 -59 -88 -120.5t-86 -121.5q-53 -78 -107.5 -156.5t-107.5 -156.5q-27 -41 -52.5 -80t-49.5 -80q-10 -20 -21.5 -39.5t-21.5 -40.5l-13 -26q47 23 95.5 44t95.5 44q53 25 103.5 51.5t99.5 52.5q78 41 152.5 84t146.5 90q127 80 233 168l6 4l6 6l13 11l24 22 q14 10 26.5 22.5t27.5 24.5q27 25 52 49.5t50 51.5q49 49 93 104t73 117q14 29 25.5 57.5t17.5 59.5q4 20 4 30q2 6 1 2t1 2v7v12q0 27 -6 55q0 6 -2 8l-2 2q0 4 -4 13q-2 12 -11 22l-4 8q-4 4 -1 1t-1 1l-8 11l-18 20q4 -4 1 -1l-5 5q-2 0 -7 4q-2 4 -4 5.5t-6 5.5 q-4 2 -7 4t-7 4q4 -4 2 -2t-4 2l-6 6l-35 16q-2 0 -5 2t1 -2l-8 4l-17 7l-41 12q-12 4 -18 4q-2 2 -8 2h-5q-2 0 -3 1t1 1q-41 10 -81 12q-43 6 -83 8.5t-83 2.5q-338 -2 -668 -99q-166 -45 -328 -121q-41 -18 -78.5 -37.5t-76.5 -41.5l-74 -45q-10 -10 -22.5 -17.5 t-22.5 -17.5l-4 -11q-4 -4 -11.5 -6t-11.5 -2q-16 -4 -30 8q-4 4 -8.5 10.5t-2.5 10.5zM686 885h2h-2z" />
<glyph unicode="E" horiz-adv-x="1185" d="M-132 -320.5q5 27.5 15 52.5v4l6 12q8 23 18.5 42.5t20.5 37.5q145 266 322 506l2 4q-12 -2 -25.5 -3t-25.5 -3l-45 -4q-10 -2 -31 -2q-2 -4 -3 -4t-3 -3q-8 -2 -23 7q-4 4 -5 10t-3 10q-6 10 2 17.5t19 7.5q39 4 75.5 8t75.5 8q8 0 15.5 1t15.5 1l143 195 q27 35 52.5 68.5t50.5 68.5q14 18 27.5 36.5t25.5 37.5l28 39q4 4 7.5 10t7.5 10l2 2q0 2 2 4q2 10 13.5 12t23.5 -1t19 -11t5 -18q-4 -12 -12 -23.5t-16 -21.5q-72 -102 -146.5 -201.5t-146.5 -200.5q119 8 244 13q43 2 87 3h29q30 0 60 -1h84l86 -4q12 -2 28.5 -15.5 t-2.5 -28.5l-18 -14q-10 -6 -21.5 -4t-19.5 8q-4 2 -7 5t-24 3q-20 0 -39.5 1t-40.5 1q-92 0 -180 -2t-178 -8q-33 -2 -63.5 -3t-63.5 -5q-14 -18 -27.5 -37.5t-27.5 -38.5q-45 -63 -87 -126.5t-83 -129.5q-16 -29 -35 -57.5t-35 -56.5l-35 -66v-2q-6 -10 -12 -22.5 t-14 -24.5v-2q-8 -16 -15.5 -30.5t-13.5 -31.5q-4 -16 -9 -30.5t-7 -30.5v-2v-2v-6v-10h10q6 2 1 1t3 1q6 0 18 4q18 4 36 11t34 13q39 16 77 31.5t79 32.5q86 31 172 58.5t176 49.5q98 25 195.5 42.5t195.5 27.5t194 12q39 0 85.5 -6t66.5 -45q6 -10 -2 -17.5t-18 -9.5 q-29 0 -46 21h3h-3v2h-4h-2h-2q-4 2 -12 2q-4 0 -8 2h-4h-17q-10 0 -19 -1t-20 -1q-43 -2 -87 -4t-89 -6q-195 -20 -382 -69.5t-371 -119.5l-43 -16l-31 -12q-20 -10 -40 -18.5t-40 -14.5q-20 -8 -40.5 -13.5t-43.5 -7.5q-20 -2 -45 0q-31 6 -43 35q-8 29 -3 56.5zM356 954 q-6 12 6 21l9 6q10 8 24.5 5t24.5 -11h22q10 0 19.5 1t19.5 1q2 0 4 1t7 1h4h2q59 4 119.5 7t119.5 7q187 11 375 21q61 3 121 3q127 0 254 -13q25 -5 35 -23q4 -10 0 -16.5t-13 -8.5q-66 -18 -129 -24q-12 0 -25.5 5t-17.5 17q-2 4 -2 13h-59h-43q-169 1 -333 -13 q-186 -16 -374 -22q-6 -2 -13 -2h-11q-12 -2 -23.5 -2h-21.5q-27 -4 -51 0q-12 2 -29 7t-21 19zM510 932h10h-8h-2zM1210 -133q2 0 4 -2v2h-4zM1214 -133v-2v2zM1214 -135z" />
<glyph unicode="F" horiz-adv-x="831" d="M-315 -268q6 14 11 27.5t13 27.5q74 143 159 278.5t181 266.5l2 2q-14 0 -26.5 -1t-24.5 -3l-43 -6q-8 0 -15.5 -1t-15.5 1q-4 -6 -6 -7h-2q-12 -8 -20 7q-4 4 -5.5 9t-5.5 9q-6 12 2.5 18.5t18.5 8.5l153 16q8 2 15.5 2t13.5 2l146 191l102 137q12 18 25.5 36.5 t27.5 37.5l29 40l12 19q4 6 3 3t1 1v4q2 10 14.5 12t23.5 -2t19.5 -12t6.5 -18q-4 -12 -13.5 -23.5t-15.5 -21.5q-72 -100 -146.5 -198.5t-148.5 -199.5q59 4 120.5 6t123.5 5q45 2 88 2h88h43t41 -2q23 0 43 -0.5t43 -4.5q14 -2 30.5 -15t-1.5 -28l-10.5 -7l-10.5 -7 q-10 -6 -21.5 -3t-19.5 9l-6 6h-10v2q-2 -2 -4 -2t-4 1t-7 1h-79q-36 1 -72 1q-55 0 -107 -2q-88 -3 -180 -7l-127 -8q-14 -18 -27.5 -37.5t-27.5 -40.5q-45 -61 -86 -124.5t-82 -129.5q-23 -35 -43.5 -70.5t-40.5 -72.5q-23 -41 -44.5 -80t-43.5 -78q-4 -8 -15.5 -8 t-21.5 4t-17 11.5t-3 15.5zM-233 897q0 8 4 12l10 9q10 10 22.5 9t22.5 -7q4 0 17.5 -2.5t19.5 -2.5l45 3q90 4 177 9t175 9t180 9t195 9q174 6 344 6h18q161 0 326 -8q27 0 37 -20q6 -20 -14 -25q-86 -27 -177 -37q-10 -2 -23 4.5t-18 16.5q-6 12 5 20q-81 2 -161 2 q-62 0 -122 -1q-142 -3 -283 -11q-147 -8 -291.5 -16t-291.5 -15q-8 -4 -16.5 -4h-14.5q-16 -2 -30.5 -3t-31.5 -1q-18 -2 -34.5 -2t-32.5 2t-34.5 9.5t-22.5 25.5zM-104 334q2 0 2 2z" />
<glyph unicode="G" horiz-adv-x="1296" d="M-72 -221v14q0 67 16 135q19 76 50 144q61 141 156 270q23 29 45 56.5t47 56.5q23 25 42 49t42 49q35 39 69.5 76t75.5 73q63 59 128 118t134 112q37 29 74 54.5t78 49.5q39 23 76.5 47.5t80.5 42.5q29 10 56.5 18.5t56.5 12.5t58.5 -4t46.5 -31q14 -23 19 -51.5 t-5 -52.5q-8 -23 -19.5 -46.5t-23.5 -45.5q-16 -23 -31.5 -45.5t-32.5 -42.5q-14 -16 -29.5 -30.5t-35.5 -19.5q-12 -2 -26.5 5.5t-18.5 17.5q-8 17 12 25h2q2 2 4 2l4 4q0 2 2 2l2 2q8 4 14.5 11t12.5 15q16 23 30.5 43.5t28.5 42.5q2 6 7 15q4 4 4 6t2 2q2 6 4 10t4 10 q10 20 16 39q2 4 2 6.5t2 6.5v8q0 4 -1 9t-1 9t-1 7.5t-1 7.5l-2 4q0 2 -1 3t-1 3l-2 4l-4 4h-4h-4q-6 0 -6 -2h-8l-25 -6q-33 -10 -65.5 -24.5t-61.5 -30.5q-20 -10 -38.5 -22.5t-37.5 -25.5q-20 -10 -38.5 -22t-39.5 -27q-78 -51 -143 -108q-35 -29 -67.5 -58.5 t-67.5 -62.5q-27 -23 -51.5 -46.5t-49.5 -45.5q-37 -37 -70.5 -75t-68.5 -77q-23 -29 -48.5 -57.5t-47.5 -56.5q-23 -27 -43.5 -55.5t-40.5 -57.5q-41 -63 -77 -129t-58 -137q-27 -78 -35 -150q-2 -18 -3 -36.5t1 -37.5q2 -37 12 -67q4 -8 7 -16.5t10 -16.5h2q0 -6 4 -6 q4 -4 4 -6l4 -4q2 -2 10 -6q4 -4 6 -5l4 -2h2q0 -2 4.5 -3t6.5 -1q4 0 5 -1t5 -1h8h18.5t16.5 2h2l2 2q4 0 8 2q6 0 19 5q10 4 19 6t20 6q6 2 10 4t10 4l2 2h2q4 2 10 2q10 4 21.5 10t21.5 11q23 12 43.5 24t40.5 25q43 27 84 55.5t82 58.5q20 16 38 28.5t36 29.5 q10 8 18.5 14t14.5 14q2 2 3 2t3 3q4 4 6 4q6 4 14 12q23 18 42.5 36.5t41.5 35.5q63 53 122 108t118 113q35 33 67.5 64.5t67.5 60.5q6 6 13.5 12t15.5 12q-39 -6 -78 -10t-80 -8q-29 -4 -58.5 -6t-58.5 -4q-23 -2 -42 -4.5t-42 -2.5q-12 0 -25 5.5t-22 19.5 q-6 14 3.5 21.5t19.5 7.5q6 2 18 2q53 4 108.5 10t108.5 10q33 4 64 8.5t59 8.5q4 0 8.5 1t8.5 1q2 0 3 1t3 1q6 2 13 2t13 2t11.5 3t11.5 1q12 4 16 4q16 6 31 0q8 -2 16.5 -7t10.5 -16q10 -12 -6 -26q6 -6 2 -14h-2v-5h-3q2 -4 -6 -12q4 4 2 1t-4 -3l-6 -6l-12 -12 q-6 -6 -13.5 -12.5t-13.5 -14.5q-16 -16 -29.5 -31.5t-27.5 -29.5q-10 -14 -21.5 -26.5t-21.5 -27.5q-16 -20 -31.5 -38.5t-32.5 -36.5q-117 -141 -226 -283.5t-208 -294.5q-98 -150 -185 -306.5t-155 -322.5q-4 -12 -17 -14t-24 2q-8 4 -19 12t-5 19q53 129 116.5 251.5 t135.5 239.5q96 156 200.5 303.5t220.5 288.5q6 8 13.5 16.5t13.5 18.5q-59 -55 -119.5 -108.5t-126.5 -104.5q-78 -61 -156.5 -118.5t-164.5 -102.5q-37 -18 -78 -37t-84 -27q-29 -5 -57 -5q-14 0 -28 1q-42 4 -81 29q-41 29 -58.5 76t-19.5 94zM1073 836q2 2 4 2 q-2 0 -4 -2zM1257 401v2v-2z" />
<glyph unicode="H" horiz-adv-x="1288" d="M-96 -561q43 100 96 193.5t106 185.5q49 84 97.5 167t99.5 169l84 137q-6 -2 -20 -2l-203 -13q-51 -4 -101.5 -6t-101.5 -2q-10 0 -21.5 4t-15.5 15q-4 10 2 15t17 5q47 4 92 6t92 6q74 4 146.5 9.5t144.5 11.5l92 154l215 337l104 156l50 78l24 39l12 16q8 4 11 4 q4 6 12 8.5t17.5 -1t15.5 -9.5t6 -14q0 -10 -2 -12q-2 -12 -10 -23l-13 -20l-24 -41l-54 -80l-110 -170q-66 -104 -131.5 -207.5t-130.5 -208.5l375 25q23 2 42 2t39 2l80 129q29 43 55.5 84t55.5 82t55.5 83t52.5 85l103 159v4q4 8 8 11q2 0 2 1t2 1q10 10 22.5 7t22.5 -9 q10 -4 11.5 -15.5t-3.5 -21.5v-2q-2 -2 -2 -3t-2 -3v-2q-23 -33 -42 -65t-40 -64l-108 -168q-29 -41 -56.5 -82t-54.5 -84q-18 -31 -37.5 -61.5t-40.5 -61.5q31 0 61 1t58 3h47.5t46.5 -4q10 -2 24.5 -6t27 -11.5t17.5 -18.5t-3 -26q-8 -10 -22.5 -8t-24.5 6q-10 6 -17 17 q-8 2 -16 2h-16h-6h-11h-18h-61.5t-61.5 -2q-14 0 -27.5 -1t-27.5 -1q-25 -41 -50.5 -82t-50.5 -82q-51 -86 -100 -171t-96 -171l-64 -121q-6 -14 -13 -27.5t-11 -29.5q-4 -4 -5 -10.5t-6 -12.5q0 -4 -1 -5t-1 -3q0 -12 -10 -17.5t-23.5 -4.5t-24.5 8.5t-11 19.5q0 18 10 39 q4 12 9 24.5t11 22.5q35 74 74 145.5t80 143.5q47 84 97.5 165t101.5 165q-41 -4 -84 -5.5t-86 -5.5q-72 -4 -143.5 -9t-143.5 -9q-33 -53 -64.5 -106.5t-64.5 -106.5l-195 -334q-31 -53 -61.5 -107.5t-58.5 -109.5q18 -14 8 -29q-14 -25 -29.5 -47t-36.5 -45 q-8 -10 -21.5 -8t-23.5 6q-8 4 -16 11.5t-4 17.5z" />
<glyph unicode="I" horiz-adv-x="1159" d="M-330 -440.5q2 8.5 8 12.5q59 31 120 54.5t122 43.5q172 57 350 99q35 8 72 14t72 12q8 10 16 22.5t16 22.5l205 275q59 82 121 163.5t123 161.5q53 72 107.5 142.5t109.5 142.5l80 94q6 10 13 17.5t16 15.5l6 6h2l4 4q14 12 31 12q8 2 17 0t13 -10q4 -2 3 -7t-3 -7 q-35 -43 -69.5 -86t-69.5 -86q-55 -72 -110.5 -144.5t-108.5 -146.5l-244 -326q-45 -63 -91 -125.5t-93 -123.5q39 4 77 9t77 9q76 8 150 11q32 1 65 1q43 0 86 -2q35 -2 66.5 -5t64.5 -9q23 -4 48 -15.5t38 -33.5q6 -8 -2 -17q-12 -27 -39 -32q-10 -4 -21.5 -4t-23.5 -3 q-10 0 -19.5 4.5t-13.5 14.5q-10 14 10 18q8 4 16 4l9 5q6 4 2 0q8 2 8 8q-8 4 -12 4q0 2 -9 2l-28 6l-64 6q-29 2 -39 2h-22h-63.5t-61.5 -2q-86 -4 -171 -13t-171 -26q-8 -10 -16.5 -21.5t-18.5 -21.5q-10 -12 -18.5 -22.5t-20.5 -14.5h2q-23 -12 -45 7q-6 4 -9 14t5 16 q6 6 11 12.5t12 12.5q-35 -6 -68 -13.5t-68 -15.5q-86 -23 -172 -49q-78 -23 -154.5 -49.5t-152.5 -61.5l-2 -2q-2 0 -10 -4v-2q-4 -10 -14 -10l-7 -2q-2 0 -4 -1t-6 -1q-10 0 -22.5 5t-16.5 15q-2 6 0 14.5zM246 748h2q0 2 4 6h2q4 4 6 4q4 4 7 5t7 3l37 16q23 8 42.5 15.5 t41.5 13.5q84 25 168 43t170 35q104 18 209 33.5t211 25.5q99 10 195 16q71 4 142 4q26 0 52 -1q74 -2 148.5 -8.5t144.5 -34.5q23 -10 44.5 -24.5t33.5 -37.5q10 -16 10 -37q0 -6 -1 -11t-3 -11q0 -2 -4 -10l-2 -5q0 -2 -2 -4q-4 -10 -16.5 -12t-22.5 2q-8 2 -19.5 11.5 t-5.5 19.5l6 22v2v2v3v10q0 2 -2 4q0 2 2 2q-4 4 -4 6q4 -2 -2 4l-6 8q-4 4 0 -1t0 -1l-2 2l-8 6l-2 3l-10 4l-11 6q-6 2 -1 0t3 -2t-3 1t-3 1q-8 4 -24 8l-15 4q-4 0 -10 2t4 0l-30 6l-72 8q-10 0 -19.5 1.5t-19.5 1.5q-14 0 -23 2h-8h-4h-2h-86q-49 0 -98 -2.5t-97 -6.5 q-104 -8 -207.5 -21t-207.5 -26q-35 -4 -55.5 -8t-41.5 -8q-25 -4 -48 -8t-48 -11q-86 -14 -174 -36q-35 -10 -69.5 -19.5t-69.5 -21.5l-27 -9l-12 -6q-4 0 -6 -2h-2l-13 -6v-2q4 -10 -5 -12t-17 0h-6h-6h4h-4h-4q-8 -2 -17.5 2t-15.5 10q-8 12 -2 21zM330 735h2h-2z M1085 -219h2h-2zM1229 860q4 2 5 3t-1 -1t-4 -2zM1826 877.5q3 -0.5 5 -3.5l2 -2q-10 6 -7 5.5zM1845 860l4 -4zM1909 782h2h-2z" />
<glyph unicode="J" horiz-adv-x="1032" d="M-47 -455q-2 16 -2 33q0 40 11 82q15 57 38 109q57 135 145 249q41 53 86 99.5t101 83.5q10 8 23.5 5t21.5 -11q8 -6 11 -15.5t-7 -15.5q-12 -8 -21.5 -14.5t-19.5 -16.5l-41 -41q-45 -45 -84 -96q-41 -53 -75 -109.5t-60 -115.5q-14 -29 -25.5 -59.5t-19.5 -61.5 l-12 -56v-8v-2q0 -4 -1.5 -6t-1.5 -6v-23q2 -4 2.5 -10t2.5 -12q0 -6 2 -8q-2 6 -1 2t1 -6q2 -2 2 -4.5t2 -4.5q4 -4 0 0.5t0 -0.5q4 -4 4 -6q4 -2 -1 2t-1 2q0 -2 2 -2q4 -4 -1 0t1 0q4 -2 -3 1t-3 1h4q4 -2 -3 -1t1 1h2h-4h8q6 2 1 0t-1 0t8 2t8 2q2 2 4 2.5t4 2.5 q4 2 0 -1.5t0 -0.5q0 2 5 2q4 4 8 5t8 5q10 4 18.5 10t18.5 12t18 12.5t19 14.5q4 2 5 4t5 4l4 4q-4 -4 -2 -2t4 2q4 4 8 8.5t8 8.5q29 25 56.5 51t54.5 55q51 55 100.5 111.5t98.5 113.5q63 74 123.5 149t119.5 152q59 78 115.5 156t112.5 156q49 72 95 145.5t93 145.5 q39 55 66 108q14 31 24 62q4 16 6 26t-2 25v8q0 2 -1 4t1 -2q-4 8 -6 10q0 2 -1 3t-1 3q-4 4 -4 7q4 -4 2 -3.5t-2 3.5q-6 4 -2 0.5t0 -0.5q-2 0 -3 1t-3 1q-4 4 1 1t1 -1q-2 0 -3 1t-3 1t-3 1t-3 1q8 -2 5 -1t-5 1q-8 0 -15 2h-8h-14q-8 -2 -15.5 -2h-13.5q-8 -2 -14 -3 t-15 -1q-4 0 -6 -1t-6 -1h-6q-4 -2 1 -1t-3 1q-168 -33 -324.5 -109t-296.5 -176q-53 -39 -100 -80t-94 -86q-23 -20 -41.5 -40.5t-34.5 -43.5q-8 -10 -12 -18.5t-8 -20.5q-2 -4 -2 -10v-6v-4q2 -4 -0.5 0t0.5 0q4 -8 2 -15v11q2 -6 -1.5 -3t-7.5 3h7q12 4 24 -9 q8 -12 -2 -18q-18 -8 -37.5 -3t-32.5 21q6 -6 11 -8q-23 14 -22 38t11 44q23 47 61 83t73 71q59 57 124.5 106t135.5 92q152 98 315 162q72 27 144.5 46.5t148.5 25.5q17 2 34.5 2t34.5 -2q35 -4 64 -25q27 -20 35 -50t4 -60q-6 -33 -19.5 -64t-29.5 -59 q-16 -29 -32.5 -53.5t-33.5 -51.5q-23 -37 -46 -74.5t-48 -74.5q-27 -41 -53.5 -79t-55.5 -79q-55 -80 -112.5 -156.5t-116.5 -154.5t-120.5 -151.5t-125.5 -147.5q-43 -51 -86 -100.5t-88 -96.5q-29 -31 -58.5 -59.5t-62.5 -55.5q-18 -16 -36.5 -30.5t-40.5 -26.5 q-16 -10 -35 -20.5t-39 -14.5q-23 -4 -46.5 -2t-43.5 17q-16 12 -24.5 31.5t-12.5 39.5z" />
<glyph unicode="K" horiz-adv-x="911" d="M-181 -564q1 5 1 11q4 27 14 52.5t21 49.5q35 86 78.5 167t91.5 161q49 88 100 175t104 173l133 211q16 27 35 52.5t37 52.5l111 166q27 41 53.5 81.5t54.5 81.5l58 82l30 43q2 4 6.5 8.5t4.5 6.5v2v4v4v2q0 6 8 10q2 0 3 1t3 1q4 2 9 1t9 -1q2 0 4.5 -1t6.5 -1 q0 -2 4 -2l2 -2q10 -4 12 -10q4 -4 4 -10v-13q0 -8 -8 -20l-29 -41l-51 -74q-27 -39 -51.5 -77t-50.5 -74q-25 -41 -50.5 -79t-52.5 -77l-96 -143l-59 -97l4 4q31 23 62.5 41.5t64.5 38.5q31 18 61.5 38t61.5 40l333 215q166 106 330 214t326 220q2 2 3 2t3 2q6 6 18.5 5.5 t23.5 -7t16 -14.5t-1 -18q-16 -27 -35 -45q-10 -10 -21 -19.5t-22 -17.5q-6 -4 -17 -3t-19 5l-52 -35q-166 -113 -331.5 -219.5t-331.5 -214.5q-74 -47 -145.5 -94.5t-145.5 -92.5q-35 -20 -66.5 -38.5t-62.5 -40.5q-23 -16 -41 -31t-37 -31q2 0 2 -1t2 -1l64 -41 q82 -59 157.5 -122.5t153.5 -129.5q37 -31 75 -62.5t77 -60.5l57 -43l2 -2h2l2 -2h2v-2l6 -2q4 -4 11 -4q0 -2 4 -2h-7q12 -4 27.5 -17.5t1.5 -27.5q-4 -4 -4 -6q-4 -6 -12 -8t-13 -2q-14 -2 -34 6q-16 12 -21 20q-8 4 -15 9t-16 12q-18 12 -36.5 25.5t-36.5 27.5 q-82 66 -161 132.5t-161 131.5q-35 29 -68.5 55.5t-70.5 51.5l-14 10q-4 4 3 -1t1 -1l-6 4q-4 2 -8.5 4t-8.5 4h-2q-2 2 -4 2l4 -2q0 2 -2 2l-4 2q-8 0 -14 2q-92 -152 -179 -301l-51 -90l-6 -12q-2 -2 -2 -4q-2 -2 -2 -4l-12 -21l-23 -43q-20 -39 -39.5 -77t-38.5 -77 q-10 -29 -21 -56.5t-20 -55.5q0 -4 -1 -5t-1 -5v-5q0 -4 -1 -8t-1 4v-2v-4q12 -8 13 -18q2 -12 -8.5 -15.5t-18.5 -3.5h-2h2q-14 2 -28.5 10.5t-18.5 20.5q-4 8 -4 7t2 -3l-2 4v4v7q-2 6 -1 11zM-115 -592q0 4 2 0h-2zM-115 -594l2 -2zM938 -246h2l4 -2q-2 0 -3 1t-3 1z M944 -250h2h-2z" />
<glyph unicode="L" horiz-adv-x="651" d="M-539 -518q4 6 10.5 8t12.5 6t12 5t10 5l48 19l92 31q47 16 95 30.5t95 26.5q186 47 371 80q94 16 186 32.5t187 30.5q188 28 378 42q74 5 148 6q115 0 231 -13q10 0 23.5 -7t17.5 -17q8 -18 -4 -29q-12 -12 -33 -12q-27 0 -43 16l-47 2q-10 2 -22 2h-25q-10 2 -2 1t-2 1 h-12h-23h-92t-92 -4q-190 -10 -373.5 -39t-369.5 -63q-94 -16 -187.5 -36t-185.5 -42q-47 -12 -92 -24.5t-92 -28.5q-23 -6 -45.5 -13.5t-45.5 -15.5l-47 -19q-4 0 -16 -4q-6 -4 -13.5 -5t-13.5 -3h-4q-23 -4 -33 12q-12 12 -2 19zM-84 -281q0 4 4 21q4 12 9 25.5t10 25.5 q16 39 35.5 75t39.5 73q49 90 102.5 176t108.5 172q41 66 83 128t83 126l137 194q29 41 57.5 82t57.5 82l59 80l31 43q8 12 15 18v2v11q2 10 17 11t21 -1q8 -4 18.5 -9t8.5 -16q0 -4 1 -9t-1 -9l-4 -8t-6 -8l-27 -35l-51 -72l-227 -326q-37 -49 -66 -96q-49 -72 -96 -144.5 t-94 -146.5l-109 -178l-49 -86l-10 -20q-2 -4 -4 -6l-4 -9q-6 -10 -11.5 -19t-9.5 -20q-16 -29 -30.5 -59.5t-24.5 -60.5l-6 -23q0 -6 -2 -8v-2q10 -6 10 -17q0 -10 -15 -16h-8q-2 -2 -6 -2v2q-10 0 -19.5 5t-17.5 11q-6 6 -6 11l-2 6l-2 4v2v6v4v8v2zM-84 -305l2 -2 q0 -2 1 -2t-3 4z" />
<glyph unicode="M" horiz-adv-x="1632" d="M31 147q4 72 23.5 142.5t47.5 136.5q37 88 85.5 171t103.5 161q47 66 99 126t112 113q43 37 88 71t96 60q31 16 65.5 28.5t69.5 14.5q27 4 52.5 -4t44.5 -28q14 -16 19 -37t5 -43q0 -53 -15.5 -105.5t-35.5 -101.5q-8 -23 -16.5 -42t-16.5 -40l-67 -147 q-59 -119 -124 -233t-132 -228q53 72 109 141.5t116 138.5q33 37 63.5 73t65.5 71q29 29 54.5 59.5t51.5 61.5q55 59 115.5 114.5t134.5 89.5q14 6 30.5 3t24.5 -15q10 -10 9.5 -22.5t-4.5 -24.5q-4 -16 -10.5 -29.5t-12.5 -29.5q-20 -47 -44 -91.5t-46 -89.5 q-27 -47 -51.5 -92t-53.5 -92q-14 -25 -27 -50.5t-30 -49.5l-94 -154l-31 -49q-4 -8 -7 -14.5t-7 -12.5l-6 -14q-4 -4 -1 -1t-1 -1l-4 -6q-29 -51 -50 -101q-10 -25 -20 -53q14 18 27.5 36.5t29.5 35.5q29 33 57.5 66.5t57.5 68.5q53 66 107.5 130.5t111.5 127.5 q59 68 125 131.5t131 126.5q35 35 72 66.5t71 64.5l39 33q10 8 19.5 16.5t19.5 16.5l4 2q0 2 1 2t1 2q4 2 0 -2l15 12q23 20 44 37.5t46 34.5q29 16 58.5 23t60.5 -9q8 -4 15 -13t-1 -20l-33 -47q-59 -80 -115.5 -159.5t-111.5 -161.5q-74 -109 -145.5 -217.5t-137.5 -221.5 l-28 -51q-12 -23 -15.5 -26.5t-3.5 -6.5q-4 -4 -1 -0.5t-1 -1.5l-6 -10q-29 -51 -55 -114q-6 -16 -12.5 -33t-10.5 -33l-4 -27v-6v-8q0 -4 1 -7t1 -7q0 -2 2 -4q8 -4 15.5 -11.5t3.5 -17.5q-4 -12 -17.5 -14t-23.5 2q-29 8 -40.5 28.5t-11.5 47t7.5 53t15.5 47.5 q23 57 52.5 111.5t62.5 107.5q33 55 66.5 110.5t68.5 108.5q68 104 137.5 206.5t140.5 205.5l36 50l36 50q-2 -2 -4 -2l-2 -2q-2 -2 -4 -3t-6 -5q-10 -8 -17.5 -15.5t-17.5 -13.5q-2 -4 -4 -5t-6 -5l-2 -2q-2 0 0 2l-35 -31l-74 -63q-35 -35 -70.5 -67t-70.5 -67 q-66 -61 -127.5 -124.5t-120.5 -128.5q-57 -66 -111.5 -131.5t-107.5 -131.5l-103 -118q-29 -35 -56.5 -67t-61.5 -60q-14 -10 -34 -2t-26 20q-8 16 -9 32.5t3 33.5q8 39 25 79q41 98 97 188.5t112 180.5l55 96l45 82q8 10 14 22.5t12 22.5q2 8 9 15q0 2 2 4q0 2 2 4l12 22 q25 47 48.5 92.5t45.5 92.5l13 24q-57 -41 -105.5 -91t-95.5 -103q-59 -70 -120.5 -136.5t-121.5 -138.5q-63 -76 -122.5 -151.5t-116.5 -153.5q-59 -78 -114.5 -156.5t-109.5 -160.5q-25 -37 -49 -76t-47 -78q-6 -16 -11 -30.5t-11 -30.5q-12 -33 -25.5 -65t-36.5 -58 q-6 -8 -17.5 -9t-21.5 3q-6 2 -17 9t-9 17q2 29 12 54.5t24 52.5q10 20 20.5 38.5t20.5 37.5q6 14 11.5 26t11.5 25q23 41 42 82t42 82q45 84 92 164.5t96 160.5q47 80 93.5 160t91.5 162q23 41 44 82l42 82q20 41 37.5 80.5t35.5 80.5q23 43 39.5 87t30.5 92l12 53 q2 8 4 19.5t2 15.5v10v20.5t-4 20.5q0 2 -1 5t1 -3v4l-4 8q0 2 -2 4t-4 2l-2 2h-2h-2h-4h-2q-6 0 -10 -2h-5h-2l-14 -4q-10 -2 -31 -10q-2 0 -4 -1t-4 -1l-2 -2q4 2 2 1t-4 -1l-16 -8l-41 -21q-23 -12 -44.5 -26.5t-43.5 -30.5q-25 -20 -48.5 -40t-46.5 -42 q-29 -29 -55 -56.5t-51 -58.5q-59 -72 -112.5 -149.5t-94.5 -161.5q-37 -72 -66.5 -148.5t-46.5 -154.5q-2 -12 -5 -31.5t-3.5 -40t0.5 -40t6 -32.5l3.5 -7l3.5 -7q4 -4 -0.5 -1t0.5 -1l6 -4q8 -8 4 -17.5t-15 -13.5q-12 -4 -23 1t-22 14q-23 23 -27.5 57.5t-2.5 62.5z M858 1124h2h-2zM1098 588v2v-2z" />
<glyph unicode="N" horiz-adv-x="1423" d="M-35 -371q-2 16 6.5 32.5t16.5 31.5q14 25 28.5 48t30.5 48q33 47 65.5 93t63.5 93q23 35 44.5 69t43.5 69q25 39 50.5 75.5t52.5 75.5l217 311q55 82 113.5 161t111.5 163l53 80q12 20 23.5 40.5t23.5 39.5q10 14 18.5 27.5t14.5 27.5q4 6 6 13.5t6 15.5h-2l-20 -6 l-14 -7h-5l-4 -4q-16 -4 -26 -12q-14 -6 -27.5 -13t-28.5 -16q-27 -16 -51 -32.5t-49 -32.5q-49 -35 -96 -73t-92 -77q-63 -53 -125 -109t-121 -116q-29 -29 -56.5 -58.5t-52.5 -62.5q-23 -31 -41 -59l-14 -27q10 -12 -2 -26q-8 -12 -16 -15q-4 0 -6.5 -1t-6.5 -1 q-16 -4 -31.5 2t-19.5 23q-2 8 1 14t7 12l11 21l24 41q10 20 23.5 37.5t27.5 36.5q29 33 59.5 63.5l61.5 61.5l129 120q53 47 107.5 93.5t111.5 91.5q82 68 185 125q57 33 112 51q14 4 34 7t38 0t31.5 -13.5t15.5 -30.5v-6q0 -31 -18 -59q-20 -30 -37 -60q-23 -41 -48.5 -82 t-52.5 -82q-55 -82 -112.5 -161.5t-114.5 -159.5l-217 -314q-27 -37 -51.5 -73.5t-48.5 -75.5q-23 -35 -44.5 -68t-43.5 -67q-29 -43 -58.5 -86t-60.5 -86l106 125q127 150 255 296t259 293q59 66 119 130.5t121 125.5q47 47 97 91.5t104 85.5q29 23 58.5 46t61.5 42 q59 33 117 47q29 8 60.5 10t60.5 -6q27 -8 48.5 -24.5t25.5 -45.5q4 -14 2 -27.5t-6 -27.5q-4 -16 -10.5 -33.5t-12.5 -34.5q-29 -72 -72 -145q-47 -84 -96 -165t-96 -163l-61 -108l-13 -19q0 -2 -1 -2t-1 -2v-4l-4 -4l-16 -33q-27 -51 -50.5 -102t-46.5 -105 q-20 -47 -36.5 -96t-26.5 -100q-4 -12 -6 -25.5t-4 -26.5q-2 -6 -2 -14v-2v-4q0 -4 -1 -7t1 -7q10 -2 22 -9.5t12 -17.5q0 -8 -2 -10q0 -10 -3 -17.5t-13 -11.5q-18 -6 -41 6q-12 4 -23.5 12.5t-15.5 20.5q-10 20 -8 43t6 45q8 53 23.5 106.5t36.5 104.5q10 29 23 55.5 t26 53.5l45 100q18 39 38.5 77t43.5 74l184 312q23 37 43 73.5t37 75.5q16 33 30.5 68t22.5 70q2 6 2 16v6v10q0 4 -2 4q0 2 -4 11l-2 2q-2 0 -4 2h-2l4 -2q-2 0 -4 2h-4h-2q-2 2 -6 2h-3h-2q-16 0 -24 -2q-4 0 -9 -1t1 1q-4 0 -6.5 -1t-6.5 -1q-29 -6 -57 -19q-2 0 -10 -4 q4 4 2 2t-4 -2l-13 -6q-16 -6 -26 -14q-33 -18 -62.5 -41t-58.5 -45q-51 -41 -99 -83t-96 -89q-63 -61 -121.5 -125t-117.5 -129q-262 -293 -516 -590q-33 -39 -63.5 -78t-65.5 -76q-16 -20 -35 -39.5t-41 -38.5q-16 -14 -34.5 -25t-43.5 -9q-10 0 -20.5 5t-14.5 15 q-4 8 -4 10zM965 1145h2q2 0 2 1t-4 -1zM1530 1012l2 -2zM1532 1010h2h-2zM1532 1010q2 0 2 -1t2 -1q-2 0 -2 2h-2z" />
<glyph unicode="O" horiz-adv-x="1341" d="M-205 -188q10 68 31 133q16 57 43 118q14 33 30.5 64t32.5 63q84 152 189 299q53 74 108.5 145t114.5 136q61 70 127.5 133.5t142.5 118.5q8 6 21.5 4t24 -9t14.5 -16.5t-8 -17.5q-14 -10 -26.5 -21.5t-27.5 -21.5q-72 -59 -134 -123.5t-122 -136.5 q-57 -68 -111.5 -138.5t-103.5 -144.5q-49 -72 -94 -148.5t-86 -154.5q-29 -53 -49.5 -111.5t-34.5 -117.5q-16 -72 -16 -131v-31.5t4 -32.5q2 -4 2 -8t2 -8q0 -6 2 -8v-4v2q2 -8 4 -14.5t6 -14.5q4 -6 7 -13.5t8 -13.5q-4 4 -2 2l4 -4q0 -2 4 -6q2 -2 3 -4t5 -6l6 -6l2 -2 q6 -6 10 -8q4 -4 6.5 -5.5t6.5 -5.5q2 0 3 -1t3 -1q4 -6 14 -8q2 -2 8 -5t-2 1q6 -2 13.5 -4t13.5 -4q4 -2 10 -2q2 -2 5 -2t-5 2q4 -2 7 -2t7 -2q8 -2 15.5 -2t15.5 -2h19h2h8h31q10 2 17 2t17 2q10 0 17 2h8h4q2 0 1 1t-3 1q61 8 123 30q8 2 14 4.5t15 6.5q4 2 6 2t6 2 q2 0 3 1t3 1q10 4 21.5 10t21.5 10q33 18 63.5 37t61.5 39q135 88 250.5 196.5t218.5 233.5q104 129 197 281q23 39 43 75.5t40 77.5q27 51 50 111q10 25 17 48.5t13 49.5q4 12 6.5 25.5t4.5 25.5q2 8 3 14.5t1 12.5q0 4 2 8q0 4 -1 0t1 2v13q1 13 1 26q0 38 -9 72q0 4 -3 8 q0 4 1.5 0t-1.5 0q0 4 -1 5t-1 5q-4 4 -5 10.5t-5 10.5q-4 8 -6 10q0 2 -1 3t-1 3q4 -6 2 -4t-2 4q-4 6 -14 17q-4 4 -4 6q-4 2 -9 6q-4 2 -5 3t-5 3l-4 4q6 -4 4 -3t-4 3l-12 6q-2 2 -8.5 4t4.5 -2q-10 4 -27 8q-2 2 -10 3q-6 2 1 1t-1 -1q-4 2 -7 2t-8 2q-8 0 -16 1t-16 1 h-6h-9h-16q-8 0 -16.5 -1t-16.5 -1q-6 -2 -20 -2q4 0 4 -1t-2 -1h-4h-9q-12 -4 -32 -9q-8 -4 -16.5 -5t-16.5 -5q-12 -4 -16 -6q-2 -2 -4.5 -2t-4.5 -2h-4q-33 -16 -63.5 -32.5t-59.5 -37.5q-117 -80 -209 -190.5t-165 -231.5q-8 -10 -23.5 -8t-23.5 6q-10 4 -16.5 14.5 t-0.5 20.5q25 41 50.5 78t54.5 74q47 59 96 113.5t104 101.5q57 47 119 87t133 62q35 12 71 18.5t70 8.5q12 1 23 1q24 0 48 -3q36 -4 71 -17q29 -10 54.5 -26.5t43.5 -38.5q33 -37 45 -90q9 -38 9 -78q0 -12 -1 -26q-4 -54 -14 -105q-14 -53 -33.5 -104.5t-44.5 -100.5 q-78 -156 -175 -298t-216 -269q-106 -117 -228 -215.5t-259 -175.5q-104 -55 -222 -80q-66 -12 -136 -14q-6 0 -13 -1q-63 0 -123 23q-33 12 -61.5 30.5t-51.5 47.5q-37 47 -51 116q-5 33 -5 66.5t5 67.5z" />
<glyph unicode="P" horiz-adv-x="1384" d="M-10 -528q-4 31 11 60.5t28 55.5l71 160q20 41 40 84t38 86q35 80 61.5 164t30.5 172q2 25 2 50q0 50 -8 99q-6 35 -14 66t-25 63q-6 14 -16 29l-6 14q2 -4 0 -2t-2 5l-4 4q-12 16 -21 24l-6 8q-6 6 -8 7l-12 10l-3 2h-2l-12 6q0 -2 -6 4l-12 4h-6q-4 2 -13 2h-4 q-10 0 -21.5 3t-21.5 14q-12 16 2 28q119 92 247 170t263 142q160 76 328 129t344 71q77 10 157 12q10 0 21 1q69 0 137 -15q33 -6 69 -18t66.5 -31.5t53 -46.5t32.5 -64q6 -25 6 -49q-1 -47 -21 -92q-30 -69 -73 -123q-41 -53 -89 -98t-101 -84t-109.5 -70.5t-113.5 -60.5 q-70 -35 -138.5 -66.5t-140.5 -60.5t-142.5 -55.5t-141.5 -51.5l-66 -20t-68 -20q-14 -4 -29.5 -9.5t-31.5 -9.5l-31 -6l-14 -4q-8 -10 -15.5 -21.5t-15.5 -23.5q-109 -160 -209 -326q-55 -84 -96 -164l-43 -86q-10 -25 -16 -45q-4 -10 -6.5 -19t-4.5 -20q0 -12 -9 -17 t-21.5 -3t-23.5 7t-13 15q0 2 -1 3t-1 4v4zM109 647q4 0 6 -1t-6 1zM124 644q1 -1 3 -1l2 -2q-6 4 -5 3zM143 635q-2 2 2 -2h2q-2 0 -4 2zM145 686q41 -16 70 -43q51 -47 79 -111.5t38 -130.5q10 -59 10 -118q0 -21 -1 -43q-5 -80 -28 -158q-4 -10 -5 -17.5t-5 -17.5 q31 47 63.5 95t65.5 96q96 137 193.5 271t195.5 271q6 8 19.5 8t25 -5t17.5 -14t0 -19l-23 -33q-86 -123 -175 -243t-175 -243l86 25q51 16 102.5 34.5t102.5 37.5q137 51 271 109.5t263 133.5q27 16 52.5 33t50.5 35q12 10 26.5 19.5t36.5 29.5l23 21q27 25 51 52t47 56 q50 60 70 123q12 31 12 64v16t-2 16q0 8 -2 14.5t-4 12.5l-6 14l-4 6q-4 4 0 1t0 1t-5.5 6.5t-5.5 4.5q0 2 -4 6q-8 8 -24 20q-6 4 -1 0t-1 0q-2 0 -7 4l-14 7q-4 4 -8 4q-2 2 -5 3t3 -3l-15 6q-10 4 -17 6t-15 4q-4 0 -6 1t-5 1q-2 0 -3 1t-3 1l-14 2q-20 4 -35 4 q-10 2 -18 3t-19 1h-16h-2q-4 2 -10 2q-20 0 -40 -1t-40 -1q-170 -10 -336 -53t-324 -110q-147 -61 -284.5 -141.5t-266.5 -176.5zM1550 1157q-2 0 4 -2z" />
<glyph unicode="Q" horiz-adv-x="1343" d="M-221 -362q8 31 33 65q10 14 21 25.5t26 21.5q49 35 107 42q38 4 74 4q21 0 42 -1h2h2q29 -4 45 -4t33 -4q20 -2 39.5 -4t38.5 -6q43 -8 86 -16.5t84 -18.5q4 0 5 -1t3 -1q55 31 100 57q68 41 132.5 84t125.5 94q59 47 113.5 104.5t107.5 115.5q59 66 115.5 135 t108.5 141q49 72 91 147.5t72 157.5q10 29 18.5 57.5t14.5 57.5q4 16 4 29l4 22v27.5t-2 27.5l-4 27q-2 2 -2 6q-2 6 0 2q-4 8 -4 12l-12 23v4l-2 2q-4 2 -8 10l-9 9l-2 2l-4 4l-10 6q-2 2 -4 3t4 -3l-6 4l-14 6q-2 2 -7 2l-14 6h-4q-2 0 -4 2l-35 4h-10h-4h-8q-16 0 -34 -1 t-34 -3q-6 -2 -18 -2q2 0 3 -1t-1 -1h-4h-9q-14 -4 -35 -8q-18 -4 -35.5 -9t-35.5 -11q-37 -10 -70 -23.5t-67 -30.5q-35 -16 -68 -33.5t-68 -35.5q-59 -35 -116.5 -75t-110.5 -87q-133 -113 -244 -254q-51 -66 -94 -137.5t-71 -149.5q-14 -35 -25.5 -72.5t-18.5 -74.5 q-2 -16 -3 -32.5t-1 -33.5l4 -33l5 -16v-6l2 -4q2 -4 4 -11.5t6 -17.5l6 -10l4 -6q4 -4 0 -1t0 -1l19 -21l2 -2l4 -4q2 -2 7 -5t-3 1l14 -6q2 -2 4 -2h2q8 -4 11 -4q0 -2 2 -2h4h4h10h2h16q10 0 17 2q-4 -2 -4 -1t2 1h4q4 0 6 2q14 4 27.5 7t27.5 7l31 10l14 7h2q2 0 2 1 t2 1t5 2q33 14 63.5 30.5t61.5 32.5q66 37 126 79t119 89q27 23 51.5 42t49.5 42q23 20 45 41.5t45 44.5q63 66 121 133q14 18 27.5 35.5t25.5 36.5q10 16 18 30.5t15 30.5q4 10 16 12.5t24.5 -1t21.5 -12.5t5 -19q-6 -16 -15 -31.5t-20 -32.5l-47 -69q-29 -35 -57.5 -66 t-58.5 -63q-45 -47 -91.5 -89t-97.5 -83q-57 -47 -117.5 -90.5t-124.5 -81.5q-59 -35 -120.5 -66t-126.5 -49q-35 -10 -71 -13q-10 -1 -20 -1q-26 0 -51 6q-31 8 -59.5 25.5t-46.5 43.5q-41 59 -43 129v16q0 61 14 120q23 80 57.5 153.5t77.5 142.5q94 141 224 269 q113 113 241 198q127 86 258 140q72 29 143.5 51t147.5 29q22 1 45 1h23q34 -1 68 -9.5t63.5 -26t52.5 -43.5q39 -45 45 -102q2 -22 2 -43q0 -36 -6 -70q-12 -70 -39 -136.5t-59 -130.5q-84 -158 -195.5 -295t-234.5 -264q-53 -53 -109.5 -102t-120.5 -94 q-55 -39 -112.5 -75t-116.5 -69q61 -16 121.5 -33.5t122.5 -33.5q84 -25 166.5 -48.5t168.5 -43.5l23 -4q4 -2 10 -3q8 -2 2 -1t2 -1q10 -2 19.5 -3t19.5 -5l82 -12q53 -10 107 -12q12 4 22 4q27 -2 55 -19q6 -4 10.5 -13t-1.5 -17q-10 -10 -31 -7q-25 0 -50.5 2.5 t-52.5 4.5q-174 23 -339.5 69.5t-331.5 93.5q-41 12 -84 23.5t-84 22.5q-8 4 -17 4q-72 -35 -143.5 -66t-146.5 -53q-76 -27 -144 -41q-18 -4 -37.5 -7t-38.5 -5q-11 -1 -22 -1q-34 0 -66 13q-33 16 -53 46q-15 23 -15 50q0 8 1 17zM-152.5 -385q-1.5 -4 0.5 -12v-9 q2 0 3.5 -3t-1.5 1q0 -4 5 -12l2 -2l6 -6q4 -4 6 -4l2 -2q2 0 2 -1t2 -1h2q2 -2 6 -2l4 -2h7h2h4h8q4 0 5 1t5 1h2h4q5 2 13 2q76 14 147.5 36.5t142.5 51.5q33 14 65 27.5t62 27.5q-12 4 -18 4q-8 2 -2 0t-2 0q-4 2 -10 2q-12 4 -19 4q-80 14 -160 25l-32 4q-2 2 -6.5 2 t6.5 0h-19h-14q-6 0 -10 2h-15q-8 -2 -16 -2h-17q-6 -2 -16 -2q6 0 3 -1t-5 -1h-6q-10 -2 -17.5 -4t-17.5 -6q-2 0 -4 -1t-4 -1q-2 -2 -4 -2t-2 -1t4 1l-17 -6q-16 -10 -27 -18.5t-22 -20.5q-25 -29 -32 -56q-4 -10 -5.5 -14zM176 -90q4 -2 6 -2h-2q-2 0 -2 1t-2 1zM193 -96 h4h-4zM358 -61h4h-4zM1319 1122h4l2 -2zM1401 1073l2 -2z" />
<glyph unicode="R" horiz-adv-x="1544" d="M41.5 585.5q-12.5 14.5 3.5 26.5q115 78 231.5 148.5t239.5 134.5q168 90 345 160.5t364 111.5q88 19 177 29q75 9 150 8h29q31 0 61.5 -1t59.5 -7t55 -14.5t53 -20.5q55 -27 96.5 -74t41.5 -112q-2 -66 -37 -121t-78 -100q-47 -49 -100.5 -94.5t-106.5 -86.5 q-61 -47 -124.5 -89t-131.5 -81q-139 -78 -287.5 -134t-302.5 -97q18 -8 35 -22q27 -16 51.5 -37t48.5 -43q20 -16 40 -36t42 -38q31 -29 65 -53.5t66 -51.5q39 -31 77 -61.5t77 -62.5l78 -64q10 -8 19.5 -16.5t19.5 -16.5q-2 2 -4 2l8 -6l4 -4q37 -29 68 -61 q8 -10 14 -20.5t10 -22.5q4 -16 -8 -23.5t-25 -9.5q-14 -2 -29.5 5t-21.5 19q-4 14 2 21l-4 2q-2 6 -10 14q-4 4 -7 7.5t-7 7.5v2h-3v2l-8 4l-22 20q-6 6 -15 11l-7 7l-7 7l-61 51q-31 27 -63 51.5t-64 50.5l-152 123q-53 39 -98 86q-27 23 -52.5 45.5t-54.5 42.5l-26 21 q-2 0 -4 2t-7 2l-12 6l-14 6q0 2 -2 2h2h-2h-2l-13 4h-2q-10 2 -24 9.5t-17 21.5q-4 10 -0.5 17.5t13.5 9.5q201 45 395 123q78 31 154.5 68.5t148.5 82.5q61 39 119.5 81t116.5 85q47 39 66.5 54.5t35.5 31.5q27 23 50.5 47.5t45.5 52.5q10 14 19.5 26.5t17.5 27.5q0 2 3 6 t-1 0q4 4 4 6l6 12q8 16 11 27q6 12 6 27q2 2 2 6v2v4v8q0 23 -2 33q0 8 -2 12l-2 4q0 2 -1 3t-1 3l-13 25q4 -6 0 -1t-6 7l-8 10l-4 6l-10 9l-19 14h-4l-4 4l-12 6q-4 4 -9.5 5t-11.5 5h-2q-2 2 -6 2l-10 5l-23 6l-12 4h-2q-4 0 -9 1t-9 1q-12 4 -25.5 4h-26.5h-6 q-2 0 -4 1t2 1h-10h-21h-43l-86 -4q-47 -4 -89 -10t-83 -15q-90 -18 -178 -43q-90 -27 -176 -59.5t-172 -71.5q-166 -76 -323.5 -166t-311.5 -192q49 -25 82 -70q37 -49 51.5 -109.5t18.5 -119.5q2 -30 2 -61q0 -38 -3 -76q-5 -68 -16 -136l-16 -116q-4 -47 -7 -78t-4 -49.5 t-3 -29.5t-2 -19q4 10 9 18t9 16l78 125q90 137 185 268.5t194 262.5q47 61 91 122.5t91 121.5q16 20 29.5 40.5t27.5 40.5l31 48q6 8 12.5 16t16.5 12q20 10 41 -6q6 -4 9 -13t-7 -16q-4 -2 -1 1t-1 -1l-4 -6q-8 -8 -15 -20l-30 -47q-29 -49 -58 -88q-94 -129 -188 -257 t-187 -257q-47 -66 -92 -132.5t-86 -132.5q-20 -31 -38.5 -60.5t-34.5 -59.5q-23 -37 -38.5 -77t-41.5 -75q-6 -8 -18.5 -9t-20.5 3q-20 6 -29 22q-4 8 -6 18.5t-4 20.5q-2 29 0 60q0 61 6 123.5t14 123.5q8 63 16.5 127t12.5 123q2 35 3 68v13q0 26 -3 52q-2 16 -3 30.5 t-5 31.5q0 14 -6 31q0 4 -1 7t-1 7q0 -4 -1 -2t-1 4q0 4 -2 6q-4 12 -9.5 25.5t-13.5 25.5l-6 13q-4 4 -1 0t-1 0q0 2 -1 3t-1 3l-17 20l-6 6l-10 9l-10 6q-2 2 -7.5 5t3.5 -1q-10 8 -27 14v2h-4h-2q-8 4 -14 4q-12 4 -24.5 18.5zM80 563h6h-4h-2zM133 530q-2 2 4 -2 q-2 0 -4 2zM1382 -395h4l3 -2zM1704 1145h4q2 0 4 -1t-8 1zM1761 1128h2h-2zM1829 1087q-2 2 4 -2q-2 0 -4 2zM1866 1030l2 -2q0 2 -2 2z" />
<glyph unicode="S" horiz-adv-x="1120" d="M-164 -225q4 35 23.5 62.5t44.5 49.5q14 12 28.5 23.5t30.5 21.5l60 31q18 8 34 -6q6 -4 8.5 -11t-6.5 -12q-10 -6 -21 -14l-22 -16q-12 -8 -23 -16.5t-22 -18.5q-20 -16 -36.5 -37.5t-24.5 -44.5q-8 -27 -6 -47l3 -12t5 -13l6 -10v-4h2l8 -10l2 -2l17 -15l2 -2h2l8 -4 l8 -4h2l2 -2h2q8 -4 29 -8q2 0 4 -1t-2 1q2 -2 4 -2q4 0 7 -1t8 -1q10 -2 30 -2q4 0 10.5 -1t-0.5 -1h15q16 0 31.5 1t31.5 3q10 0 31 4h8q6 2 1 1t-1 1q10 0 15 2q33 6 62.5 14.5t59.5 18.5q41 14 82 29.5t80 31.5q41 18 80 40t76 46q35 23 68.5 50.5t62.5 60.5 q23 29 39 63q13 27 13 55q0 7 -1 15q-4 23 -10 35q-4 10 -7 16t-7 12l-19 21q0 2 -4 5t-2 1l-6 6l-12 10q-4 0 -9 5l-18 10l-14 6l-2 2h-5q-8 4 -14 6l-12 4l-33 8q-4 0 -5 1t-3 1q-8 2 -1 0t-1 0l-17 5l-75 12q-84 10 -167 20.5t-167 30.5q-31 8 -60.5 18.5t-58.5 26.5 q-27 16 -48.5 37.5t-31.5 52.5q-7 21 -7 42q-1 21 7 41q14 40 41 75q23 31 49.5 57.5t55.5 50.5q115 96 249 164t275 117q283 98 577 133q53 6 107 8q18 1 37 1q36 0 71 -3q51 -4 104.5 -16t96.5 -45q41 -29 53 -74q6 -23 2 -46.5t-14 -45.5q-31 -66 -85 -118t-114 -91 q-66 -41 -134 -69.5t-140 -55.5l-135 -45q-37 -12 -75 -24.5t-77 -22.5q-23 -4 -46 -9t-48 -7q-14 -2 -28.5 -1t-26.5 5t-22.5 12t-14.5 22v7q4 23 20 26q14 4 37 -2q8 -4 15.5 -8t11.5 -12h2h4q2 2 10 2l23 6q16 4 30.5 8t30.5 8q39 10 76 22.5t76 26.5q35 10 68.5 21.5 t68.5 26.5q35 12 66.5 25t66.5 30q66 33 125 74t105 100q18 23 33.5 47.5t21.5 54.5v9q0 4 1 5t1 5q-2 6 -2 18q-2 2 -3 4t1 0v2l-4 9q0 2 -1 2t-1 4q0 -2 -2 0q0 2 -2 4l-7 8q-2 0 -2 1t-2 1q-4 4 1 0t1 0l-14 10l-2 2h-2l-10 6l-9 5h-2l-2 2q-10 4 -21 7t-24 5q-2 2 -6 2 q-4 2 -12 2q-16 4 -25 4l-49 6h-14h-4h-2h-2h-21q-27 0 -51.5 -1t-48.5 -3q-35 -4 -68 -8t-65 -10q-8 0 -13 -2h-2q-4 0 -8 -1t-8 -1l-35 -7l-72 -14q-74 -16 -147.5 -36.5t-144.5 -45.5q-74 -25 -142.5 -52.5t-136.5 -62.5q-66 -33 -126 -69.5t-118 -81.5 q-10 -10 -22 -20.5t-25 -22.5q-31 -29 -53 -55q-25 -29 -45 -65q-13 -23 -14 -49q0 -14 4 -28q2 -8 10 -24q0 -2 2 -4l4 -4l6 -9l2 -2l4 -4l11 -6q2 -4 10 -8q4 -4 -1 0t-1 0q2 0 3 -1t3 -1q10 -8 27 -15h4l2 -2l14 -4q16 -6 31.5 -10t32.5 -8h2h2q4 0 5 -1t3 -1q6 0 18 -4 l37 -6l82 -11q43 -6 87 -11t87 -13q66 -10 132.5 -26.5t117.5 -61.5q27 -23 47.5 -52.5t26.5 -64.5q3 -15 3 -30q0 -25 -8 -48q-14 -37 -36 -69q-25 -35 -58.5 -65t-68.5 -56q-74 -55 -154 -90q-41 -20 -82 -37t-84 -33q-35 -10 -68.5 -21.5t-68.5 -19.5q-60 -13 -126 -19 q-19 -2 -39 -2q-45 0 -89 9q-33 8 -63.5 19t-55.5 34q-27 22 -41 52q-11 23 -11 50q0 7 1 15zM-53 -325q2 -1 2 -3q-4 4 -2 3zM84 416l2 -2zM154 365q6 -2 4 -3zM236 340l4 -2q-2 0 -4 2zM768 172l2 -2zM850 500q8 2 6 1t-4 -1h-2zM1542 1063h2h-2zM1544 1063q2 0 3 -1t-3 1 zM1592 1050q3 -1 5 -3q-2 2 -4 2q-4 2 -1 1z" />
<glyph unicode="T" horiz-adv-x="751" d="M-184 883q-6 12 3 20t21 8q9 -1 19 -1q25 0 50 4q34 6 68 10q39 6 78 10l78 8q86 8 171 18.5t171 20.5q190 23 378.5 38t381.5 25q98 6 196.5 10.5t196.5 4.5q35 1 70 1l106 -2q88 -3 176 -16q12 -2 24.5 -8t16.5 -16q8 -18 -8 -25q-12 -10 -26.5 -14t-30.5 -8 q-10 -4 -24.5 0t-22.5 14q-6 6 -6 12q-16 2 -30.5 3t-31.5 1h-19.5t-19.5 3h-8h-2h-2h-18q-18 0 -37 1t-37 1q-84 0 -165 -3.5t-165 -7.5q-186 -8 -379 -24q-96 -8 -190 -16.5t-191 -18.5q-98 -10 -195.5 -21.5t-195.5 -21.5q-47 -4 -96 -8t-96 -13q-39 -4 -78 -10t-80 -6 q-14 2 -28.5 7t-22.5 20zM59 -311q2 8 6.5 14t6.5 10q6 12 18 13q53 129 124 251.5t144 241.5l105 170q27 43 53.5 86t54.5 84l111 170q12 20 25.5 37.5t25.5 38.5q4 10 10.5 19.5t10.5 19.5l8 20q4 10 6 10l4 5l2 2l-2 -2q2 8 16 8q29 0 39 -25q4 -10 1 -19t-7 -20 q-8 -18 -18 -35.5t-21 -33.5q-10 -16 -21 -30.5t-22 -31.5q-20 -35 -47 -71q-47 -72 -92 -143.5t-90 -143.5l-102 -170l-103 -168q-47 -84 -90 -169t-78 -177q-6 -16 -26.5 -14t-30.5 12q-23 18 -21 41z" />
<glyph unicode="U" horiz-adv-x="1247" d="M23 184q-2 27 3 52.5t11 48.5q4 23 10 42t12 40q4 16 12.5 34.5t18.5 34.5q8 20 18.5 39t20.5 37q41 78 92 149.5t109 137.5q59 68 122.5 129t133.5 119q16 14 32.5 25t32.5 22q25 16 49.5 30.5t51.5 28.5q25 12 49 22.5t51 14.5q31 6 57 0q14 -4 27.5 -14.5t19.5 -24.5 q10 -25 2 -49.5t-18 -46.5q-12 -25 -25.5 -47.5t-29.5 -44.5q-92 -139 -191 -277q-53 -78 -106 -155.5t-105 -155.5q-47 -78 -93 -156t-85 -160q-14 -29 -25.5 -55.5t-23.5 -54.5q-10 -16 -17.5 -34.5t-15.5 -37.5q-10 -23 -18 -46.5t-15 -47.5q-8 -27 -10 -45q-2 -4 -2 -12 l-2 -5v-2v-18q0 -4 1 -9t1 -9h2q0 -10 13 -13q2 0 2 1t2 1h4l32 9l15 6q2 0 4 1t4 1q6 4 1 1t1 1q35 14 65.5 32.5t59.5 40.5q29 20 53.5 41t48.5 43q53 47 102.5 97.5t96.5 99.5q98 98 188.5 201.5t180.5 208.5l227 270q10 18 23 33q47 66 92 132t110 118q10 6 22.5 4 t20.5 -6q6 -4 14.5 -11.5t4.5 -17.5q-10 -31 -28.5 -57.5t-39.5 -51.5q-23 -27 -45 -51t-45 -51q-35 -35 -68 -74q-16 -27 -33.5 -51.5t-33.5 -52.5q-25 -37 -46.5 -75t-41.5 -77q-41 -78 -76 -158.5t-70 -162.5q-35 -86 -69.5 -170t-52.5 -176q-6 -29 -10.5 -61t-2.5 -62 q0 -12 2 -19q12 2 25 -6q6 -4 15 -13t-1 -18l-8 -6v2q0 -2 -1 -2t-1 -2l-6 -6l-23 -6q-27 -4 -45 14q-23 16 -26 56q-2 18 -2 36t2 38q4 38 12 73q18 92 53 176t70 170q27 63 53.5 126t54.5 124l-135 -160q-86 -98 -176 -189t-184 -184q-47 -47 -99.5 -90t-111.5 -77 q-31 -18 -64 -34t-67 -22q-31 -6 -60.5 -3t-52.5 26q-14 14 -18.5 33.5t-4.5 37.5q2 47 19 95q12 41 28.5 81t34.5 80q16 29 28.5 61t29.5 60q20 41 42.5 82t45.5 82q47 80 96 158t102 155l216 310q20 29 39.5 58.5t37.5 57.5q16 23 28.5 43.5t23.5 42.5q14 25 14 48v2v4 q0 4 -4 4q-2 -2 -4 -2q-4 0 -6.5 -1t-4.5 -1l-22 -8l-8 -5q-4 -2 0 1.5t-2 -1.5q-8 -4 -13 -4l-24 -12l-53 -31q-23 -12 -44.5 -25.5t-43.5 -29.5l-15 -12l-6 -4l-4 -2q-16 -12 -31.5 -25.5t-30.5 -30.5q-35 -31 -66.5 -61.5t-62.5 -65.5q-125 -131 -219 -280 q-35 -57 -63.5 -116.5t-48.5 -123.5q-16 -57 -23 -104v-4v-7v-10q0 -20 11.5 -23t15.5 -24q2 -12 -9.5 -16t-21.5 -2q-29 4 -46 22.5t-19 46.5zM176 -279v-2v2zM180 -317zM197 -328h2h-2z" />
<glyph unicode="V" horiz-adv-x="1015" d="M92 369q6 43 19 86q20 68 55 137q31 66 67.5 128t83.5 116q45 51 102.5 91t127.5 46q7 1 14 1q41 0 77 -20q42 -24 60 -71q16 -43 18 -89v-25q0 -33 -3 -67q-10 -131 -46 -257t-77 -250q-31 -92 -62.5 -182.5t-62.5 -182.5q-8 -20 -14.5 -40.5t-12.5 -41.5q25 41 50.5 82 t52.5 82q104 158 212.5 308.5t223.5 299.5q111 143 225.5 280.5t237.5 268.5q59 61 95 97t56.5 57.5t29.5 33t15 19.5q23 23 43.5 44t42.5 40q20 16 43 31.5t52 15.5q14 0 27.5 -6.5t17.5 -22.5q6 -20 -4 -43q-4 -16 -27 -13t-35 15l-4 -4q-4 -4 -6 -4h-2v-2l-27 -24 q-25 -23 -47 -47.5t-45 -49.5q-23 -27 -47.5 -50t-46.5 -48l-135 -143q-61 -68 -121 -136.5t-117 -140.5q-115 -139 -221.5 -281.5t-210.5 -289.5q-111 -156 -212 -316.5t-194 -330.5q-4 -12 -16 -14.5t-25 1.5q-8 4 -19 12.5t-7 20.5q10 29 17 57.5t14 57.5q6 29 13 55.5 t15 54.5q18 57 37 113.5t39 114.5q31 92 62.5 183t60.5 183q23 70 41 139.5t33 141.5q4 20 7 40.5t7 41.5q2 8 2 24q2 4 2 11v4v2v2l4 47q0 49 -8 90q0 4 -1 5t-1 5t-2 6v-2q0 8 -6 19l-8 16v2h-3q0 2 -4 6q0 2 -2 2l-4 4l-2 3q-4 4 -6 4h-2l-4 2h-6q-4 2 -7 2t-1 0 q-12 0 -19 -2h-2q-2 0 -2 -2q-8 0 -12 -2q-10 -2 -31 -11q-2 0 -4 -2q-2 0 -3 -1t-3 -1q-4 -2 -7 -4t-8 -4q-61 -35 -107 -90t-83 -115q-61 -96 -100 -196q-10 -27 -18.5 -52.5t-14.5 -52.5q-4 -16 -4 -26q0 -4 -2 -5v-2v-4v-2v-4v-10l2 -4q16 -12 6 -27q-8 -10 -21.5 -8 t-23.5 6q-31 21 -31 56v8zM160 360q0 -2 1 1t-1 -1zM559 924h4h-4zM601 921q3 -1 5 -3q-8 4 -5 3zM1784 1329q-2 -2 1 0t-1 0z" />
<glyph unicode="W" horiz-adv-x="1490" d="M221 412q4 27 9.5 49t11.5 45l30 84q6 16 11.5 25.5t9.5 19.5l31 63q33 66 74.5 125.5t95.5 106.5q27 25 56.5 43t59.5 33q44 15 87 15q13 0 26 -1q25 -6 48.5 -15.5t39.5 -31.5q25 -31 35 -78q8 -36 8 -72q0 -11 -1 -22q-3 -47 -11 -92q-6 -39 -16.5 -76t-22.5 -74 q-31 -100 -61.5 -200.5t-59.5 -200.5q-4 -18 -9 -37t-9 -35q18 31 37.5 61.5t37.5 59.5q51 76 104.5 148.5t110.5 144.5l62 71q27 33 61 68q29 29 55.5 56.5t67.5 43.5q10 4 21.5 2t21.5 -8q4 -4 9 -11t3 -13q-29 -78 -55 -156t-49 -156q-29 -84 -57.5 -164.5t-49.5 -166.5 q-23 -78 -35 -156t-18 -160q43 164 119 311q33 74 72 144.5t84 140.5q23 35 38 59.5t33.5 53t45 66.5t73.5 100q53 70 109.5 138t115.5 134q63 72 131 139.5t138 134.5l51.5 51.5t54 51t55 44t58.5 28.5q14 4 29.5 0t25.5 -21l8 -18q8 -12 1 -19.5t-17 -7.5q-16 -4 -35 6 q-4 -2 -7 -4l-9 -6q-14 -10 -25.5 -19.5t-23.5 -19.5q-59 -59 -120 -115.5t-120 -117.5l-135 -140q-29 -35 -56.5 -65.5t-56.5 -65.5q-51 -61 -96 -121.5t-90 -126t-93.5 -142.5t-103.5 -171q-80 -139 -135 -291q-30 -78 -54 -162q-21 -72 -21 -147q0 -12 1 -25 q10 -14 11 -28q4 -16 -13.5 -18.5t-27.5 -0.5q-10 4 -17.5 7.5t-15.5 7.5q-27 16 -40 40.5t-17.5 53.5t-3.5 57.5t3 52.5q4 92 19.5 182.5t38.5 178.5q23 86 50.5 169t53.5 169q16 47 33.5 96t34.5 96q-27 -29 -50.5 -53.5t-45.5 -52.5q-102 -121 -191 -246 q-49 -70 -94 -140.5t-82 -142.5q-35 -63 -61.5 -132.5t-34.5 -143.5q0 -6 -1 -12t-1 -11q0 -4 -2 -6q0 -12 -15.5 -13t-23.5 3q-6 0 -18.5 7t-10.5 18v6v2q2 57 9 111.5t18 109.5q23 94 50 189.5t56 189.5q16 55 31.5 108.5t32.5 106.5q12 39 24.5 74.5t22.5 72.5 q4 23 8 43.5t8 42.5l4 47q4 16 2 25q2 4 2 12v4v2q-2 23 -3 43.5t-5 43.5l-8 10h2q-2 2 -2 4l-6 14l-6 8v2l-9 7q-4 4 1.5 1t-1.5 1l-8 4h2l-2 2h-4q-2 0 -2 1t-2 1h-4q-6 0 -8 2q-6 0 0 -1t0 -1h-4h-13h-6h-2q-4 -4 -6 -4t-6 -2l-29 -6l-26 -13q-8 -4 -15.5 -9l-13.5 -9 q-57 -41 -101 -96.5t-79 -116.5q-18 -29 -32.5 -59.5t-29.5 -59.5l-8 -14q0 -6 -4 -11q0 -6 -2 -10q-4 -10 -8 -18t-8 -19q-10 -27 -18.5 -52t-12.5 -52q0 -6 -1 -12.5t-1 -12.5q0 -4 -1 -5t-1 -5v-2v-4q0 -2 1 -4t1 -4q0 -8 9 -14.5t-1 -16.5q-6 -10 -19.5 -9t-23.5 5 q-25 10 -31 30.5t-4 43.5zM731 973q4 -2 3 -1t-3 1zM733 971q2 0 4 -2q-2 2 -4 2zM768 928q2 -4 2 -3t-2 3z" />
<glyph unicode="X" horiz-adv-x="1169" d="M27 -322q2 18 28 19l29 31q18 16 36.5 35.5t37.5 39.5q35 37 72.5 74t76.5 72q72 74 146.5 148.5t152.5 146.5q41 41 82 77.5t82 75.5q-2 23 -3 47.5t-1 47.5q0 94 1 188v17q0 85 -9 169q-2 16 -3 32.5t-5 31.5l-9 33q-2 2 -2 6l-2 4q-4 4 -4 6t-2 4q-10 16 -31.5 13 t-37.5 -13q-39 -16 -75 -40.5t-71 -51.5q-33 -25 -59.5 -52.5t-50.5 -58.5q-25 -33 -50.5 -65.5t-44.5 -67.5q-6 -14 -11 -27.5t-9 -27.5q10 0 21.5 -8.5t-3.5 -16.5q-10 -6 -19 -12t-20 -8q-23 -4 -28 8q-10 10 -11 25q6 29 12.5 50t20.5 50t31.5 54.5t36.5 49.5 q16 23 32.5 43.5t36.5 40.5q31 35 67 61.5t73 49.5q35 23 74.5 43t82.5 20q39 0 64.5 -19t38.5 -52q16 -29 19 -64t5 -69q8 -78 8 -158v-32q-1 -38 -1 -75q0 -56 2 -112v-6q23 18 44 36.5t44 36.5q78 70 155.5 134.5t155.5 130.5q158 129 317.5 248.5t339.5 218.5 q10 6 24.5 3.5t20.5 -12.5q8 -4 10.5 -13t-8.5 -15q-35 -31 -66.5 -65t-66.5 -66q-6 -4 -15 -4.5t-16.5 3t-11.5 9.5t0 14v2q-152 -100 -294 -212.5t-283 -231.5q-78 -66 -159 -133.5t-159 -139.5q-8 -6 -14 -12l-12 -12q4 -66 11 -130.5t17 -125.5q16 -88 38 -170t48 -164 q8 -23 16.5 -45.5t18.5 -46.5q0 -2 1 -3t1 -3l8 -17l39 -78q14 -23 27.5 -45t30.5 -45q4 -8 10 -14t10 -12q0 -2 12 -17q20 -25 41 -39q8 -8 13 -10q2 0 2 -1t2 -1l2 -2q4 -4 9 -7t9 -7q20 -12 37 -15.5t33 -7.5h6h14h2h7l14 4q4 0 6 2h2q29 8 45 -8q4 -6 6 -17.5t-10 -15.5 q-10 -6 -19.5 -8t-19.5 -6q-10 0 -18 -1t-19 -1q-20 2 -39.5 5t-35.5 9q-35 12 -65 33t-52 47q-43 43 -74 89t-55 96q-29 49 -50.5 103t-41.5 110q-41 121 -67 247.5t-36 259.5q-55 -51 -109.5 -102t-107.5 -104q-76 -74 -150.5 -145.5t-150.5 -147.5q-20 -18 -38.5 -38 t-35.5 -36q-12 -16 -28.5 -30.5t-30.5 -28.5q-10 -10 -19.5 -21.5t-19.5 -17.5q-23 -14 -43 -2t-16 34zM737 970q-2 3 0 3v-2q2 -4 0 -1z" />
<glyph unicode="Y" horiz-adv-x="1089" d="M-6 -123q2 6 9 9t13 3q37 2 74 3.5t74 5.5q106 4 210.5 8t211.5 8l51 2q72 127 146.5 251t152.5 247q23 33 43 63.5t41 63.5q-47 -51 -94 -100.5t-97 -100.5q-29 -29 -59.5 -57.5t-60.5 -57.5q-41 -37 -86 -73.5t-95 -65.5q-18 -12 -39.5 -23.5t-45 -18.5t-47 -7 t-44.5 12q-31 16 -42 45t-11 60.5t7 64.5t16 60q18 61 43.5 119.5t56.5 115.5q39 68 82 132.5t86 129.5q18 29 37.5 57.5t36.5 57.5q8 12 15 23.5t11 21.5q8 14 14.5 29.5t10.5 31.5q0 8 1 12.5t-1 12.5v8q-4 4 -4 8q-4 4 -2 1t0 1q0 2 -2 4q-2 0 -2 1.5t-3 1.5h3q4 -4 -5 0 q-2 2 -6 2h-6h-4h-2h-14h-2q-4 -2 -9 -2q-16 -4 -31.5 -9.5t-31.5 -13.5q-70 -39 -137 -92q-29 -23 -52.5 -47.5t-46.5 -53.5q-27 -29 -50 -58.5t-44 -63.5q-6 -12 -12 -24.5t-10 -27.5l2 2q12 4 24 -8q4 -4 3 -8t-5 -6q-16 -8 -36.5 -17.5t-34.5 13.5q-4 6 -2 15t4 16 q4 20 8 34q12 37 31 66l43 65q10 16 22 29.5t25 28.5q10 12 21 24.5t26 24.5q66 59 133 100q33 20 67.5 35.5t71.5 20.5q11 1 22 1q21 0 43 -5q33 -7 52 -33q20 -27 18 -56.5t-14 -58.5t-27.5 -55.5t-31.5 -50.5l-80 -121q-78 -117 -148.5 -237t-101.5 -259q-4 -16 -6 -31.5 t-4 -29.5q0 -20 2 -29q0 -10 2 -14v-7q0 4 0 2t2 -4q0 -4 4 -12q2 0 3 -2t-1 0l2 -2l2 -2v-2h2h-2h2h2q2 0 3 1t3 1h6l19 6q2 0 3 1t3 1h2l4 2q2 0 2 2l21 11q23 14 44 28.5t44 30.5q43 33 82 66.5t79 72.5q45 41 87 85t85 91q72 74 141.5 149t139.5 152l68 76l63 72 q27 35 52.5 67.5t60.5 59.5q8 6 20.5 5t22.5 -7t15 -14.5t-1 -18.5q-29 -49 -67 -94q-63 -78 -121 -158t-115 -162q-57 -80 -110.5 -161.5t-106.5 -165.5q-57 -92 -110.5 -182.5t-106.5 -182.5l352 14q115 4 228.5 6.5t228.5 4.5q86 0 172 -2t172 -11q68 -6 135 -18 q16 -4 33.5 -8t34.5 -8l28 -9l15 -6q6 0 8 -2h2l2 -2q10 -4 20.5 -11t6.5 -20q-4 -10 -17.5 -12t-21.5 2q-12 4 -24.5 7t-25.5 7l-24 7l-12 4h-7h-2q-57 12 -108 18q-33 4 -64.5 6t-62.5 4l-137 5q-45 1 -91 1q-79 0 -158 -3q-124 -3 -249 -7q-117 -4 -231.5 -8t-231.5 -8 q-37 -63 -72.5 -127t-72.5 -129q-82 -147 -166 -292.5t-174 -289.5q-4 -10 -16.5 -10t-20.5 4q-10 2 -19.5 8t-9.5 17q-3 45 -3 90q0 23 1 45q2 67 6 135q4 78 5 154q1 7 1 13q0 70 -16 140q-6 35 -16.5 66t-26.5 61q-10 14 -17 25.5t-20 25.5l-22 25l-2 2q-2 0 -4 2l-7 6 l-14 13q-4 4 -9 10t-1 14zM92 -156q68 -72 96 -168q23 -72 27 -148q2 -37 2 -75t-2 -76q-2 -51 -3 -102t-3 -104q86 141 168 283.5t162 287.5q18 31 35.5 61.5t33.5 63.5l-375 -17q-35 -4 -70.5 -4t-70.5 -2zM381 84h2h-2zM383 84h2h-2zM383 86q2 0 2 -2zM391 86q6 2 6 1 t-4 -1h-2zM424 94h2h-2zM694 1049h4h-4zM2023 -139h2h-2z" />
<glyph unicode="Z" horiz-adv-x="1048" d="M-435 -544q-5 9 3 16q37 33 71.5 65.5t69.5 65.5q74 72 146.5 141.5t146.5 138.5q74 72 150.5 137.5t154.5 131.5q154 125 312.5 239.5t324.5 222.5q147 98 297 189.5t303 183.5h-135.5t-134.5 -4q-109 -2 -215.5 -5t-212.5 -5q-50 -2 -98 -4q-24 -1 -48 -1t-49 1 q-16 2 -30.5 7t-24.5 19q-4 8 0 15.5t10 13.5q10 12 29.5 8t30.5 -14h108q217 6 430 13q136 4 272 4q78 0 156 -1q27 0 41 -16q14 -14 -2 -29q-41 -23 -80 -46t-78 -48q-170 -102 -335.5 -205.5t-329.5 -216.5q-330 -221 -627 -479q-123 -104 -237.5 -217t-231.5 -223 q39 14 78 27t80 26q152 47 304.5 76.5t307.5 56.5q176 29 352.5 51.5t356.5 30.5q75 4 151 7q45 2 91 2q30 0 61 -1q41 0 80 -2t80 -8q18 -2 36.5 -6.5t34.5 -8.5q12 -4 25.5 -18t3.5 -29l-14 -10h-4q-16 -4 -29 0q-6 4 -15.5 9t-13.5 12q-10 4 -21 4t-24 2q-12 2 -24.5 3 t-22.5 1q-8 0 -14 1t-13 1h-12h-2h-2h-4q-38 1 -75.5 1t-75.5 -1q-74 -2 -150 -6q-90 -4 -179 -11.5t-177 -17.5q-180 -23 -349 -49q2 0 1 -1t-3 -1h-6q-4 0 -5 -1t-5 -1t-9 -1t-9 -1l-37 -8l-74 -13l-125 -22q-174 -35 -345 -85t-331 -128q-10 -4 -24.5 -3t-24.5 11 q-6 4 -11 13zM1778 -250h2l2 2q-2 0 -4 -2z" />
<glyph unicode="[" horiz-adv-x="4472" d="M37 -102q0 14 27.5 27.5t44.5 17.5q31 10 62.5 21t64.5 24q195 72 392 133t398 117q199 53 397.5 100t403.5 88q406 82 813 133t821 62q145 2 288.5 -2.5t287.5 -24.5q76 -10 158.5 -28.5t148.5 -63.5q23 -16 40 -37.5t19 -50.5q2 -33 -13 -60.5t-38 -50.5 q-6 -8 -20.5 -8t-25.5 6t-17.5 15.5t2.5 19.5q10 12 20 25.5t14 25.5q4 10 7.5 24.5t-3.5 24.5q-2 2 -2 4t-2 4t-2 5l-8 10q-2 2 -9 8t-15 10q8 -4 1.5 -1t-8.5 5l-28 15q-2 0 -5 2t3 -2l-8 4l-15 6q-18 6 -37.5 11t-38.5 9q-4 0 -5 1t-5 1q-2 0 -2 1t-2 1h-2q-4 0 -20 5 l-41 6l-86 12q-162 18 -318 19t-321 -5q-414 -16 -820.5 -72.5t-812.5 -144.5q-203 -43 -402.5 -92t-397.5 -106q-100 -29 -198.5 -60t-197.5 -63q-96 -31 -189 -66t-190 -65q-6 -8 -15 -12.5l-17 -8.5q-4 0 -7 -2q0 -12 -11 -16t-23.5 -2t-23.5 9t-11 17v15zM4143 528h2h-2 z" />
<glyph unicode="\" horiz-adv-x="720" d="M55 874q-2 12 8.5 16.5t22.5 2.5t23.5 -9t13.5 -18q2 -10 3 -20t5 -21q0 -8 2 -10q0 -2 1 -3t-3 5q2 -4 -2 2q6 -10 8 -22.5t6 -22.5q12 -45 26.5 -88t31.5 -86q33 -92 67.5 -182t69.5 -182q29 -72 56.5 -147t49.5 -150q17 -5 21 -17q4 -16 6 -34.5t-12 -32.5 q-14 -16 -38 -7t-28 27q-14 53 -30.5 103.5t-32.5 101.5q-33 92 -69 180t-71 180t-66.5 185.5t-55.5 189.5q-4 10 -9 27z" />
<glyph unicode="]" horiz-adv-x="2539" d="M84 90q106 68 222 115t237 82q203 59 405.5 101t411.5 69q111 14 221.5 23t220.5 12h90q4 0 10.5 -1.5t12.5 -1.5q-10 2 -4 1t8 -1h12q31 -2 61.5 -2t61.5 -2q59 -4 121.5 -10t122.5 -24q20 -6 42.5 -16.5t41 -25t28 -35t3.5 -44.5q-4 -12 -16.5 -14.5t-25 2t-22.5 12.5 t-6 20q0 4 1 5t1 5v5q0 2 -1 3t-1 5q2 -8 1 -4t-3 6q0 2 -2 4q4 -6 3 -5t-1 3l-6 6l-2 2q-4 2 -9 6q-4 2 1.5 -2t1.5 0q-2 2 -3.5 2t-3.5 2t-4 2t-6 2q-2 2 -3 2t-3 2q-4 2 1 -1t1 -1q-8 4 -12 4q-6 4 -13.5 5.5t-13.5 3.5q-4 2 -8 2t-8 2t2 0h-6q-61 12 -123 16t-123 8h-16 h-7h-26q-14 2 -26.5 2h-27.5q-8 0 -12 2l-2 -2h2h-12h-53q-29 0 -55.5 -1t-55.5 -3q-111 -6 -221.5 -17t-220.5 -28q-106 -16 -211 -36.5t-209 -47.5q-92 -23 -184.5 -46t-183.5 -54t-177 -70t-166 -90q-10 -6 -24.5 -3t-24.5 9q-23 18 -4 35z" />
<glyph unicode="^" horiz-adv-x="413" d="M69 461q-3 8 7 16t20 14.5t21 12.5l45 24q29 10 47 -10q10 -10 16 -21.5t15 -21.5l9 -9t9 -11q2 -6 0 -12.5t-10 -8.5q-23 -4 -39 10.5t-31 34.5q-14 -8 -28.5 -17t-28.5 -20q-8 -4 -19.5 -3t-20.5 7.5t-12 14.5z" />
<glyph unicode="_" horiz-adv-x="1177" d="M-14 23q-4 10 3 17t17 7h133.5t132.5 4q141 4 281.5 8t282.5 4h8q10 4 22.5 1t22.5 -3t22.5 -4t16.5 -16q4 -10 -2 -16.5t-17 -6.5h-125.5t-126.5 -2q-160 -4 -315.5 -9t-314.5 -3q-10 0 -22.5 4t-18.5 15z" />
<glyph unicode="`" horiz-adv-x="421" d="M79 491.5q-7 8.5 1 18.5q4 6 14 7t19 -3q18 -4 35.5 -11t33.5 -16q12 -4 25.5 -9t23.5 -15q8 -6 11.5 -16.5t-6.5 -16.5t-24.5 -4t-25.5 10q0 2 4.5 -1t-2.5 1q-2 0 -10 4t-28 13q-14 6 -29 12t-29 14q-6 4 -13 12.5z" />
<glyph unicode="a" horiz-adv-x="600" d="M-184 61q2 39 20.5 71t40.5 61q25 31 52.5 58.5t60.5 49.5q43 31 108 53q10 4 24.5 6t27.5 0q14 -4 28.5 -15t5.5 -28q-4 -10 -14 -11t-20 3q-2 0 -11 4h-2q-2 -2 -4 -1t-4 -1q-2 0 -7 -2t-1 0q-45 -20 -92 -53q-18 -16 -40 -35.5t-40 -42.5t-35.5 -46t-28.5 -52 q-4 -12 -6 -25.5t2 -25.5q4 0 6 2q16 10 29.5 18t26.5 21q31 25 61 59l119 127l63 57l2 2q10 14 22.5 26.5t22.5 27.5q6 6 16.5 7t21 -2t17.5 -10.5t7 -15.5v-2q0 -6 -10 -16q-2 -4 -4 -5t-5 -6q-6 -8 -11 -13t-12 -13t-16.5 -20.5t-23.5 -34.5q-4 -8 -9 -15.5t-9 -15.5 q-10 -18 -18.5 -37.5t-12.5 -36.5l-6 -20q-10 -29 9 -47.5t56 -8.5q31 10 58.5 24.5t60.5 31.5q76 41 139.5 94t128.5 110q10 6 21.5 5t19.5 -5t16.5 -13t0.5 -15q-51 -45 -99.5 -86t-105.5 -78q-27 -16 -42 -27.5t-36 -21.5q-61 -35 -90 -47.5t-51 -16.5q-13 -1 -26 -1 q-25 1 -52 5q-41 8 -62 41q-12 18 -11 41t7 45q-14 -16 -29.5 -30.5t-31.5 -30.5q-16 -14 -29.5 -30.5t-29.5 -26.5q-23 -20 -58 -33q-18 -8 -38.5 -7t-41.5 15q-14 10 -20 27.5t-6 33.5z" />
<glyph unicode="b" horiz-adv-x="544" d="M-139 31q0 23 6 43t16 39q23 47 47.5 90t53.5 86q2 4 4 7t4 7q2 2 5 7t-1 -1q10 18 19.5 37t19.5 37q23 41 44 79t46 77q41 63 84 123.5t92 117.5q18 20 35.5 40t38.5 36q18 18 39.5 35.5t46.5 28.5q23 8 47 1.5t37 -28.5q10 -25 0 -57q-6 -20 -14.5 -38t-18.5 -36 q-12 -23 -25.5 -42.5t-27.5 -41.5q-57 -82 -127 -164q-20 -25 -41 -48.5t-43 -45.5q-55 -59 -117 -111q-18 -16 -37.5 -33.5t-40.5 -33.5q-10 -6 -20 -13.5t-23 -11.5l-24 -41q-12 -23 -24.5 -45t-22.5 -47q-8 -18 -15 -41q0 -4 -1 -6t-1 -8q0 -10 5 -13.5t13.5 -2.5t16.5 3 t12 4q27 10 54.5 29t50.5 39q18 16 33.5 32.5t31.5 35.5q20 23 38 45t32 47l2 2q-20 6 -31 20q-12 16 -5 32.5t24 23.5q23 10 46 6t38 -27q4 -12 4 -18h12q20 2 37.5 3t66.5 11q43 10 85 22.5t83 24.5q25 6 43 -12q8 -10 5 -17.5t-13 -11.5l-80 -22q-59 -16 -118.5 -27.5 t-118.5 -15.5h-13q-10 -20 -22 -40t-27 -36q-16 -18 -31.5 -36.5t-31.5 -35.5q-47 -49 -96 -82q-29 -18 -63 -32q-26 -10 -52 -10l-16 1q-25 4 -50.5 17.5t-25.5 42.5zM82 340q10 10 21.5 20.5t21.5 20.5q23 20 43 39.5t41 42.5q53 59 106 125q33 41 64 83t59 87l13 20 q6 12 13 24.5t13 28.5q10 23 12 46q-14 -6 -24 -15.5t-23 -19.5l-20 -19q-41 -41 -78 -85t-72 -91q-53 -72 -100 -147.5t-88 -155.5q0 -2 -1 -2t-1 -2z" />
<glyph unicode="c" horiz-adv-x="382" d="M-184 53q2 18 12 41t20 39q29 43 63 81t69 73q12 12 30.5 29.5t40 30.5t43 19.5t43.5 0.5q10 -4 18.5 -10.5t10.5 -16.5q2 -11 -8 -25q-6 -10 -18.5 -7t-18.5 11q-4 -4 -8 -5t-9 -5q-10 -6 -22 -14t-23 -19l-16 -12q-12 -12 -19.5 -19t-19.5 -22q-18 -20 -34.5 -39.5 t-32.5 -42.5q-23 -35 -31 -44t-15 -27q-6 -12 -6 -35v-6t6.5 -5t18.5 0t37 9q29 10 38 14t13 6l47 21l25 12q29 16 56.5 32.5t55.5 35.5l107 73l4 4q2 2 3 2t3 3l57 45q20 18 28.5 23t23.5 20q14 6 28 0q6 -4 12.5 -11.5t8.5 -13.5q-8 -16 -23 -31l-28 -26l-25 -19 q-14 -10 -26.5 -19t-26.5 -20l-49 -37q-63 -43 -135 -83.5t-154 -69.5q-27 -10 -57.5 -13.5t-59.5 7.5q-23 8 -41 23.5t-16 41.5z" />
<glyph unicode="d" horiz-adv-x="632" d="M-145 51q0 23 8 45q20 53 59 107q16 23 33.5 44t36.5 42q20 23 42.5 42t51.5 31q10 4 27.5 7t33 0.5t23.5 -11t2 -26.5l-4 -8q-4 -10 -24.5 -12.5t-24.5 3.5q-2 2 -2 7v2q-4 -2 -13.5 -3.5t-19.5 -11.5q-18 -16 -34.5 -33.5t-33.5 -37.5q-41 -47 -69 -97q-16 -25 -25 -49 q-4 -8 -8 -24q0 -4 -1 -6.5t-1 -4.5v-6v-2q-2 -8 2 -20q2 -4 6 -4q2 0 3 1t5 1q2 2 4 2l-2 -2q39 18 74 46.5t76 69.5q59 55 111.5 114.5t105.5 121.5q59 72 117.5 143.5t111.5 149.5q20 33 47 65q8 12 15.5 23.5t15.5 23.5q16 27 25 45q6 10 9 19.5t7 19.5q2 4 2 15 q0 10 -24 -15l-9 -8l-4 -4q-4 -4 -8 -7t-8 -7q-35 -35 -66 -72q-96 -111 -178 -244q-10 -18 -21.5 -36.5t-21.5 -38.5q-12 -18 -24 -43l-25 -50q-23 -49 -43 -100t-31 -104q0 -8 -2 -13v-6v-2v-20v-21q0 -4 1 -5t1 -3t2 -5t0 1q0 -4 2 -8t5 -9l2 -4q-4 6 -3 5l3 -3 q0 -2 6 -8l4 -2l4 -2h6h2h8q4 0 6 2q4 0 -1 -1t-1 -1q4 2 9 2q8 2 20 6q23 6 43.5 16.5t40.5 22.5q49 29 96 60.5t92 66.5q20 16 39 30.5t37 29.5l31 24q4 2 5 4t5 4l2 2q2 2 4 4.5t-2 -2.5l2 3q14 12 37 0q6 -2 13.5 -10.5t-1.5 -16.5q-10 -8 -19 -16.5t-19 -18.5l-7 -6 l-6 -6t-9 -7t-9 -8q-10 -6 -17.5 -13t-17.5 -13q-43 -35 -89 -68t-95 -61q-45 -31 -97 -51q-18 -8 -38.5 -13.5t-42.5 -7.5q-51 0 -84 33q-29 29 -29 70q-1 11 -1 23q0 39 11 77q14 49 35 96q20 51 45 100.5t53 96.5q16 27 31.5 52.5t32.5 49.5q23 35 47 69t51 66 q29 39 61.5 77t69.5 69q14 12 29.5 23.5t34.5 17.5q18 4 39.5 0t33.5 -21q14 -16 10 -38.5t-12 -39.5q-10 -27 -24.5 -51t-30.5 -47q-72 -106 -150.5 -206.5t-162.5 -198.5q-59 -70 -121 -136.5t-131 -124.5q-29 -25 -64 -50t-73 -29q-18 -2 -38 4t-30 20q-14 20 -14 43z " />
<glyph unicode="e" horiz-adv-x="460" d="M-143 72q-6 29 5 58.5t25 51.5q37 55 86 103q20 20 46 40.5t55 36.5q24 14 60 24q11 3 23 3q23 0 42 -14q25 -20 17 -47t-23 -49q-29 -39 -78 -76q-23 -16 -48.5 -31t-52.5 -25q-16 -8 -37.5 -10t-39.5 6l-5 -4q-8 -16 -10 -26q-2 -2 -2 -7q0 -2 -1 -3t-1 -3l-2 -8 q0 -10 1 -20.5t11 -20.5q8 -4 13 -4h18q37 4 65.5 12.5t61.5 22.5q76 35 147.5 79t155.5 101q16 12 35.5 24.5t36.5 24.5q8 4 18 10.5t21 10.5q4 2 14 2h2q-2 0 -1 -1t3 -1h4l8 -2l5 -4l4 -4l2 -3q2 -8 0 -14l-4 -6l-7 -6l-26 -21l-8 -6l-66 -45q-45 -31 -96 -64.5 t-111 -64.5q-41 -23 -88 -44t-90 -32q-42 -10 -84 -10h-14q-29 4 -54.5 20.5t-35.5 45.5zM-43 178q-4 -4 17.5 3t52 24.5t65.5 46.5t60 67q2 2 4 9q2 6 2 20q-25 -6 -58 -29q-10 -6 -16 -12t-14 -12q-2 -2 -3 -2t-4 -2l-4 -4q-25 -23 -48 -45.5t-44 -48.5z" />
<glyph unicode="f" horiz-adv-x="464" d="M-299 -543q31 100 60.5 200.5t64.5 199.5q49 147 108.5 289.5t135.5 277.5q74 137 168 264q51 70 100 131q14 16 27.5 32.5t29.5 33.5l31 35l14 14q8 10 23 14q12 4 26.5 -2t18.5 -20q2 -6 -1 -13.5t-7 -13.5q-4 -4 -11 -4l-16 -18l-37 -43q-37 -41 -67 -80 q-33 -41 -63 -82t-58 -82q-86 -129 -154.5 -264.5t-126.5 -278.5q-43 -111 -81 -222.5t-72 -225.5q35 47 66.5 93t60.5 93q41 68 78.5 138.5t66.5 144.5q12 29 22.5 58.5t18.5 57.5q4 16 8 41q0 4 1 5t1 6v2v2v2q-14 6 -27.5 12t-23.5 16q-8 4 -10 14.5t8 16.5q21 12 45 12 q9 0 19 -2q34 -6 49 -37h6h2h4h8h27l55 7h4q2 0 1 1t-3 1h8q6 2 15 2l28 6q14 4 26.5 7t24.5 7q23 6 43.5 12.5t40.5 14.5q14 6 34 -4.5t16 -26.5q0 -10 -13 -18q-20 -14 -43 -9q-86 -29 -168 -41q-27 -2 -54.5 -4t-55.5 0q-2 -10 -3 -20t-3 -21q-4 -27 -12.5 -51t-18.5 -51 q-29 -76 -64.5 -147.5t-76.5 -141.5q-37 -63 -78 -124.5t-84 -121.5q-16 -20 -31.5 -40.5t-32.5 -40.5q-10 -10 -19 -22.5t-22 -18.5q-18 -8 -39 2q-20 8 -18 26zM133 274v2v-2z" />
<glyph unicode="g" horiz-adv-x="446" d="M-506 -594q6 35 21.5 66.5t35.5 60.5q35 51 93 96q53 41 115.5 69t127.5 48l68 18q6 12 13 24.5t14 25.5v2q16 33 34.5 68.5t53.5 101.5q12 23 23 45t24 45l4 8q-4 -4 -5 -6t-5 -4q-20 -20 -41 -38t-43 -34q-23 -14 -45.5 -20.5t-49.5 2.5q-23 4 -40 20t-21 41 q-2 23 4 43.5t16 40.5q10 25 23.5 48.5t30.5 45.5q23 35 49 69t59 62q20 16 44 31.5t53 11.5q14 -2 28.5 -10t18.5 -22q4 -20 2 -31q-2 -10 -5.5 -16.5t-7.5 -16.5q-4 -4 -13 -5t-13 1q-6 4 -12.5 8t-6.5 10q-2 10 -2 29v2q-8 -4 -14 -9t-12 -9l-7 -6l-6 -7q-6 -4 -14 -12 q-4 -6 -14 -16q-10 -12 -19.5 -23.5t-17.5 -23.5q-16 -23 -30.5 -43.5t-27.5 -42.5q-4 -4 -4 -9h-2v-2q-2 -4 -3 -5t-3 -5q-4 -6 -5 -11t-5 -11q-4 -10 -8 -20.5t-6 -22.5q-2 -2 -2 -11q-2 -2 -2 -5t0 -1v-14v-4q0 -2 2 -2q0 -10 12 -5t16 9q23 12 39 26l4 5q2 0 6 4 q4 2 5.5 4t5.5 4l20 20q41 41 82 88q16 18 32.5 38t33.5 38l32.5 32.5t32.5 33.5q8 14 18.5 25.5t26.5 15.5q25 4 39 -9q6 -4 10 -12t-2 -16q-10 -10 -18 -17.5t-19 -17.5q-4 -10 -9 -17.5t-9 -15.5q-8 -12 -14.5 -23.5t-14.5 -23.5q-12 -20 -24.5 -39.5t-24.5 -42.5l-4 -8 l-4 -8q-2 0 -3 -2t3 2q-2 0 -2 -4q-4 -4 -4 -9q-4 -8 -9.5 -16t-9.5 -16q-8 -14 -15 -27.5t-13 -28.5q-23 -43 -43.5 -88t-42.5 -88q-8 -14 -14.5 -27.5t-14.5 -27.5q94 23 188.5 44.5t190.5 39.5q90 16 178 31.5t180 27.5q178 20 361 31q77 5 152 5q25 0 51 -1 q100 -2 200 -14q45 -4 90 -10.5t88 -20.5q20 -6 46 -16t45.5 -25.5t30.5 -37t3 -48.5q-4 -12 -16 -14t-25.5 2t-23.5 12t-6 21q2 10 0 22q0 4 -2 6v2h-2q0 2 -4.5 5.5t-0.5 0.5l-2 3h-2q-12 8 -18 10q-2 2 -6 2q0 2 -2 2q-4 2 -5 2t-6 2q-4 2 -10 3t-10 3 q-55 12 -107.5 19.5t-111.5 11.5q-99 7 -197.5 7t-197.5 -7q-43 -4 -86 -7t-86 -7q-47 -4 -91.5 -10.5t-89.5 -12.5q-182 -27 -363 -64.5t-362 -82.5q-2 -2 -6 -3q0 -2 -2 -4q0 -2 -2 -4q-14 -29 -28.5 -54.5t-28.5 -51.5q-29 -49 -58.5 -98.5t-64.5 -96.5 q-29 -41 -63.5 -75.5t-82.5 -53.5q-31 -12 -64 -12h-10q-38 2 -69 24q-27 18 -36 48t-5 63zM-440 -633q0 -10 2 -14v-4q0 -2 2 -4q2 -4 2 -6.5t2 -6.5h2q0 -2 2 -4l4 -4q4 -4 8 -6h4l2 -2h4h3h8h4q2 2 6 2q6 0 14 4q4 2 7.5 2t7.5 4q23 12 37 23q2 2 3 2t3 2h2v2 q16 12 28.5 26.5t24.5 30.5q35 43 63.5 89t57.5 94q16 27 29.5 52t29.5 52q-4 0 -6 -2q-63 -16 -123 -47q-59 -29 -108.5 -69t-83.5 -97q-16 -25 -29.5 -57.5t-11.5 -61.5z" />
<glyph unicode="h" horiz-adv-x="624" d="M-129 -16q16 63 43 121.5t55 117.5l117 228q45 86 92 165.5t105 157.5q10 12 18 23.5t18 25.5l33 45q18 23 42 43.5t57 16.5q10 -2 18 -6t12 -15q2 0 2 -2q4 -8 0 -12l-14 -10q-8 -4 -14 0h-2l-7 -4l-10 -9l-12 -12q-12 -14 -23.5 -28.5t-21.5 -30.5l-49 -66 q-37 -49 -66 -96q-51 -80 -94 -162t-86 -166q-23 -47 -47.5 -93t-46.5 -93q29 31 55.5 62.5t54.5 62.5q43 45 93 86q20 16 42.5 28.5t47.5 16.5q10 4 26.5 0t20.5 -19q4 -12 2 -26.5t-6 -26.5q-4 -16 -11.5 -32.5t-15.5 -32.5q-23 -41 -44.5 -82t-35.5 -84l-6 -17v-8 q0 -10 9 -6l18 8q2 2 4 2t3 1t5 1l12 9l31 14l57 37q25 16 49.5 31.5t49.5 31.5l120 88q25 16 50.5 34t48.5 36q6 6 16 4t18.5 -7t11.5 -13.5t-5 -14.5q-2 -2 -4 -2l-5 -4q-2 -2 -4 -3t-4 -5q-8 -4 -14 -10.5t-12 -10.5q-27 -23 -54 -41q-31 -23 -61.5 -45t-60.5 -45 l-99 -63q-29 -18 -58.5 -35.5t-60.5 -30.5q-23 -10 -48 -13t-48 9q-27 16 -27 49q0 7 1 15q4 18 11 36.5t15 34.5l43 86q10 20 20.5 40t18.5 40q2 2 2 4q-25 -16 -44 -33.5t-42 -39.5q-25 -25 -47.5 -49.5t-44.5 -51.5q-39 -45 -76 -91t-80 -87q-8 -10 -19 -9t-22 7 q-6 4 -12 9t-4 16z" />
<glyph unicode="i" d="M-147 61q4 16 11 35t17 35q18 35 39 68.5t43 62.5q10 14 22.5 28.5t26.5 26.5l31 29l37 27q16 8 33 -2h-2q4 -4 9 -11.5t3 -19.5l-12 -12l-9 -6l-22 -21q-27 -27 -50.5 -54.5t-43.5 -58.5q-23 -31 -37 -63q-10 -16 -18.5 -34.5t-12.5 -37.5q-4 -16 -4 -22q2 -8 14 -4 l25 6q25 6 49.5 16t48.5 21l41 20q33 14 76 41q4 4 10 6t10 6l119 74q16 12 34.5 23.5t35.5 21.5q29 20 48 31.5t38 21.5q6 2 15 -1t17.5 -7t11.5 -11t-3 -15q-10 -10 -24.5 -20.5t-30.5 -20.5q-37 -25 -51.5 -33t-18.5 -12q-51 -35 -104.5 -68t-120.5 -68q-18 -10 -43 -21 t-45 -20q-18 -8 -48 -19t-62 -17.5t-59.5 0t-41.5 32.5q-10 23 -2 47zM113 459q2 8 16 18q4 0 10 6l11 6l16 13l16 14q10 8 24.5 4t20.5 -10q4 -4 10.5 -12.5t-1.5 -16.5l-21 -16l-18 -14q-14 -10 -29 -16.5t-33 -2.5q-8 2 -15 9.5t-7 17.5z" />
<glyph unicode="j" horiz-adv-x="206" d="M-723 -567q12 70 55 125q37 55 90 96t115 67.5t127 47.5q16 4 32.5 8t33.5 8q2 2 6 2q4 8 8 15.5t8 15.5q70 131 138.5 265t144.5 265q4 10 18.5 8t22.5 -6q10 -4 15 -12t-1 -19q-35 -61 -67.5 -122.5t-65.5 -120.5q-35 -68 -69.5 -134.5t-69.5 -134.5q6 0 8 3 q180 43 369 79q90 16 178 30.5t178 25.5q90 10 179 16t181 10q68 4 135 4q135 0 269 -16q45 -6 90 -12.5t88 -20.5q23 -6 48.5 -16t46 -26.5t30.5 -38t4 -48.5q-4 -12 -16.5 -14t-26.5 2t-23.5 13t-7.5 22q2 10 0 22q0 4 -2 6v2h-2q0 2 -4 5.5t0 1.5l-2 2h-2q-12 8 -18 10 q-2 2 -7 2q0 2 -2 2q-4 2 -5 2t-5 2t-10 3t-10 3t-8.5 2t-8.5 2q-55 10 -101 17.5t-101 11.5q-98 8 -196 9h-29q-84 0 -171 -5q-43 -4 -86 -7t-86 -7q-47 -4 -91 -9.5t-89 -11.5q-182 -25 -361.5 -61.5t-359.5 -79.5q-2 -2 -6 -2q-14 -29 -28.5 -56.5t-30.5 -56.5 q-29 -49 -57.5 -98t-61.5 -96q-29 -41 -62.5 -75t-81.5 -52q-31 -12 -64 -12h-9q-39 2 -70 24q-27 20 -37 50t-6 63zM-657 -608q0 -10 2 -15q0 -2 2 -4q0 -2 2 -4q2 -4 2 -6t2 -6h2q0 -2 2 -4l4 -4l2 -2q2 0 4 -2t6 -2l2 -2h4h3h8h4q2 2 6 2q6 0 14 4q4 2 7.5 2t7.5 4 q10 4 19 10t15 12q2 2 3.5 2t3.5 2h2v3q16 12 28.5 26t24.5 31q33 41 61.5 87t55.5 93q16 27 29.5 52.5t27.5 52.5q-4 0 -6 -3q-61 -18 -121 -47q-59 -29 -107.5 -67.5t-82.5 -95.5q-14 -25 -27.5 -58t-11.5 -61zM64.5 436q-5.5 8 1.5 19q6 10 15 16t19 12q4 4 10.5 7.5 t10.5 7.5q6 2 6 6q8 8 20.5 10t24.5 -6q8 -4 16.5 -12.5t-0.5 -18.5q-8 -8 -17 -14t-19 -14q-4 -4 -10.5 -7.5t-10.5 -7.5l-4 -4q-2 0 -6 -4q-6 -8 -17.5 -8t-22.5 5t-16.5 13z" />
<glyph unicode="k" horiz-adv-x="649" d="M-164 -29q6 18 14.5 35t18.5 33q66 135 138.5 263t158.5 251q25 35 51.5 69.5t54.5 69.5q23 29 45.5 54.5t44.5 52.5l68 71q10 8 18.5 16.5t18.5 14.5t25.5 7t25.5 -9q4 -4 8 -12t-6 -15q-2 0 -4 -1t-6 -1h-2v-2l-6 -4q-8 -8 -15.5 -14t-13.5 -14l-55 -62 q-41 -47 -80 -93t-74 -95q-55 -76 -105 -155t-98 -161q16 16 33 31.5t35 28.5q25 18 51.5 29.5t55.5 11.5q29 -2 57.5 -19.5t21.5 -50.5q-2 -12 -8 -23.5t-14 -21.5l-39 -43q-23 -18 -45.5 -32.5t-48.5 -28.5q-25 -14 -51.5 -26.5t-55.5 -16.5q4 -12 6 -23.5t7 -22.5 q20 -41 64 -41q6 0 13 1q41 4 79 19t75 32q27 12 51.5 26.5t48.5 28.5q68 41 132.5 88t121.5 100q8 10 20.5 9t22.5 -9q6 -4 14.5 -12t-1.5 -18q-63 -59 -133 -109.5t-146 -95.5q-25 -16 -50.5 -28.5t-53.5 -24.5q-37 -16 -77 -31.5t-81 -22.5q-13 -2 -27 -2q-22 1 -44 5 q-36 6 -62 34q-8 8 -15.5 21.5t-11.5 23.5l-12 43q-8 -8 -12 -14q-31 -33 -52 -70q-8 -16 -16 -32.5t-16 -32.5q-4 -10 -15.5 -12t-21.5 2q-8 4 -18.5 12t-6.5 18zM47 158l14 4q37 16 64 33q10 6 21.5 11t21.5 13l20 14l9 9l10 8q10 10 19.5 20.5t17.5 20.5l6 10q2 2 3 15.5 t-22 9.5q-25 0 -53 -29q-12 -12 -20 -18.5t-19 -16.5q-34 -35 -65 -72q-6 -8 -12.5 -15t-14.5 -17z" />
<glyph unicode="l" horiz-adv-x="399" d="M-119 41v8q2 8 2 13.5t2 13.5q6 35 19.5 70.5t27.5 68.5q37 82 85.5 163t97.5 152q43 59 92 123t100 117l35 35q10 14 25 26q29 25 63 52l19 14l8 4q4 4 14 8t8 4q16 4 31.5 -5t26.5 -19q10 -16 1.5 -39t-18.5 -39v-2q-16 -31 -29.5 -50.5t-27.5 -41.5l-12 -19 q-43 -59 -91.5 -119.5t-99.5 -113.5q-31 -33 -76 -74t-80 -72l-18 -16q-16 -14 -34.5 -29.5t-35.5 -25.5v2l-26 -57q-16 -35 -29.5 -70t-17.5 -72q-2 -8 -2 -20v-8q-2 -8 17 -5.5t36 11.5q14 4 20 8t17 8q55 29 92 53.5t78 53.5q12 8 24.5 17t26.5 19q29 20 55.5 43t52.5 45 q18 16 38 32t38 32q12 8 34 -5t11 -28q-16 -14 -33.5 -29.5t-33.5 -27.5l-37 -29q-10 -10 -22.5 -18t-22.5 -19l-31 -22q-39 -29 -79 -57.5t-83 -57.5l-20 -12q-18 -10 -37 -21.5t-47 -21.5q-27 -10 -65 -18q-12 -3 -23 -3q-25 0 -49 13q-8 6 -13.5 23.5t-3.5 33.5zM92 385 l4 2q33 29 67 61.5t64 67.5q61 70 101.5 121t81.5 113l18 24q10 12 22.5 31.5t20.5 34.5l4 8h-2l-22 -19q-49 -41 -94.5 -91t-84.5 -99q-49 -61 -94 -124.5t-86 -129.5z" />
<glyph unicode="m" horiz-adv-x="784" d="M-143 6q41 102 99 196.5t118 186.5q4 6 13 6t13 -2q27 -6 27 -37q0 -12 -12 -12q-6 -4 -15.5 -18.5t-19.5 -30.5t-19.5 -30.5t-11.5 -20.5q18 18 41 35q43 37 86 59q12 6 31.5 0t21.5 -23q4 -33 -7 -61.5t-25 -56.5q14 18 29.5 36.5t31.5 34.5q14 18 32.5 38t39 35 t44 24.5t50.5 7.5q10 -2 21.5 -8.5t13.5 -16.5q0 -25 -10.5 -48.5t-20.5 -45.5q-16 -29 -30.5 -58.5t-28.5 -58.5q-4 -10 -9.5 -21.5t-9.5 -21.5l-6 -20q0 -2 -1 -4t-1 -4t-1 -5.5t1 0.5v-6q14 0 27.5 5.5t27.5 11.5q23 10 44.5 21t43.5 24q51 29 100.5 59.5t96.5 65.5 l80 55l51 35q20 16 38.5 -0.5t6.5 -32.5q-2 -2 -5 -4t-9 -8l-17 -13q-12 -10 -24 -17t-23 -17l-127 -86q-47 -29 -95 -58.5t-101 -52.5q-18 -10 -41 -17.5t-45 -11.5q-23 -4 -43.5 -2t-36.5 23q-12 14 -11 33.5t7 35.5q6 23 17 45.5t22 45.5l24 46t23 48q4 14 5 15t-1 -1 q-4 -4 -2 -1t-2 -1l-4 -4q-4 -2 -5.5 -4t-3.5 -4l-18 -17l-37 -43q-37 -43 -72.5 -87t-80.5 -79q-12 -10 -33 -1.5t-23 24.5q-1 8 -1 16q-1 26 9 48q12 30 29 59q6 12 13.5 25.5t11.5 25.5q-29 -23 -54.5 -47.5t-50.5 -50.5q-39 -41 -73.5 -86t-63.5 -94q-4 -6 -15.5 -7.5 t-22.5 3t-18 11.5t-3 17z" />
<glyph unicode="n" horiz-adv-x="591" d="M-160 2q29 66 63 123t72 113q14 20 23.5 41.5t26.5 44.5q10 18 24 39.5t39 21.5q10 0 21.5 -4t15.5 -14t-1 -16.5t-15 -6.5q2 0 -7 -4l-12 -16l-18 -39l-17 -37q35 35 76 64.5t88 43.5q10 4 26.5 -2t20.5 -20q2 -29 -8 -54.5t-22 -50.5q-14 -27 -30 -51t-26 -53 q-6 -14 -10 -25.5t-6 -27.5q-4 -16 2 -31q8 2 14 4t15 6l38 21l91 53q47 31 93 60.5t93 64.5l76 55q10 10 26 21l11 6q4 2 6 4t-2 -2q14 14 37 2q8 -2 15 -11.5t-1 -17.5q-35 -31 -71 -57.5t-75 -54.5q-88 -61 -192 -125q-23 -12 -42 -23.5t-42 -21.5q-37 -20 -74 -27 q-8 -1 -15 -1q-36 0 -58 34q-14 25 -9.5 51.5t15.5 50.5q10 29 26.5 54.5t32.5 54.5q6 12 13.5 24.5t11.5 28.5q-41 -23 -76 -55.5t-66 -65.5q-41 -45 -77.5 -93t-77.5 -95q-2 0 -6 -4q-6 -10 -17.5 -8.5t-21.5 6.5q-6 2 -13.5 8t-3.5 14z" />
<glyph unicode="o" d="M-128 70.5q1 13.5 5 25.5q10 41 29.5 77t42.5 69q27 35 57.5 63.5t67.5 50.5q10 4 21 2t20 -8q12 -10 8 -22.5t-19 -12.5q-49 -41 -94 -98q-23 -29 -40 -60.5t-27 -66.5q-2 -6 -4 -13t-2 -16v-2v-6v-8q0 -8 6 -9t10 -1t5 1t5 1q2 0 6 3t0 -1l11 6q25 12 43 28.5t38 37.5 q16 20 34 39.5t34 42.5q4 6 8 11t8 9l-6 6q-16 18 -16 51q0 10 1 20.5t5 20.5q10 31 37 47q20 10 41.5 5t34.5 -23q16 -23 13 -46.5t-13 -45.5v-2h4q37 8 72.5 19t70.5 26l62 28q14 8 27.5 14.5t25.5 16.5q6 4 17 3t20.5 -7t11.5 -13t-6 -16q-29 -23 -60.5 -39t-66.5 -30 t-70 -25.5t-71 -19.5q-14 -2 -33 -5t-37 -5q-8 -10 -15.5 -21.5t-17.5 -21.5q-31 -41 -63 -76q-20 -23 -43 -42.5t-52 -29.5q-27 -10 -55.5 -14t-54.5 12q-27 16 -33 45q-4 12 -3 25.5zM186 328h2h-2z" />
<glyph unicode="p" horiz-adv-x="663" d="M-384 -549.5q1 29.5 7 57.5q14 63 47 130q14 31 31.5 60.5t34.5 57.5q25 39 49.5 77t50.5 77l72 106l4 13q16 41 32.5 83t32.5 83q14 35 26.5 72.5t19.5 74.5q-4 2 -9 10q-6 4 0 10l4 5v-2q2 4 11 8q2 0 4 1t4 1q12 2 29 -4q4 -2 9 -7.5t5 -11.5q-2 -35 -9.5 -66.5 t-17.5 -64.5q14 16 28.5 30.5t31.5 29.5q23 20 48 37.5t54 27.5q25 8 54.5 11t54.5 -7q18 -8 33.5 -21.5t15.5 -35.5q0 -18 -7.5 -35.5t-17.5 -34.5q-23 -41 -54.5 -79t-64.5 -72q-14 -16 -29.5 -31.5t-31.5 -32.5q20 4 29 8q16 4 32.5 10.5t32.5 12.5q4 2 6 2q4 4 8 4l17 8 l33 17q57 29 110 63.5t107 75.5q25 14 47 35l22 18l17 12q31 25 59 54q8 8 18.5 7t20.5 -5q6 -4 13.5 -12.5t-1.5 -16.5q-47 -47 -97 -87t-103 -79q-53 -37 -108.5 -70.5t-115.5 -58.5q-51 -23 -107 -38q-34 -9 -67 -9l-45 4q-10 2 -19 6t-14 15q-6 12 7 20q2 0 6 4l2 2l2 2 l18 17l47 45q29 29 54.5 57.5t50.5 61.5l26 36l13 21q0 2 1 2t1 2l4 8q8 20 10 31q2 2 2 8v2v4q0 4 -6 4h-4h-6q-6 0 -8 -2h-2q-8 0 -13 -2q-4 0 -12 -4q-4 0 -6 -2q-14 -6 -26.5 -12t-22.5 -17q-14 -10 -23.5 -16t-19.5 -18q-23 -18 -41 -41q-16 -20 -32.5 -40t-31.5 -42 q-8 -10 -15 -21.5t-13 -21.5l-37 -56l-29 -43q-31 -80 -62.5 -158.5t-60.5 -156.5q-16 -39 -29.5 -77t-31.5 -75q-16 -35 -38 -67.5t-50 -59.5q-12 -12 -32 -8t-28 21q-12 29 -11 58.5zM-315 -528q29 45 47 94t37 96l22 55q-25 -41 -45 -77q-16 -33 -30.5 -66t-24.5 -68 q-2 -8 -3 -16t-3 -18z" />
<glyph unicode="q" horiz-adv-x="382" d="M-209 -670q10 98 46 190.5t77 184.5q72 172 170 342l4 4q-2 0 -2 -1t-2 -1q-18 -18 -38.5 -35.5t-43.5 -33.5q-23 -14 -44 -20.5t-48 -0.5q-23 6 -40 21.5t-22 39.5q-2 20 4.5 42t14.5 40q10 25 23.5 48.5t29.5 46.5q23 35 49.5 68.5t59.5 62.5q20 16 42.5 31.5 t51.5 13.5q14 -2 28.5 -9.5t18.5 -23.5q6 -12 2 -29q0 -14 -10 -28q-6 -12 -25.5 -9.5t-19.5 17.5v28v5h-2l-29 -21q0 -2 -2 -2t-2 -2q-6 -2 -8 -8l-13 -12q-4 -4 -8 -8.5t-8 -8.5l-37 -47q-16 -20 -30.5 -41.5t-26.5 -44.5l-12 -20l-11 -21q-4 -10 -7 -21.5t-7 -21.5 q-2 -4 -2 -12q-2 -2 -2 -4v-17q2 -2 3 -5t-1 1q0 -4 10 -8h2q16 0 32.5 13.5t27.5 23.5q-2 -2 1 0t3 4q2 0 6 4l8 8q12 8 21 21q23 20 43 42.5t40 45.5l66 74q16 18 31.5 33.5t32.5 31.5q10 16 20 26.5t27 14.5q18 6 36 -8q4 -4 8.5 -11.5t-1.5 -13.5q-8 -10 -16.5 -18 t-18.5 -19l-12 -20l-50 -80l-96 -162q-25 -41 -47.5 -83t-44.5 -85q-27 -55 -51 -114q6 10 13 18t13 18q23 31 47 52q12 12 26.5 23t31.5 18q10 2 29.5 -6.5t7.5 -22.5q-8 -10 -17.5 -18.5t-19.5 -18.5q-20 -18 -39 -39q-47 -57 -84 -121.5t-70 -130.5q-14 -31 -27.5 -61.5 t-25.5 -61.5q-4 -10 -8 -21l-8 -22q-2 -4 -3 -10t-3 -10l-3 -2q-2 -10 -15 -11t-21 1q-14 4 -21 16q-2 4 -2 12z" />
<glyph unicode="r" horiz-adv-x="399" d="M-154 12l25 37q14 23 23.5 36t15.5 22.5t11 18.5t11 21l13 25l43 78q10 27 24.5 53.5t30.5 38.5q8 4 18.5 2t20.5 -6q0 -2 2 -2l4 -2q6 -2 2 -15.5t-12 -30t-18.5 -34.5t-16.5 -29q41 29 85 57.5t93 55.5l12 6l19 8q23 10 44 16.5t44 10.5h2q6 0 14 2h18.5t12.5 -2 q14 -4 27.5 -13.5t9.5 -29.5q-6 -12 -24.5 -10t-30.5 6q-4 0 -10.5 -1t-22.5 -5q-2 0 -6 -2l-19 -7q-35 -16 -61 -30l-21 -11l-39 -22l-22 -14l-49 -29l-37 -29l-51 -49l-47 -43l-47 -53q-8 -14 -13.5 -21.5t-15.5 -23.5q-4 -8 -6 -10q-4 -6 -17.5 -4t-19.5 4q-8 4 -15.5 14 t-3.5 16z" />
<glyph unicode="s" horiz-adv-x="487" d="M-262 96q-4 6 2 10.5t10 6.5q12 4 28.5 0t20.5 -17q4 -4 5 -6t6 -6q8 -8 12 -14l4 -4l2 -3l8 -6l23 -16l8 -4q6 -4 18 -8l4 -2h2l9 -4l12 -3q16 59 30.5 114.5t39.5 111.5q25 53 63.5 99t97.5 67q14 4 29.5 -2.5t22.5 -18.5q8 -16 -15 -24h2l-8 -5q-2 0 -4 -2t2 2l-14 -6 l-25 -16q-2 -2 -6 -5t-12 -11l-19 -21l-30 -45l-7 -12l-6 -13l-12 -26l-21 -57q-10 -29 -18 -59t-16 -58q-2 -4 -2 -7t-2 -8q29 0 57.5 8.5t56.5 18.5q29 10 38 13t16 8q33 16 48 26t44 27q33 20 60.5 40.5t57.5 43.5l68 53q18 14 37.5 32.5t40.5 33.5q10 6 20.5 3.5 t20.5 -8.5q12 -10 4 -24q-10 -12 -20.5 -21.5t-24.5 -21.5q-10 -10 -21.5 -19.5t-23.5 -19.5q-25 -18 -40 -31.5t-42 -32.5q-37 -27 -76 -51t-80 -47q-55 -29 -98 -46t-105 -28q-12 -2 -25 -3t-26 -1l-6 -18q-2 -10 -14 -23q-4 -6 -15 -6q-10 -4 -21 -1t-22 7q-18 10 -36 33 l-45 41q-10 12 -20.5 23.5t-20.5 23.5q-4 4 -9.5 10.5t-9.5 10.5q-6 6 -10 18q-2 2 -2 6z" />
<glyph unicode="t" horiz-adv-x="567" d="M-975 563q-2 4 1 8t7 9q4 4 19 4h-4h2h6q49 2 98 2h101h30.5h67.5t141 1t252 3h350h40t40 2q4 10 10.5 19.5t12.5 19.5q4 8 8 15t8 16l12 22q10 16 20.5 33.5t20.5 34.5l49 73l29 37l14 17q6 10 25 12q20 0 31 -12q8 -8 2 -23q-29 -35 -51.5 -71.5t-44.5 -71.5 q-4 -10 -11.5 -18.5t-11.5 -16.5l-12 -25q-16 -33 -33 -57q0 -2 -2 -4q33 0 65.5 -1t67.5 -1h81t81 -4q10 -2 20.5 -7.5t14.5 -15.5q8 -20 -15 -24q-27 -4 -51 -12.5t-53 -12.5q-12 -2 -24.5 1t-20.5 13q-6 6 -6 15h-13h-176q-29 -51 -57.5 -102.5t-56.5 -102.5 q-33 -63 -65 -127t-54 -131q-4 -14 -8.5 -28.5t-6.5 -31.5v-2q0 -29 20.5 -24.5t37.5 8.5q23 6 44 14.5t46 20.5q125 59 243.5 136t227.5 163q10 8 24.5 4t22.5 -10q6 -4 11 -13.5t-3 -15.5q-33 -29 -72.5 -55.5t-74.5 -52.5q-37 -27 -74 -50.5t-78 -48.5 q-55 -35 -111.5 -65.5t-115.5 -55.5q-41 -16 -88 -26q-15 -3 -29 -3q-31 0 -59 15q-39 20 -41 59q-2 23 5 46.5t15 46.5q23 68 55.5 131t67.5 127q23 45 47.5 88t50.5 86h-38h-177.5t-175.5 -2q-86 0 -169 -1t-169 -1q-63 0 -125.5 -1t-128.5 -1h-63h-8q-18 -2 -40 1t-28 25 z" />
<glyph unicode="u" horiz-adv-x="688" d="M-135 29q-4 20 2 41.5t14 38.5q25 53 58 100q16 23 31.5 46.5t31.5 45.5q8 10 14.5 18.5t12.5 18.5l12 14q0 2 4 6q6 10 18.5 11.5t18.5 -0.5q10 -2 17 -5.5t12 -11.5q6 -10 -7 -18q0 -2 -2 -2l-4 -4l-6 -11l-18 -24q-10 -16 -22.5 -31.5t-22.5 -32.5l-49 -71 q-2 -2 -8.5 -14.5t-10.5 -20.5l-18 -33q-8 -18 -15 -41q0 -4 -1 -7t-1 -7q0 -6 2 -8q0 -4 11 -2q2 2 5 3t-1 -1q2 0 4 2l35 20l36 25l19 16l2 2l4 4l10 8q41 35 80 73t78 75l31.5 31.5t31.5 29.5q25 25 48 39q8 4 19 3t20.5 -5t14.5 -12t-1 -19q0 -2 2 1.5t-2 -3.5 q0 -4 -4 -8l-6 -6q-2 -2 -3.5 -2t3.5 4l-13 -12q-8 -8 -14 -16.5t-12 -18.5q-31 -39 -54 -88q-4 -12 -9 -25.5t-9 -25.5l-6 -31v-2v-8q0 -34 25 -34q7 0 16 3l14 4q18 4 31.5 10.5t30.5 14.5q66 33 116 69q61 43 117.5 88.5t110.5 98.5q10 10 22.5 9t22.5 -7q6 -4 15 -13.5 t-1 -17.5l-16 -16q-111 -104 -230 -185q-29 -20 -58.5 -37.5t-60.5 -31.5q-31 -13 -65 -25q-26 -9 -52 -9q-9 0 -18 1q-31 2 -54.5 20.5t-29.5 49.5q-4 20 0 39.5t11 40.5q-10 -10 -19.5 -17.5t-19.5 -17.5q-20 -18 -40 -37t-42 -35q-16 -12 -35 -24.5t-37 -22.5 q-16 -10 -34.5 -16.5t-39.5 -2.5q-23 4 -41 16.5t-22 35.5zM-59 27h2h-2z" />
<glyph unicode="v" horiz-adv-x="544" d="M-86 -2q4 47 17.5 91t31.5 85q10 23 18.5 42.5t16.5 41.5l18 45q4 10 7.5 20.5t9.5 20.5q4 6 14 7t20.5 -2t16.5 -10t4 -15q-4 -23 -10 -43q-4 -10 -8 -20.5t-9 -20.5q-8 -23 -16 -42.5t-18 -39.5q-20 -51 -35 -95q51 35 94 70q29 23 54.5 47.5t52.5 48.5q10 10 19 18.5 t19 18.5q-10 27 -6 49q4 25 17.5 46.5t29.5 39.5q16 16 37 29.5t47 18.5q10 0 25.5 -6.5t15.5 -20.5v-13.5t-2 -13.5q-6 -31 -23.5 -59.5t-37.5 -50.5q-4 -6 -10.5 -11.5t-10.5 -11.5h17.5t17.5 2q37 4 74 13.5t74 25.5q29 10 57 27q23 14 36 20t9 2q6 4 16.5 2t18.5 -7 t11 -12t-5 -13q-6 -8 -15.5 -14.5t-19.5 -10.5l-49 -25q-35 -14 -68.5 -25t-68.5 -20q-20 -4 -40 -6t-40 -2q-35 0 -59 8q-10 -10 -20.5 -19t-20.5 -20q-29 -27 -58.5 -53t-60.5 -49q-35 -29 -73 -56.5t-75 -56.5q-8 -4 -19 -3t-20 5q-6 4 -12 9.5t-6 13.5z" />
<glyph unicode="w" horiz-adv-x="823" d="M-98 49.5q2 22.5 8 44.5q6 27 14 51.5t21 51.5q12 25 25.5 51t29.5 49q20 33 47 59q10 10 29 6q10 0 23.5 -12t2.5 -22q-14 -16 -26.5 -32.5t-24.5 -33.5q-14 -25 -25.5 -46t-21.5 -46q-10 -23 -18.5 -47.5t-14.5 -50.5q-4 -16 -4 -23q-2 -2 -2 -6v-2q35 20 60 43l90 80 q25 23 49 44t47 44q6 8 13 14t14 15l4 4q8 14 23.5 33.5t27.5 23.5q6 4 17.5 3t20.5 -6t15 -13.5t0 -16.5q-12 -16 -25.5 -31.5t-27.5 -31.5l-8 -15l-6 -6q2 2 -0.5 -2t-4.5 -4l-6 -18q-10 -20 -18 -39t-14 -41q-4 -12 -9 -35q0 -4 -1 -8t-1 -8v-4v-9q0 -10 2 -16 q41 0 75 26.5t89 86.5q43 45 76 90q-2 4 -6 16q-6 23 2 47.5t22 42.5q16 23 38 38t50 15q10 2 22.5 -3t18.5 -15q4 -10 1 -21.5t-7 -21.5q-8 -16 -16 -30.5t-19 -30.5q-6 -10 -12 -19.5t-14 -19.5q4 -2 14 -2h8q2 0 4 -2q6 2 17 2q20 2 33.5 4t35.5 8l35 12l17 6q14 6 18 6 q33 16 60.5 31t58.5 31q10 6 22.5 4t22.5 -10q4 -6 6 -14.5t-4 -12.5q-37 -29 -78 -47q-25 -12 -49.5 -22.5t-48.5 -18.5q-37 -11 -74 -19q-22 -4 -46 -5q-16 0 -32 2q-10 2 -23.5 4t-23.5 6q-14 -16 -27.5 -32.5t-27.5 -33.5q-33 -35 -68 -66.5t-75 -56.5q-14 -10 -33 -16 t-37 -6q-20 -4 -42 3t-36 23q-14 18 -15 39t3 43q4 20 8 31l-4 -4q-23 -18 -46.5 -39.5t-45.5 -40.5q-57 -51 -117 -67q-16 -4 -31.5 2t-19.5 20q-6 23 -4 45.5zM535 340q2 2 2 4z" />
<glyph unicode="x" horiz-adv-x="671" d="M-211 -6q-2 6 3 11t11 7q4 0 5.5 1t5.5 1t4 2h2q2 0 4 2q8 4 15 8.5t14 8.5q39 23 69 45q35 23 68 48.5t65 49.5l-22 76v6q-2 2 -2 6l-4 13l-9 26q2 -4 1 -1t-1 5q-2 0 -2 4l-4 9q0 4 -1 6t-1 6q-2 6 -1 2t-1 0q-4 10 2 16t17 6q25 4 39 -18q10 -20 17 -42t15 -44l11 -35 q37 29 72.5 56.5t72.5 54.5q14 10 29.5 20t31.5 21q16 10 36 16t38 -2q6 -4 12.5 -7t10.5 -7q8 -16 -4 -25q-4 -2 -13 -2q-4 -2 -7 -3t-7 -3q10 4 4 2t-8 -4l-12 -6q-16 -10 -31 -20.5t-31 -20.5q-41 -29 -80 -59.5t-80 -61.5q-4 -4 -7 -6t-7 -6l2 -11l10 -26q10 -31 21 -51 q4 -8 8 -13q0 -2 1 -2t1 -2q4 -6 12 -14q-2 2 2 -1t7 -7q4 -2 8 -3t-6 3q8 -4 10 -4q14 -4 42.5 2t47.5 12l14 6h4l4 4q8 4 16.5 7t16.5 7q39 20 82 50q29 18 55.5 37.5t53.5 42.5l61 51l37 32q10 8 19.5 16.5t19.5 16.5q6 4 18.5 3t22.5 -6t14 -13t-2 -19 q-10 -12 -22.5 -23t-24.5 -22l-47 -39q-20 -18 -39.5 -34.5t-42.5 -32.5q-41 -31 -84 -58.5t-90 -50.5q-49 -23 -103 -35q-20 -4 -40 -4q-34 0 -66 13q-27 10 -44 31.5t-30 43.5l-22 52q-27 -20 -53.5 -40t-55.5 -40q-16 -12 -34.5 -23.5t-36.5 -21.5t-35 -17q-29 -12 -54 0 q-6 4 -12 8.5t-6 12.5zM184 37q2 0 2 -2zM191 31q0 2 4 -2q-4 0 -4 2zM403 377l3 -2q-2 0 -3 2z" />
<glyph unicode="y" horiz-adv-x="473" d="M-492 -616q4 35 20.5 66.5t35.5 60.5q37 51 92 96q53 41 115.5 68.5t128.5 48.5q16 4 33.5 9t35.5 9l25 49l2 2q18 43 39.5 85t44.5 83q10 23 19.5 42.5t19.5 41.5q-16 -12 -33.5 -24.5t-36.5 -22.5q-18 -10 -39.5 -17.5t-44.5 -3.5q-53 12 -63 66q-2 12 -2 24 q0 28 10 54q20 45 45 90q12 23 25.5 46.5t27.5 47.5q2 6 10 19l2 4q0 2 5 6q2 4 4 9t4 9q2 10 14 12.5t25.5 -1t21.5 -12.5t6 -19q-4 -8 -7 -15.5t-7 -13.5q-8 -14 -16.5 -28.5t-16.5 -28.5q-16 -29 -32.5 -58.5t-32.5 -64.5q-4 -10 -7.5 -19.5t-7.5 -19.5q-4 -8 -4 -14v-2 v-5q0 -20 2 -30q10 -2 23 2q23 6 51 35q10 8 19.5 17t19.5 19q23 23 42 44.5t40 44.5q16 20 32.5 38.5t32.5 36.5q16 16 32 32.5t32 33.5q10 14 20.5 25.5t26.5 15.5q23 4 37 -8q6 -4 10 -12.5t-2 -14.5q-10 -10 -18.5 -17.5t-18.5 -17.5q-4 -10 -8 -14q-10 -18 -21.5 -35.5 t-21.5 -36.5q-23 -35 -43 -71.5t-43 -71.5q-4 -4 -5 -8t-5 -9q-29 -59 -58.5 -120.5t-60.5 -120.5q-6 -14 -13.5 -27.5t-15.5 -28.5q96 23 189.5 44.5t189.5 39.5q90 16 178 32t181 28q180 20 362 31q75 5 150 5q25 0 51 -1q100 -2 203 -15q45 -4 90 -10t88 -20 q20 -6 44.5 -16.5t45 -26t31 -37t2.5 -47.5q-4 -12 -16.5 -14.5t-26 1.5t-22.5 12.5t-5 20.5q2 10 0 23q0 2 -1 3t-1 3l-8 8q0 2 -2 2h-2q-10 6 -18.5 10t-18.5 8l-21 7q-2 2 -11 3t-9 3h-2q-98 18 -197 24q-97 7 -195.5 7t-197.5 -7q-43 -4 -87 -7t-87 -7q-45 -4 -89 -10 t-91 -13q-180 -27 -361.5 -64.5t-361.5 -82.5q-2 -2 -6 -2q-29 -55 -64 -115q-29 -49 -57.5 -98t-63.5 -96q-31 -41 -65.5 -76t-81.5 -53q-32 -13 -66 -13h-7q-38 2 -69 25q-27 18 -37 48t-4 63zM-428 -655q0 -4 1 -7.5t1 -7.5t2 -4v-4q2 -2 4 -9t6 -7q0 -2 2 -2l2 -2 q0 -2 2 -2l2 -2h3q0 -2 2 -3h2q2 0 2 -2h4h4h6h6l2 2h2q4 0 17 5q8 2 12 6q10 4 19.5 10t19.5 12q2 2 4 3t4 3q25 23 53 58q35 43 63.5 89t57.5 93q14 27 28.5 52.5t28.5 51.5q-2 0 -4 -2q-70 -18 -123 -47q-59 -29 -109 -68.5t-85 -97.5q-14 -25 -28.5 -57.5t-12.5 -60.5z " />
<glyph unicode="z" horiz-adv-x="688" d="M-139 31q-2 4 0 8q23 41 61 43h10q33 0 64 -12l4 4l6 6l21 18q20 18 39 39q16 18 31.5 32.5t35.5 33.5q23 23 46.5 43t47.5 43q6 4 11.5 7t9.5 7h-16.5t-18.5 2q-25 0 -47.5 2t-44.5 10q-4 2 -6 2t-6 3q-14 -6 -27 -19q-8 -6 -25 -10q-6 -2 -12 -2h-6q-6 4 -12 10 q-12 12 0 29q2 4 8 10l10 10q6 6 11 14.5t12 12.5q8 10 25.5 6t27.5 -16q6 -6 7 -8.5t9 -6.5h2l45 -6h6h3h4h22q27 -2 51.5 -1t48.5 5q6 2 14.5 3t14.5 3q4 4 10.5 4t12.5 5q29 4 43 -17q14 -14 -3.5 -23.5t-29.5 -9.5q-53 -16 -99 -57t-94 -80q-33 -33 -64.5 -66.5 t-66.5 -64.5l9 -4l12 -6q2 -2 4 -2h2q0 -2 2 -2h4q31 -10 64 -10h12h12q47 0 93 14t96 39q66 29 131 73t125 97q16 14 29.5 27.5t29.5 25.5q4 4 8 9t10 9q7 7 21 7q14 -2 29.5 -9.5t3.5 -23.5q-23 -33 -54 -60q-68 -59 -144.5 -110t-162.5 -92q-37 -16 -78 -28.5t-88 -16.5 q-25 -4 -51 -4q-17 0 -35 2q-31 4 -61.5 12t-59.5 24q-14 -10 -27 -16t-30 -8q-13 -3 -25 -3q-41 0 -73 32zM-66 35l9 2q-6 -4 -3 -2t5 2l6 4h-2q-2 0 -3 -1t-3 -1q4 2 2 1t-4 -1l-4 -4h-3zM78 37q4 -2 6 -2h-2zM137 352h4h-2h-2zM141 352h2h-2z" />
<glyph unicode="{" horiz-adv-x="3309" d="M21.5 117.5q-3.5 11.5 9.5 17.5q2 0 2 2l2 2l6 8q8 8 14 11q4 4 11.5 7t13.5 7q23 10 43 16.5t43 12.5q66 16 133.5 28.5t134.5 22.5q203 29 404.5 47t406.5 35q258 20 514 38.5t514 33.5q133 6 263 11t262 9q53 2 107 2h108q41 -2 83 -3t82 -5h3q14 2 30 -4 q10 -4 24.5 -12.5t10.5 -22.5q-6 -18 -21.5 -23.5t-33.5 4.5q-4 2 -6 4.5t-7 6.5q-72 6 -145.5 7t-146.5 -1q-100 -2 -198.5 -6t-199.5 -8q-276 -10 -549.5 -31t-552.5 -39q-201 -16 -399.5 -32.5t-398.5 -43.5q-88 -10 -171 -22.5t-169 -30.5q-55 -12 -111 -31q-2 -2 -4 -2 l-2 -2l-8 -4l-12 -6q-2 0 -2 -1t-3 -1l-4 -4t-7 -10.5t-13 -10.5q-10 -6 -24.5 -4t-24.5 10q-8 6 -11.5 17.5zM133 133h4q-4 -2 -4 0z" />
<glyph unicode="|" horiz-adv-x="405" d="M-13 -250q-1 19 5 37q4 10 22 10q27 96 61 188.5t68 184.5q35 92 70 183t68 184q16 47 31.5 94t27.5 94q4 10 8 27v2q0 2 1 2t1 2l4 18l6 43q2 8 9.5 10t15.5 2q10 2 27 -6h-2q2 0 4 -2q18 -6 14 -24l-6 -51l-4 -13q0 -2 -4 -6q2 2 2 -2q0 -2 -2 -4q-4 -14 -7.5 -27.5 t-7.5 -25.5q-35 -115 -73 -221q-35 -92 -70 -182.5t-70 -182.5t-66.5 -183t-53.5 -188q-4 -10 -14.5 -12t-18.5 0q-16 0 -31 14q-14 16 -15 35zM412 825q2 0 2 -2z" />
<glyph unicode="}" horiz-adv-x="2023" d="M58.5 152.5q-3.5 11.5 9.5 17.5h4l2 8l6 6q8 8 20 15q27 14 52 20q35 14 72.5 22.5t76.5 16.5q123 23 246 38t248 30q133 14 263 24t263 21q94 8 186 13t187 9h125q33 -2 64.5 -4t64.5 -8q12 -4 26.5 -10.5t18.5 -18.5q6 -16 -5.5 -22t-21.5 -8q-25 -2 -51 12l-4 6 q-10 2 -33 2q-4 0 -9 1t-9 1h-11h-2h-4h-80q-96 0 -189 -5t-190 -13q-258 -18 -516 -43l-268 -31l-123 -16l-57 -11h-2h-2q-4 0 -6 -2q-8 0 -13 -2q-6 0 -12 -1t-14 -3l-86 -16t-84 -23q-6 -4 -13.5 -5t-13.5 -5h-4l-6 -4q-2 0 -10 -4l-9 -6q0 -2 -2 -2t-2 -1t-2 -1 q-2 -2 -4 -5.5t2 0.5q-4 -10 -18 -16q-25 -12 -49 6q-8 6 -11.5 17.5zM68 166l2 2zM72 170l2 2q-2 0 -2 -2zM140 150q-1 0 1 2h2q-2 -2 -3 -2zM170 166q-2 0 2 2h2q-2 -2 -4 -2z" />
<glyph unicode="~" horiz-adv-x="444" d="M59 465q-6 14 7 24q6 6 16 11q14 8 37 12q18 2 37.5 -3t33.5 -22h9h6q-6 0 -4 1t4 1q4 0 12 5q2 2 4 2q4 0 8 4q6 2 19 10q10 4 21.5 2t19.5 -8q16 -12 8 -27q-20 -29 -61 -36t-74 8q-8 4 -21 16h-2q-4 0 -12 -4q-4 0 -16 -8q-4 -2 -19 -2l-2 -2q-8 0 -17.5 4t-13.5 12z " />
<glyph unicode="&#xa1;" horiz-adv-x="272" d="M-63 -41q4 33 17 62.5t28 58.5q23 43 42 87t39 87q23 45 44.5 89t44.5 89q16 33 32.5 65.5t30.5 67.5q14 31 25 62q0 4 4 16v6v2v11v6q-6 14 3 20t21.5 6t24.5 -6t16 -16q10 -23 4 -47.5t-14 -44.5q-10 -31 -24.5 -61t-28.5 -58q-23 -45 -44.5 -89t-43.5 -89 q-23 -43 -44.5 -87t-41.5 -90q-18 -41 -40 -81.5t-28 -85.5q-2 -12 -17.5 -13.5t-23.5 0.5q-10 4 -19.5 12.5t-6.5 20.5zM307 850q-6 10 0 20q4 8 10 21q4 6 6.5 13t6.5 14q6 6 16 8t20.5 -1t19.5 -10.5t9 -15.5q0 -10 -3 -17.5t-7 -15.5q-4 -6 -8 -13t-8 -13 q-6 -10 -19.5 -10.5t-25 5t-17.5 15.5z" />
<glyph unicode="&#xa2;" horiz-adv-x="425" d="M-33 76.5q2 21.5 8 40.5q12 37 31 67q51 98 127 183q35 43 78 77q16 14 34.5 25.5t41.5 15.5q25 6 45 4q20 -4 28 -10q27 -10 23 -35q0 -18 -6 -35.5t-15 -33.5q-6 -12 -13 -25.5t-11 -27.5q-2 -10 -14.5 -11.5t-20.5 0.5q-10 4 -17 11.5t-5 17.5q2 16 9 30.5t13 28.5 q6 16 12.5 33t1.5 33q4 -4 9.5 -10t9.5 -11q-6 4 0 1t0 -1h-2h2h-6q-6 -2 -1 0t-1 0q-2 -2 -9 -2q-2 -2 -4 -2t-4 -2q-4 -2 0 1t0 -1h-2q-18 -10 -33 -20q-2 -2 -4 -3t-4 -3t-6 -5.5t0 1.5q-4 -4 -8 -7.5t-8 -7.5q-37 -35 -70 -76t-61 -81q-6 -12 -13.5 -23.5t-15.5 -22.5 q-8 -16 -12 -22q0 -2 -1 -3t-1 -3q-2 -4 -3 -5t-3 -5q-8 -14 -15.5 -30t-11.5 -32q-2 -6 -2 -12t-2 -12v-7v-10q0 -12 2 -18q0 -2 1 -3t1 -3q4 -4 0 1t0 1q0 -2 2 -2q2 -4 -2 1t-2 1q2 0 2 -2q-8 6 -6 5l6 -3q-10 4 -8 3t6 -1q-12 2 -9 1t7 -1q-10 2 -7 1t7 -1q2 0 3 1t3 1 q4 0 -1 -1t-1 1h2q4 2 9 2t9 2q2 2 4.5 2t4.5 2q2 0 3 1t-3 -1l4 2q10 4 19 9t20 9q20 12 39.5 25.5t39.5 28.5q31 23 61 45t58 45q8 6 20.5 4t22.5 -9.5t13.5 -16.5t-7.5 -17q4 4 3 3l-3 -3l-4 -4t2 2q-2 -2 -4 -3t-4 -3q-6 -4 -11 -9.5t-11 -9.5q-12 -10 -24.5 -20.5 t-27.5 -20.5q-37 -27 -75.5 -53.5t-79.5 -42.5q-20 -10 -41 -15t-41 -1q-25 4 -43.5 17t-24.5 36q-4 18 -2 39.5zM44 -45q1 2 3 4v2v2q0 16 6 30.5t13 29.5l30 79q18 49 38 98.5t40 98.5q20 47 38.5 92t41.5 92q10 16 17.5 32.5t17.5 33.5q6 10 12 17.5t16 15.5q6 4 16.5 3 t17.5 -6.5t10.5 -13.5t-5.5 -14l2 2l-2 -2q4 4 2 1t-4 -5l-6 -6q-8 -16 -12 -23q-2 -4 -1 -1t1 -1q-2 0 -2 -2q-4 -4 -4 -8q-2 -4 -4 -7t-4 -7q-4 -10 -8.5 -18.5t-8.5 -18.5q-23 -47 -42 -93.5t-40 -93.5q-20 -49 -38.5 -97t-39.5 -97q-8 -20 -14 -39t-14 -37 q-6 -14 -12.5 -29.5t-18.5 -25.5l6 6l-4 -6q-6 -12 -26.5 -6t-16.5 20q-2 -4 -1 -2z" />
<glyph unicode="&#xa3;" horiz-adv-x="892" d="M37 -47q-2 37 11 63.5t37 44t55.5 26.5t64.5 15l78 122t75 120q-23 -2 -42 -1t-42 1q-10 2 -20 2t-21 4q-6 4 -13 7t-13 12q4 -4 3 -3t-5 3l-2 2q-12 12 -2 20q6 6 12 6h-4q6 4 16 0h6h2q2 0 3.5 -1t3.5 -1h2q4 -2 12 -2q4 0 9 -1t9 -1h2h2h3h6h24.5t24.5 2q16 0 29.5 1 t27.5 3l76 125q18 31 36.5 62.5t39.5 60.5q20 31 42.5 59.5t45.5 57.5q29 35 57.5 67.5t63.5 61.5q14 10 27.5 21.5t29.5 17.5q18 8 39.5 9t38.5 -9q33 -19 39 -62q2 -25 -1 -51t-7 -49q-8 -33 -20.5 -63.5t-29.5 -59.5q-14 -29 -30.5 -56.5t-40.5 -49.5q-10 -8 -21.5 -7.5 t-21.5 5.5q-10 6 -17 16h-2q-2 2 -2 4v2q-2 4 -4 6t-2 6q0 14 11.5 17.5t21.5 3.5q12 16 21.5 31.5t17.5 31.5q14 27 25.5 53.5t19.5 55.5q8 27 10 45q0 10 2 14v4v2v2v21v16.5t-2 16.5v4l-2 -2l-12 -8l-15 -11l-6 -4l-4 -4q-33 -29 -62.5 -60.5t-58.5 -66.5 q-23 -29 -45 -58.5t-43 -60.5q-20 -29 -37.5 -58.5t-36.5 -57.5l-55 -95l70 7q16 2 29.5 3t27.5 1h8q12 0 25.5 -5.5t19.5 -15.5q8 -23 -14 -26q-27 -2 -51 -13q4 -16 -11.5 -17t-23.5 3h6h-2q-6 0 -8 2q-8 0 -16 8q-2 4 -7 8q-23 -4 -43 -5t-43 -3l-12 -20 q-35 -55 -68.5 -110.5t-68.5 -110.5h8h52.5t52.5 -3q25 0 49 -1t49 -1q10 -2 21.5 -2h21.5q14 0 20 -2h9h2h2q31 0 61.5 -1t61.5 3q4 0 8 2h2h4q2 2 4 2t4 3q2 2 2 4q-2 12 10.5 16t20.5 2q12 -2 23.5 -8t15.5 -21q2 -18 -12.5 -29.5t-34 -15.5t-40 -5t-32.5 -1 q-70 -2 -137.5 2t-132.5 6h-95q-14 0 -27.5 -1t-25.5 -3h-2q-16 -23 -34.5 -46t-41.5 -44q-23 -20 -50.5 -33.5t-59.5 -7.5q-10 2 -23.5 8.5t-13.5 20.5zM115 -8q2 0 2 2q2 0 6 4q2 4 4 5t6 5q6 8 19 21l-5 -2l-8 -7q-2 0 -2 -1t-2 -1l-14 -16q-2 -2 -5 -6t1 0zM203 369h2 q2 -2 2 -4zM711 102q2 2 4 2q-2 0 -4 -1t0 -1zM725 106q2 2 3 2t-1 -2h-2zM735 565q2 0 2 -2q0 2 1 3t1 3zM739 551l4 -4zM848 899q2 0 4 -2h-2q0 2 -2 2zM852 893l2 -2q0 2 -2 2z" />
<glyph unicode="&#xa8;" horiz-adv-x="387" d="M82 471q2 4 3 5t3 5q6 8 18 8q27 4 37 -18q4 -10 -2 -15t-14 -5q-10 0 -16 2q-12 4 -17 10l4 -4q10 2 22.5 4t24.5 4q0 -6 -4 -10l4 4q-4 -6 -12 -15q-4 -8 -13 -8t-18 2q-2 0 -2 1t-2 1q4 0 5 -1t6 -1h-5h-2q-10 0 -14 4q-6 0 -2 9v2q0 -4 2 -6l-4 4q-10 10 -2 18z M170 449.5q-6 7.5 0 15.5q2 4 6 8l-4 -4q2 2 3 4t3 4q-2 -2 -2 -4q0 2 1 3t1 3q4 8 14.5 8t18.5 -2q8 -4 18 -12q4 -4 4 -10q0 -11 -12 -23q-6 -10 -17 -8t-20 6q-8 4 -14 11.5z" />
<glyph unicode="&#xa9;" horiz-adv-x="665" d="M119 719q0 49 11 96t30 92q6 16 14 35t19 35q16 27 36.5 54.5t53.5 31.5q4 0 12 -3t8 -9q0 -13 -12 -21q-4 -4 -8 -1t-4 7q0 8 -7 15l13.5 -4.5l13.5 -4.5q-23 -16 -37 -41.5t-26 -50.5q-2 -4 -3 -4q0 -2 -2 -2q0 -2 -1 -3t-1 -3q-6 -10 -6 -16q-4 -10 -8 -17.5t-8 -17.5 q-6 -23 -12.5 -45.5t-10.5 -46.5q-6 -23 -9 -45.5t1 -44.5q0 -14 2 -25q0 -2 1 -3t1 -5q0 -2 2 -4q2 -4 0 -1t0 -1l6 -19q2 -4 7 -8q2 -4 -1.5 0t1.5 0l2 -4l8 -8q2 -4 -1 0t1 0l2 -2t6 -4.5t-4 0.5q6 0 10 -3q2 -2 4 -3t-4 3q2 -2 4 -2q2 -2 4 -2t6 -2q-8 4 -1.5 2t8.5 -2 h4q18 0 26 2q-6 -2 -1 -1t7 1q8 4 11 4q12 4 12 5q6 2 2 0q2 2 8 2q6 4 11.5 7t11.5 7q25 16 44 32.5t40 39.5q39 41 68.5 89t47.5 101q18 49 13 100q0 4 -1 7.5t-1 7.5v2q-2 2 -2 4q-4 4 -5 9t-6 9q4 -4 0 -1t-4 5t-4 5.5t2 -0.5q-4 4 -8 6l-3 3t5 -3q-2 0 -4 2q-4 2 -8 3 t4 -1q-4 0 -8 2h-4q8 -2 6 -1t-4 1q-8 0 -11 2h-6q-8 0 -12 -2h-10q-2 0 -3 -1t-3 -1q-10 0 -23 -4q-8 -4 -12 -4q-2 -2 -6 -2q-4 -4 0 -1t0 -1q-14 -4 -25.5 -10.5t-23.5 -14.5q-8 -6 -20.5 -3t-22.5 9q-16 16 -3 29q33 23 70 37t78 12q39 0 75 -16.5t52 -53.5 q23 -49 11.5 -104t-34.5 -103q-27 -53 -61.5 -101t-81.5 -87q-43 -37 -97.5 -58.5t-113.5 -4.5q-53 12 -78 59q-10 18 -15 39.5t-5 42.5zM258 759.5q0 16.5 4 33.5q2 16 8 34.5t13 34.5q14 31 32.5 61.5t46.5 53.5q10 8 29 2t23 -18q4 -10 5 -22.5t1 -23.5q0 -6 -1 -13 t-1 -15q0 -2 -1 -4t-1 -4t-2 -6.5t0 -0.5q-6 -16 -27.5 -10t-24.5 23q-2 2 -2 6v8v25q0 14 -2 20v10q-2 4 -1 0t-1 0v4q14 -4 26.5 -8t27.5 -8q-4 -2 -1 0t-1 0q0 -4 -5 -4q-2 -4 -4 -6t-4 -6q-6 -6 -18 -23q-10 -16 -17.5 -29.5t-15.5 -29.5q-6 -16 -12 -33.5t-10 -34.5 q0 -4 -3 -6v-4v-14q0 -8 3 -15q0 -2 1 -2t1 -2q-23 6 -52 17q23 16 45.5 40.5t55.5 26.5q8 0 21.5 -6t8.5 -18q-6 -12 -17 -20.5t-21 -18.5q-20 -23 -48 -41q-12 -10 -28.5 -3t-22.5 19q-8 14 -8 30.5z" />
<glyph unicode="&#xad;" horiz-adv-x="591" d="M51 442q-6 16 12 25q23 4 44.5 6t44.5 4q33 4 63.5 5t63.5 3q63 4 126.5 5.5t129.5 -1.5q12 -2 23.5 -5t21.5 -13q16 -18 -2 -33l-13 -6q-25 -10 -47 4h-31h-67h-66.5t-66.5 -2l-131 -6l-45 -4h-17h-2q-12 -2 -24.5 3t-16.5 15z" />
<glyph unicode="&#xb0;" horiz-adv-x="360" d="M61 451q-6 20 5 38q4 10 10 21.5t14 21.5q8 16 27 35q16 12 26 11h2q2 0 5 -3q2 0 6 -3t-2 1q4 0 6 -4q4 -2 0 -10q-7 7 -15 19q6 -2 12.5 -5.5t4.5 -11.5v4q4 -4 0 -10q-2 0 -2 -2q-2 -2 0 1t0 -1q-2 -2 -3 -4t-3 -4q-8 -12 -11 -17q-6 -10 -11 -19t-9 -20q-4 -6 -8 -18 q-2 -4 -2 -10q-2 0 -2 -3t0 1v-6q4 -4 1 0t1 0q-4 4 -2 2t-2 0q0 2 -6.5 3t-2.5 1q-6 0 -3 1t-3 -1h4q4 2 1 0t1 0l4 4q4 2 5.5 3t5.5 3l16 16q6 8 12.5 17.5t6.5 17.5q0 12 -7 23l-2 2q-4 4 -1 1t-1 1t0 1t0 -1t-3 2t5 -2h-2q-4 0 -1 1t-1 -1q0 -2 -2 -2h-2q-6 -4 -11 -7 t-11 -8q-10 -6 -25.5 0.5t-11.5 18.5q4 16 19.5 26.5t31.5 8.5q18 0 36.5 -7.5t28.5 -23.5q10 -12 13.5 -27.5t-2.5 -31.5q-4 -12 -12.5 -23.5t-18.5 -21.5t-23.5 -17.5t-29.5 -9.5q-16 -4 -33.5 4t-22.5 25z" />
<glyph unicode="&#xb1;" horiz-adv-x="657" d="M51 240q-6 16 12 24q23 4 44.5 6t44.5 4q33 4 63.5 5.5t63.5 3.5q63 4 126.5 5t129.5 -1q12 -2 23 -5t22 -14q16 -18 -2 -32l-13 -7q-27 -14 -53 7q-8 6 -11 14t3 18q2 4 5 6t7 7q10 -12 17.5 -24.5t15.5 -25.5h-29.5t-32.5 2h-67h-66.5t-66.5 -2q-33 -2 -66 -3t-65 -3 q-10 -2 -22.5 -2t-22.5 -2h-17q-12 0 -18 2q-4 0 -8.5 2t-8.5 4q-10 10 -3 8t36 -16q-12 -2 -24.5 3t-16.5 16zM186 639q-8 18 13 23q23 6 44 8t44 4q33 2 64.5 4t62.5 4q66 4 128 4t128 -2q12 0 24.5 -4t20.5 -14q16 -16 -2 -31q-4 -4 -13 -8q-29 -10 -53 8q-8 6 -11 14 t3 19q8 8 14 12q8 -12 15.5 -24.5t17.5 -26.5q-16 2 -29.5 2h-33.5q-16 2 -34 2h-34q-35 0 -66.5 -1t-66.5 -3q-68 0 -131 -6q-10 0 -21.5 -1t-23.5 -1q-4 -2 -15 -3q-14 0 -20 3q-10 2 -14 8q-12 10 -5.5 7.5t35.5 -18.5q-10 0 -22 5.5t-19 15.5zM283 387q25 68 55 129 q33 68 63 139q16 35 30.5 67t31.5 66q8 14 15 27.5t11 30.5q4 16 7 26v11q2 6 2 5v-4t-1 -6.5t-1 1.5v4q-2 8 5 11t13 3q14 2 27 -8q14 -10 14 -21q0 -20 -2 -30q-6 -27 -23 -62q-16 -33 -30.5 -65.5t-30.5 -67.5t-31.5 -71.5t-31.5 -71.5q-14 -33 -29 -66t-27 -67 q-4 -10 -16 -12.5t-24.5 0.5t-21.5 12.5t-5 19.5z" />
<glyph unicode="&#xb4;" horiz-adv-x="305" d="M12 449q2 4 8.5 8t10.5 8q18 10 45 20q12 4 24.5 8.5t24.5 8.5q4 0 12 4q2 0 4 1t4 1q10 6 21 10q10 4 21.5 1t19.5 -9q6 -4 11 -13.5t-3 -15.5q-10 -8 -22.5 -12t-22.5 -8q-12 -4 -23.5 -6t-23.5 -6t-23 -9q-4 0 -6 -1t-6 -1q0 -2 -4 -3t-2 1q-10 -6 -20.5 -12t-22.5 -4 q-10 2 -20.5 9t-6.5 20z" />
<glyph unicode="&#xb7;" horiz-adv-x="335" d="M-8 302q-10 13 0 26l45 45q6 4 15 4t16 -2q18 0 34 -13q10 -8 14.5 -19t-1.5 -21l-19.5 -19.5l-17.5 -17.5q-16 -10 -27 -11q-20 -2 -39 7q-10 8 -20 21z" />
<glyph unicode="&#xb8;" horiz-adv-x="247" d="M-91 -674q-5 10 1 21q4 6 10 11t12 11q6 4 18.5 3t22 -6t14.5 -13t-1 -17q-8 -8 -13 -16q-6 8 -13 15.5t-13 15.5q4 0 8 -2q-10 4 -8 3t6 -1q6 -2 1 -2t-1 2h6q4 0 -1 -1t1 1q4 0 6 2q4 0 6 2q4 2 0 -1t0 1l13 6q2 2 3 2t3 2l2 2q10 6 16 17q4 4 4 6q2 2 3 4t-1 -2 q2 4 2 5t2 5q0 4 1 6t1 4v6q-2 4 -1 0t1 0q-2 2 -2 4q4 -6 2 -4l-4 4q4 -4 4 -3t-2 3q-4 2 0.5 -1t-2.5 1q-4 2 1.5 -1t0.5 1q-4 0 -7 1.5t-7 1.5q-10 4 -21.5 14t-0.5 20q6 8 11 15.5t9 15.5t8 16.5t10 14.5q8 6 22.5 3t16.5 -16q0 -10 -2 -18t-6 -18q-2 -10 -4 -18.5 t-6 -18.5q-10 8 -17.5 15t-15.5 15q20 -2 44 -12t30 -33q12 -33 -12 -63q-23 -35 -64 -48.5t-82 3.5q-10 4 -15 14z" />
<glyph unicode="&#xbf;" horiz-adv-x="552" d="M-78 63.5q2 34.5 12 63.5q27 74 79.5 135.5t109.5 112.5q57 49 115.5 94t123.5 82l62 37q14 10 23.5 17t19.5 20q23 29 35 62.5t28 66.5q6 10 18.5 12t22.5 -2q8 -2 20.5 -11.5t8.5 -21.5q-6 -10 -11 -22.5l-9 -22.5q-8 -18 -16.5 -36.5t-18.5 -37.5q-14 -27 -43 -45 q-27 -23 -57.5 -40t-59.5 -35q-29 -16 -56.5 -37t-56.5 -43q-33 -25 -63.5 -49.5t-58.5 -53.5q-29 -29 -55.5 -57.5t-49.5 -63.5q-18 -29 -33.5 -60.5t-19.5 -66.5v-6v-6v-14q2 -6 2 -15q2 -2 2 -6q-2 4 -1 1t3 -3q0 -8 6 -14q2 -4 -1 0t1 0l4 -4q6 -6 0 -2l4 -4q2 0 4 -2 t-4 2q2 0 3 -1t3 -1q8 -4 3 -2t-1 0q4 0 7 -2q8 -2 0.5 0t1.5 0h8q2 0 4 -1t4 -1h-2q6 0 8 2h12q-8 -2 -2.5 -1t7.5 3q6 2 11 2t11 4q4 0 12 4q2 0 3 1t4 1q4 2 -0.5 0t2.5 0q16 8 22 12q25 12 53 29q14 10 26.5 18t25.5 19q23 20 47 39q43 41 77 90q6 6 15 22q4 4 1 0t1 0 q0 2 1 3t1 3q4 8 4 11q8 16 12 39q4 -6 9.5 -13.5t9.5 -15.5q4 -2 12 -3t12 3q2 2 2 0l-4 -4q-20 -16 -47 -2q-8 4 -16 13t2 20l7 7l7 7q23 10 47 0q8 -4 18.5 -10.5t10.5 -16.5q-6 -39 -29 -78q-31 -53 -77 -95t-95 -77q-51 -39 -104 -59q-23 -10 -48.5 -18.5t-50.5 -6.5 q-39 0 -75.5 15.5t-53.5 52.5q-14 29 -12 63.5zM558 882.5q-3 10.5 7 16.5q6 4 12.5 8t10.5 8q2 2 -2 0q2 0 4 3l4 4l4 4q-2 -4 -2 -2q4 12 17.5 14t23.5 -2t20.5 -12.5t6.5 -20.5q-4 -10 -19 -24q-8 -4 -14 -9.5t-13 -9.5q-12 -6 -25 -3t-24 9q-8 6 -11 16.5z" />
<glyph unicode="&#xc0;" horiz-adv-x="1617" d="M-160 -537q2 4 10 9q6 6 7 10q8 8 20 24l33 43q16 20 31.5 40t31.5 38q111 137 231 267.5t247 252.5q27 25 52 50.5t54 50.5l-203 -19q-35 -4 -68.5 -7t-68.5 -7q-74 -12 -156 -31q-4 -8 -15 -9t-21 3q-12 4 -24.5 14.5t-2.5 24.5q4 6 14.5 8t16.5 4q16 4 31.5 7.5 t31.5 7.5q72 16 144.5 23t144.5 14q51 4 101 8t102 8q18 0 28 2q100 90 203 175t211 163q156 113 320 209q74 41 148.5 81t152.5 68q39 14 76.5 23.5t78.5 13.5q16 0 37 1t40 -3t34.5 -14.5t23.5 -28.5q10 -25 3 -50.5t-17 -47.5q-16 -31 -34.5 -58.5t-39.5 -56.5 q-20 -29 -39.5 -56.5t-37.5 -55.5q-27 -43 -53.5 -85t-55.5 -83q-55 -86 -111.5 -168t-109.5 -168l-107 -164l-37 -60l-30 -49l-19 -32q-6 -10 -13 -19.5t-13 -19.5q-4 -10 -19.5 -8.5t-23.5 6.5q-10 4 -15.5 13t0.5 19t11.5 22.5t13.5 22.5l20 35l31 51l37 60 q31 47 61.5 92t59.5 92l223 336q27 41 51.5 81t52.5 81l76 108q10 14 19.5 27.5t17.5 30.5q4 8 7 12t7 12l13 25l4 12t2 12q2 4 2 11v6q0 6 -2 10h2q-2 0 -2 2h-4h-10h-5h-4q-12 0 -24.5 -1t-24.5 -3q-8 -2 -3 0t-1 0q-2 0 -3 -1t-3 -1q-4 0 -6 -1t-6 -1l-25 -6 q-14 -4 -26.5 -8.5t-26.5 -8.5q-51 -16 -99.5 -38.5t-95.5 -49.5q-168 -88 -322.5 -193.5t-301.5 -221.5q-45 -37 -88 -74t-88 -74q49 2 98 2t98 2q98 2 193.5 0t191.5 -12q27 -4 35 -23q4 -8 0 -15t-12 -9q-27 -4 -53.5 -5t-53.5 9l-4 4q-90 4 -177 3t-179 -3 q-47 0 -95.5 -1t-97.5 -3q-84 -76 -163.5 -154t-157.5 -157q-61 -63 -121 -129t-119 -131l-102 -119q-16 -18 -29.5 -34.5t-30.5 -33.5q-8 -10 -16 -19.5t-19 -19.5q-12 -16 -26 -14q-6 2 -17.5 7t-7.5 15zM-119 -553h2q-2 -2 -2 0zM1674.5 1192q-7.5 8 0.5 18q4 6 14.5 7.5 t18.5 -3.5q18 -4 35.5 -11t34.5 -15q12 -4 25.5 -9t23.5 -16q8 -6 11 -16t-7 -17q-10 -6 -24.5 -4t-24.5 11q0 2 4 -1t-2 1q-2 0 -10 4t-29 12q-14 6 -28.5 12.5t-28.5 14.5q-6 4 -13.5 12z" />
<glyph unicode="&#xc1;" horiz-adv-x="1617" d="M-160 -537q2 4 10 9q6 6 7 10q8 8 20 24l33 43q16 20 31.5 40t31.5 38q111 137 231 267.5t247 252.5q27 25 52 50.5t54 50.5l-203 -19q-35 -4 -68.5 -7t-68.5 -7q-74 -12 -156 -31q-4 -8 -15 -9t-21 3q-12 4 -24.5 14.5t-2.5 24.5q4 6 14.5 8t16.5 4q16 4 31.5 7.5 t31.5 7.5q72 16 144.5 23t144.5 14q51 4 101 8t102 8q18 0 28 2q100 90 203 175t211 163q156 113 320 209q74 41 148.5 81t152.5 68q39 14 76.5 23.5t78.5 13.5q16 0 37 1t40 -3t34.5 -14.5t23.5 -28.5q10 -25 3 -50.5t-17 -47.5q-16 -31 -34.5 -58.5t-39.5 -56.5 q-20 -29 -39.5 -56.5t-37.5 -55.5q-27 -43 -53.5 -85t-55.5 -83q-55 -86 -111.5 -168t-109.5 -168l-107 -164l-37 -60l-30 -49l-19 -32q-6 -10 -13 -19.5t-13 -19.5q-4 -10 -19.5 -8.5t-23.5 6.5q-10 4 -15.5 13t0.5 19t11.5 22.5t13.5 22.5l20 35l31 51l37 60 q31 47 61.5 92t59.5 92l223 336q27 41 51.5 81t52.5 81l76 108q10 14 19.5 27.5t17.5 30.5q4 8 7 12t7 12l13 25l4 12t2 12q2 4 2 11v6q0 6 -2 10h2q-2 0 -2 2h-4h-10h-5h-4q-12 0 -24.5 -1t-24.5 -3q-8 -2 -3 0t-1 0q-2 0 -3 -1t-3 -1q-4 0 -6 -1t-6 -1l-25 -6 q-14 -4 -26.5 -8.5t-26.5 -8.5q-51 -16 -99.5 -38.5t-95.5 -49.5q-168 -88 -322.5 -193.5t-301.5 -221.5q-45 -37 -88 -74t-88 -74q49 2 98 2t98 2q98 2 193.5 0t191.5 -12q27 -4 35 -23q4 -8 0 -15t-12 -9q-27 -4 -53.5 -5t-53.5 9l-4 4q-90 4 -177 3t-179 -3 q-47 0 -95.5 -1t-97.5 -3q-84 -76 -163.5 -154t-157.5 -157q-61 -63 -121 -129t-119 -131l-102 -119q-16 -18 -29.5 -34.5t-30.5 -33.5q-8 -10 -16 -19.5t-19 -19.5q-12 -16 -26 -14q-6 2 -17.5 7t-7.5 15zM-119 -553h2q-2 -2 -2 0zM1661 1141q2 4 8 8t10 8q18 10 45 21 q12 4 24.5 8t25.5 8q4 0 12 4q2 0 4 1t4 1q10 6 21 10q10 4 21 1t19 -9q6 -4 11.5 -13t-2.5 -15q-10 -8 -22.5 -12.5t-22.5 -8.5q-12 -4 -23.5 -6t-23.5 -6t-23 -8q-4 0 -6 -1.5t-6 -1.5q0 -2 -4 -3t-2 1q-10 -6 -20.5 -12t-22.5 -4q-10 2 -20.5 9t-6.5 20z" />
<glyph unicode="&#xc2;" horiz-adv-x="1617" d="M-160 -537q2 4 10 9q6 6 7 10q8 8 20 24l33 43q16 20 31.5 40t31.5 38q111 137 231 267.5t247 252.5q27 25 52 50.5t54 50.5l-203 -19q-35 -4 -68.5 -7t-68.5 -7q-74 -12 -156 -31q-4 -8 -15 -9t-21 3q-12 4 -24.5 14.5t-2.5 24.5q4 6 14.5 8t16.5 4q16 4 31.5 7.5 t31.5 7.5q72 16 144.5 23t144.5 14q51 4 101 8t102 8q18 0 28 2q100 90 203 175t211 163q156 113 320 209q74 41 148.5 81t152.5 68q39 14 76.5 23.5t78.5 13.5q16 0 37 1t40 -3t34.5 -14.5t23.5 -28.5q10 -25 3 -50.5t-17 -47.5q-16 -31 -34.5 -58.5t-39.5 -56.5 q-20 -29 -39.5 -56.5t-37.5 -55.5q-27 -43 -53.5 -85t-55.5 -83q-55 -86 -111.5 -168t-109.5 -168l-107 -164l-37 -60l-30 -49l-19 -32q-6 -10 -13 -19.5t-13 -19.5q-4 -10 -19.5 -8.5t-23.5 6.5q-10 4 -15.5 13t0.5 19t11.5 22.5t13.5 22.5l20 35l31 51l37 60 q31 47 61.5 92t59.5 92l223 336q27 41 51.5 81t52.5 81l76 108q10 14 19.5 27.5t17.5 30.5q4 8 7 12t7 12l13 25l4 12t2 12q2 4 2 11v6q0 6 -2 10h2q-2 0 -2 2h-4h-10h-5h-4q-12 0 -24.5 -1t-24.5 -3q-8 -2 -3 0t-1 0q-2 0 -3 -1t-3 -1q-4 0 -6 -1t-6 -1l-25 -6 q-14 -4 -26.5 -8.5t-26.5 -8.5q-51 -16 -99.5 -38.5t-95.5 -49.5q-168 -88 -322.5 -193.5t-301.5 -221.5q-45 -37 -88 -74t-88 -74q49 2 98 2t98 2q98 2 193.5 0t191.5 -12q27 -4 35 -23q4 -8 0 -15t-12 -9q-27 -4 -53.5 -5t-53.5 9l-4 4q-90 4 -177 3t-179 -3 q-47 0 -95.5 -1t-97.5 -3q-84 -76 -163.5 -154t-157.5 -157q-61 -63 -121 -129t-119 -131l-102 -119q-16 -18 -29.5 -34.5t-30.5 -33.5q-8 -10 -16 -19.5t-19 -19.5q-12 -16 -26 -14q-6 2 -17.5 7t-7.5 15zM-119 -553h2q-2 -2 -2 0zM1793 1124.5q-3 8.5 7 16.5t20.5 14 t20.5 12l45 25q29 10 47 -10q10 -10 16.5 -21.5t14.5 -21.5q4 -4 9 -9.5t9 -11.5q2 -6 0 -12t-10 -8q-23 -4 -39 10t-30 35q-14 -8 -28.5 -17.5t-29.5 -19.5q-8 -4 -19 -3t-20.5 7t-12.5 14.5z" />
<glyph unicode="&#xc3;" horiz-adv-x="1617" d="M-160 -537q2 4 10 9q6 6 7 10q8 8 20 24l33 43q16 20 31.5 40t31.5 38q111 137 231 267.5t247 252.5q27 25 52 50.5t54 50.5l-203 -19q-35 -4 -68.5 -7t-68.5 -7q-74 -12 -156 -31q-4 -8 -15 -9t-21 3q-12 4 -24.5 14.5t-2.5 24.5q4 6 14.5 8t16.5 4q16 4 31.5 7.5 t31.5 7.5q72 16 144.5 23t144.5 14q51 4 101 8t102 8q18 0 28 2q100 90 203 175t211 163q156 113 320 209q74 41 148.5 81t152.5 68q39 14 76.5 23.5t78.5 13.5q16 0 37 1t40 -3t34.5 -14.5t23.5 -28.5q10 -25 3 -50.5t-17 -47.5q-16 -31 -34.5 -58.5t-39.5 -56.5 q-20 -29 -39.5 -56.5t-37.5 -55.5q-27 -43 -53.5 -85t-55.5 -83q-55 -86 -111.5 -168t-109.5 -168l-107 -164l-37 -60l-30 -49l-19 -32q-6 -10 -13 -19.5t-13 -19.5q-4 -10 -19.5 -8.5t-23.5 6.5q-10 4 -15.5 13t0.5 19t11.5 22.5t13.5 22.5l20 35l31 51l37 60 q31 47 61.5 92t59.5 92l223 336q27 41 51.5 81t52.5 81l76 108q10 14 19.5 27.5t17.5 30.5q4 8 7 12t7 12l13 25l4 12t2 12q2 4 2 11v6q0 6 -2 10h2q-2 0 -2 2h-4h-10h-5h-4q-12 0 -24.5 -1t-24.5 -3q-8 -2 -3 0t-1 0q-2 0 -3 -1t-3 -1q-4 0 -6 -1t-6 -1l-25 -6 q-14 -4 -26.5 -8.5t-26.5 -8.5q-51 -16 -99.5 -38.5t-95.5 -49.5q-168 -88 -322.5 -193.5t-301.5 -221.5q-45 -37 -88 -74t-88 -74q49 2 98 2t98 2q98 2 193.5 0t191.5 -12q27 -4 35 -23q4 -8 0 -15t-12 -9q-27 -4 -53.5 -5t-53.5 9l-4 4q-90 4 -177 3t-179 -3 q-47 0 -95.5 -1t-97.5 -3q-84 -76 -163.5 -154t-157.5 -157q-61 -63 -121 -129t-119 -131l-102 -119q-16 -18 -29.5 -34.5t-30.5 -33.5q-8 -10 -16 -19.5t-19 -19.5q-12 -16 -26 -14q-6 2 -17.5 7t-7.5 15zM-119 -553h2q-2 -2 -2 0zM1739 1133q-6 14 6 24q6 6 16 10 q14 8 37 13q18 2 37.5 -3.5t34.5 -21.5h8h6q-6 0 -4 1t4 1q4 0 12 4q2 2 5 2q4 0 8 4q6 2 18 11q10 4 21.5 1.5t19.5 -8.5q16 -12 8 -26q-20 -29 -61 -36t-74 7q-8 4 -20 17h-2q-4 0 -13 -5q-4 0 -16 -8q-4 -2 -18 -2l-3 -2q-8 0 -17 4t-13 13z" />
<glyph unicode="&#xc4;" horiz-adv-x="1617" d="M-160 -537q2 4 10 9q6 6 7 10q8 8 20 24l33 43q16 20 31.5 40t31.5 38q111 137 231 267.5t247 252.5q27 25 52 50.5t54 50.5l-203 -19q-35 -4 -68.5 -7t-68.5 -7q-74 -12 -156 -31q-4 -8 -15 -9t-21 3q-12 4 -24.5 14.5t-2.5 24.5q4 6 14.5 8t16.5 4q16 4 31.5 7.5 t31.5 7.5q72 16 144.5 23t144.5 14q51 4 101 8t102 8q18 0 28 2q100 90 203 175t211 163q156 113 320 209q74 41 148.5 81t152.5 68q39 14 76.5 23.5t78.5 13.5q16 0 37 1t40 -3t34.5 -14.5t23.5 -28.5q10 -25 3 -50.5t-17 -47.5q-16 -31 -34.5 -58.5t-39.5 -56.5 q-20 -29 -39.5 -56.5t-37.5 -55.5q-27 -43 -53.5 -85t-55.5 -83q-55 -86 -111.5 -168t-109.5 -168l-107 -164l-37 -60l-30 -49l-19 -32q-6 -10 -13 -19.5t-13 -19.5q-4 -10 -19.5 -8.5t-23.5 6.5q-10 4 -15.5 13t0.5 19t11.5 22.5t13.5 22.5l20 35l31 51l37 60 q31 47 61.5 92t59.5 92l223 336q27 41 51.5 81t52.5 81l76 108q10 14 19.5 27.5t17.5 30.5q4 8 7 12t7 12l13 25l4 12t2 12q2 4 2 11v6q0 6 -2 10h2q-2 0 -2 2h-4h-10h-5h-4q-12 0 -24.5 -1t-24.5 -3q-8 -2 -3 0t-1 0q-2 0 -3 -1t-3 -1q-4 0 -6 -1t-6 -1l-25 -6 q-14 -4 -26.5 -8.5t-26.5 -8.5q-51 -16 -99.5 -38.5t-95.5 -49.5q-168 -88 -322.5 -193.5t-301.5 -221.5q-45 -37 -88 -74t-88 -74q49 2 98 2t98 2q98 2 193.5 0t191.5 -12q27 -4 35 -23q4 -8 0 -15t-12 -9q-27 -4 -53.5 -5t-53.5 9l-4 4q-90 4 -177 3t-179 -3 q-47 0 -95.5 -1t-97.5 -3q-84 -76 -163.5 -154t-157.5 -157q-61 -63 -121 -129t-119 -131l-102 -119q-16 -18 -29.5 -34.5t-30.5 -33.5q-8 -10 -16 -19.5t-19 -19.5q-12 -16 -26 -14q-6 2 -17.5 7t-7.5 15zM-119 -553h2q-2 -2 -2 0zM1784 1161q2 4 3 5t3 5q6 8 18 9 q27 4 37 -19q4 -10 -2 -15t-14 -5q-10 0 -17 2q-12 4 -16 10l4 -4q10 2 22.5 4t24.5 4q0 -6 -4 -10l4 4q-4 -6 -12 -14q-4 -8 -13.5 -8.5t-17.5 1.5q-2 0 -2 1.5t-2 1.5q4 0 5 -1.5t5 -1.5h-4h-2q-10 0 -14 5q-6 0 -2 8v2q0 -4 2 -6l-4 4q-10 10 -2 18zM1872 1139.5 q-6 7.5 0 15.5q2 4 6 8l-4 -4q2 2 3 4t3 4q-2 -2 -2 -4q0 2 1 3t1 3q4 8 14.5 8.5t18.5 -1.5q8 -4 18 -13q4 -4 4 -10q0 -11 -12 -23q-6 -10 -17.5 -8t-19.5 6t-14 11.5z" />
<glyph unicode="&#xc5;" horiz-adv-x="1617" d="M-160 -537q2 4 10 9q6 6 7 10q8 8 20 24l33 43q16 20 31.5 40t31.5 38q111 137 231 267.5t247 252.5q27 25 52 50.5t54 50.5l-203 -19q-35 -4 -68.5 -7t-68.5 -7q-74 -12 -156 -31q-4 -8 -15 -9t-21 3q-12 4 -24.5 14.5t-2.5 24.5q4 6 14.5 8t16.5 4q16 4 31.5 7.5 t31.5 7.5q72 16 144.5 23t144.5 14q51 4 101 8t102 8q18 0 28 2q100 90 203 175t211 163q156 113 320 209q74 41 148.5 81t152.5 68q39 14 76.5 23.5t78.5 13.5q16 0 37 1t40 -3t34.5 -14.5t23.5 -28.5q10 -25 3 -50.5t-17 -47.5q-16 -31 -34.5 -58.5t-39.5 -56.5 q-20 -29 -39.5 -56.5t-37.5 -55.5q-27 -43 -53.5 -85t-55.5 -83q-55 -86 -111.5 -168t-109.5 -168l-107 -164l-37 -60l-30 -49l-19 -32q-6 -10 -13 -19.5t-13 -19.5q-4 -10 -19.5 -8.5t-23.5 6.5q-10 4 -15.5 13t0.5 19t11.5 22.5t13.5 22.5l20 35l31 51l37 60 q31 47 61.5 92t59.5 92l223 336q27 41 51.5 81t52.5 81l76 108q10 14 19.5 27.5t17.5 30.5q4 8 7 12t7 12l13 25l4 12t2 12q2 4 2 11v6q0 6 -2 10h2q-2 0 -2 2h-4h-10h-5h-4q-12 0 -24.5 -1t-24.5 -3q-8 -2 -3 0t-1 0q-2 0 -3 -1t-3 -1q-4 0 -6 -1t-6 -1l-25 -6 q-14 -4 -26.5 -8.5t-26.5 -8.5q-51 -16 -99.5 -38.5t-95.5 -49.5q-168 -88 -322.5 -193.5t-301.5 -221.5q-45 -37 -88 -74t-88 -74q49 2 98 2t98 2q98 2 193.5 0t191.5 -12q27 -4 35 -23q4 -8 0 -15t-12 -9q-27 -4 -53.5 -5t-53.5 9l-4 4q-90 4 -177 3t-179 -3 q-47 0 -95.5 -1t-97.5 -3q-84 -76 -163.5 -154t-157.5 -157q-61 -63 -121 -129t-119 -131l-102 -119q-16 -18 -29.5 -34.5t-30.5 -33.5q-8 -10 -16 -19.5t-19 -19.5q-12 -16 -26 -14q-6 2 -17.5 7t-7.5 15zM-119 -553h2q-2 -2 -2 0zM1862 1130q-6 20 4 39q8 20 22 41 q-16 8 -14 19q4 16 19.5 26.5t31.5 8.5q18 0 37 -7.5t29 -23.5q23 -29 10 -59q-4 -12 -12.5 -23.5t-18.5 -22.5q-10 -10 -23.5 -17t-29.5 -9q-16 -4 -33.5 4t-21.5 24zM1894 1139h4h3q-4 2 -2 2t-5 -2zM1911 1133q4 -4 1 0t1 0v2h-2v-2zM1915 1149l16 16q6 8 12.5 17.5 t6.5 17.5q0 10 -2 14l-4 -6q-6 -10 -11.5 -19t-9.5 -20q-4 -6 -8 -18v-2z" />
<glyph unicode="&#xc6;" horiz-adv-x="2359" d="M-180 -483q2 4 4 6l6 6l12 14q8 8 14.5 15.5t12.5 15.5q10 14 21.5 27.5t23.5 25.5l80 97q41 51 85 100t89 98q92 100 187.5 196.5t195.5 188.5q-47 -4 -95 -6t-98 -6q-35 -4 -70.5 -8t-70.5 -8q-41 -6 -83 -14.5t-83 -18.5q-6 -10 -17 -10t-22 4q-14 4 -24.5 14t0.5 25 q2 4 9 6t11 4l19 4q18 4 37.5 8t37.5 8q125 25 251 34t253 13q27 23 51.5 45.5t51.5 44.5q145 123 297.5 236t318.5 209q80 47 162 87t170 66q45 14 91 22.5t93 10.5q25 2 55.5 -3t40.5 -34q6 -18 2 -37.5t-10 -37.5q0 -2 -1 -4.5t-1 -4.5q174 10 348 18.5t348 -11.5 q10 -2 20.5 -6.5t14.5 -14.5t0 -16t-14 -8q-61 -18 -129 -25q-10 -2 -23.5 4t-17.5 16q-4 6 0 15h-64q-127 2 -252.5 -6.5t-254.5 -16.5q-4 -6 -8.5 -13t-8.5 -13q-16 -31 -35.5 -61t-40.5 -60q-70 -98 -140.5 -192.5t-141.5 -190.5q92 2 182 3t182 3h179q29 -2 55 -2t55 -4 q27 0 37 -21q6 -20 -14 -24q-51 -12 -99 2h-51q-49 2 -97 1t-95 -1l-369 -6q-18 -25 -35.5 -48.5t-36.5 -48.5q-45 -61 -87 -124.5t-83 -129.5q-23 -35 -43 -70.5t-41 -70.5q-4 -10 -10 -20.5t-12 -20.5l-25 -45q0 -2 -4 -6q-8 -16 -14 -30.5t-12 -30.5q-14 -35 -17 -62v-2 v-2v-8v-10q2 2 8 2q8 2 2 0t2 0q12 4 21 4q16 6 34.5 12t35.5 14q76 33 153 62q172 63 350 110q193 49 392 68q94 8 194 12h41t44.5 -4t38.5 -14t28 -31q6 -12 -3.5 -19.5t-19.5 -7.5q-18 -4 -33.5 9.5t-38.5 15.5h-2h-2h-16h-39q-86 -2 -176 -12q-195 -18 -382 -67.5 t-372 -119.5l-45 -18l-28 -12l-80 -33q-20 -6 -41 -11.5t-43 -7.5q-23 -4 -45 0q-35 6 -43 33q-10 31 -3 62.5t19 60.5q20 45 49 94q2 6 6 15l60 106q29 49 58.5 97.5t59.5 95.5q37 53 74 105t76 106h-23q-104 -2 -208.5 -4.5t-208.5 -6.5l-324 -6q-84 -76 -165 -154.5 t-161 -160.5q-59 -66 -119.5 -130.5t-117.5 -131.5q-27 -29 -51.5 -59.5t-48.5 -61.5l-58 -68q-8 -10 -15 -19t-18 -20q0 -4 -4 -4q-2 -2 -2 -3t-4 -3v-2v4q-10 -10 -26 -8q-10 2 -23.5 9t-9.5 22zM-174 -475l4 2q-2 0 -2 -1t-2 -1zM698 358l289 4q111 4 219.5 6.5 t218.5 4.5h19q45 61 89 121.5t89 119.5q41 53 81 107.5t77 112.5q10 14 19 28.5t20 30.5l6 8q-41 -4 -79 -5t-79 -3q-6 -2 -14 -2h-15q-12 -2 -23 -3t-24 -1h-49q-12 2 -28.5 7t-20.5 19v5q-166 -86 -321.5 -193t-303.5 -223q-43 -35 -85 -71t-85 -73zM1542 942q8 -4 14 -8 q14 0 28.5 1t31.5 3q23 2 55.5 4t67.5 3t65.5 3t46.5 2q2 6 4.5 11.5t4.5 11.5q4 10 7 18t5 19q2 4 2 10v4q0 2 2 2v6h-20.5t-20.5 -2q-76 -8 -149.5 -30.5t-143.5 -57.5zM1874 1024l2 2z" />
<glyph unicode="&#xc7;" horiz-adv-x="1136" d="M-119 -236q-4 61 5.5 123t29.5 121q41 131 112.5 248t157.5 223q74 92 155 177t169 163q68 59 141.5 114.5t151.5 102.5q47 29 95 52.5t101 37.5q43 12 93.5 11.5t87.5 -33.5q20 -16 31.5 -36.5t17.5 -43.5q6 -25 1 -50.5t-13 -47.5q-18 -55 -43 -111q-4 -10 -10.5 -21.5 t-12.5 -21.5q-4 -4 -8 -10t-10 -10q-10 -6 -23.5 -4t-24.5 10q-8 6 -10 16t8 14q4 2 -1 -1t-1 1l6 7l5 10l4 4q8 16 15 29.5t13 29.5q12 33 24.5 66t16.5 67v5v4v8q0 4 -1 6t-1 6q-2 2 -2 4q2 -4 1 -2t-1 4q-2 4 -4 10.5t-4 10.5q-2 2 -3 4t-3 4q-2 4 1 -1t1 -1l-4 4 q-2 4 -6 8l-2 2q-2 2 -3 2t-4 2q-6 4 -0.5 1t0.5 1q-2 0 -10 4q-4 2 2 -1t2 -1q-2 0 -2 1t-2 1t-3 1.5t-5 1.5q-6 2 1 -0.5t-1 0.5q-8 0 -10 2h-2q-14 0 -21 -2h-10h-6q-4 -2 1 -1t1 1q-6 -2 -11 -3.5t-12 -3.5q-10 -4 -22 -7t-23 -7q-2 0 -14 -4l-4 -2q-6 -4 -2 -1t0 1 q-16 -8 -23 -12q-90 -41 -171 -97.5t-156 -117.5q-2 -2 -5.5 -4.5t1.5 2.5l-7 -7q-6 -4 -14 -12q-8 -6 -15 -12t-16 -15q-37 -31 -71 -65q-43 -41 -84 -84t-82 -90q-90 -100 -170 -211t-135 -234q-57 -119 -76 -241q-2 -16 -3 -28.5t-1 -29.5v-28.5t2 -28.5q0 -10 1 -20.5 t3 -20.5q2 -2 2 -6q0 -2 1 -2t1 -2q0 -4 -1 1t-1 1q4 -8 4 -12q4 -8 12 -21q-4 6 -1 2t5 -8l7 -6q-8 6 -4 3t8 -7q2 0 4 -2q4 -4 -2 1t0 1q2 -2 10 -6q4 -2 -2 1t-2 1q2 0 3 -1t3 -1q2 -2 10 -2q-12 2 -7 1t9 -3h15h-2h6h13t13 2q6 0 9 2q-10 -2 -6 -2t6 2q4 0 7 1t7 1 q16 4 31.5 9t31.5 11l19 6l8 4q4 2 -1 -1t-1 -1q2 2 4 2q10 4 18.5 8.5t18.5 8.5q39 18 77 39.5t77 44.5q86 53 166.5 109.5t160.5 115.5q76 55 148.5 110.5t146.5 110.5q29 20 55.5 40t55.5 38q10 6 20 13.5t21 11.5q12 6 25.5 12t27.5 4h-14h2q10 4 23.5 0t21.5 -12 q8 -10 5 -17.5t-13 -11.5q-2 0 -2.5 -1t-2.5 -1q4 2 5.5 3t5.5 3q-2 -4 -6.5 -5t-8.5 -3q-6 -4 -14 -8q-8 -6 -16.5 -11.5t-16.5 -9.5q-23 -14 -44 -29.5t-44 -31.5q-72 -51 -141.5 -104.5t-140.5 -106.5q-82 -59 -163 -117.5t-167 -111.5q-72 -47 -146.5 -88t-156.5 -68 q-57 -18 -124 -18.5t-112 49.5q-23 27 -31 58.5t-10 63.5zM-111.5 -672q-5.5 10 0.5 21q4 6 10.5 11t12.5 11q10 6 25.5 3t25.5 -13v2q8 4 14.5 11.5t10.5 11.5t4 6l4 4l2 8q0 4 1 6t1 4v6q2 0 0 2l-2 3h-2q-4 0 -6 1t-6 1q-10 4 -21.5 14t-1.5 20q6 8 11 15.5t10 15.5 q4 8 8 16.5t10 14.5q8 6 22.5 3t16.5 -15q0 -10 -2 -18.5t-6 -18.5q0 -4 -1 -8.5t-1 -8.5q10 -6 19 -14.5t13 -20.5q12 -33 -12 -63q-23 -35 -63.5 -48t-81.5 3q-10 4 -15.5 14zM-4 -575h2h-2zM-4 -575q2 0 2 -3v3h-2zM-2 -575h2v-3h-2v3zM-2 -575h2v-3v-2v2q0 2 -2 3z M-2 -575q2 -4 2 -5v2h-2h2q-2 0 -2 3z" />
<glyph unicode="&#xc8;" horiz-adv-x="1185" d="M-132 -320.5q5 27.5 15 52.5v4l6 12q8 23 18.5 42.5t20.5 37.5q145 266 322 506l2 4q-12 -2 -25.5 -3t-25.5 -3l-45 -4q-10 -2 -31 -2q-2 -4 -3 -4t-3 -3q-8 -2 -23 7q-4 4 -5 10t-3 10q-6 10 2 17.5t19 7.5q39 4 75.5 8t75.5 8q8 0 15.5 1t15.5 1l143 195 q27 35 52.5 68.5t50.5 68.5q14 18 27.5 36.5t25.5 37.5l28 39q4 4 7.5 10t7.5 10l2 2q0 2 2 4q2 10 13.5 12t23.5 -1t19 -11t5 -18q-4 -12 -12 -23.5t-16 -21.5q-72 -102 -146.5 -201.5t-146.5 -200.5q119 8 244 13q43 2 87 3t89 -1h84l86 -4q12 -2 28.5 -15.5t-2.5 -28.5 l-18 -14q-10 -6 -21.5 -4t-19.5 8q-4 2 -7 5t-24 3q-20 0 -39.5 1t-40.5 1q-92 0 -180 -2t-178 -8q-33 -2 -63.5 -3t-63.5 -5q-14 -18 -27.5 -37.5t-27.5 -38.5q-45 -63 -87 -126.5t-83 -129.5q-16 -29 -35 -57.5t-35 -56.5l-35 -66v-2q-6 -10 -12 -22.5t-14 -24.5v-2 q-8 -16 -15.5 -30.5t-13.5 -31.5q-4 -16 -9 -30.5t-7 -30.5v-2v-2v-6v-10h10q6 2 1 1t3 1q6 0 18 4q18 4 36 11t34 13q39 16 77 31.5t79 32.5q86 31 172 58.5t176 49.5q98 25 195.5 42.5t195.5 27.5t194 12q39 0 85.5 -6t66.5 -45q6 -10 -2 -17.5t-18 -9.5q-29 0 -46 21h3 h-3v2h-4h-2h-2q-4 2 -12 2q-4 0 -8 2h-4h-17q-10 0 -19 -1t-20 -1q-43 -2 -87 -4t-89 -6q-195 -20 -382 -69.5t-371 -119.5l-43 -16l-31 -12q-20 -10 -40 -18.5t-40 -14.5q-20 -8 -40.5 -13.5t-43.5 -7.5q-20 -2 -45 0q-31 6 -43 35q-8 29 -3 56.5zM356 954q-6 12 6 21l9 6 q10 8 24.5 5t24.5 -11h22q10 0 19.5 1t19.5 1q2 0 4 1t7 1h4h2q59 4 119.5 7t119.5 7q186 12 374.5 21.5t375.5 -10.5q25 -5 35 -23q4 -10 0 -16.5t-13 -8.5q-66 -18 -129 -24q-12 0 -25.5 5t-17.5 17q-2 4 -2 13h-59q-190 2 -375.5 -13.5t-374.5 -21.5q-6 -2 -13 -2h-11 q-12 -2 -23.5 -2h-21.5q-27 -4 -51 0q-12 2 -29 7t-21 19zM510 932h10h-8h-2zM849 1149q-7 8 1 18q4 6 14 7.5t19 -3.5q18 -4 35.5 -11t33.5 -15q12 -4 25.5 -9.5t23.5 -15.5q8 -6 11.5 -16t-6.5 -17q-10 -6 -24.5 -4t-25.5 11q0 2 4.5 -1t-2.5 1q-2 0 -10 4t-28 12 q-14 6 -29 12.5t-29 14.5q-6 4 -13 12zM1210 -133q2 0 4 -2v2h-4zM1214 -133v-2v2zM1214 -135z" />
<glyph unicode="&#xc9;" horiz-adv-x="1185" d="M-132 -320.5q5 27.5 15 52.5v4l6 12q8 23 18.5 42.5t20.5 37.5q145 266 322 506l2 4q-12 -2 -25.5 -3t-25.5 -3l-45 -4q-10 -2 -31 -2q-2 -4 -3 -4t-3 -3q-8 -2 -23 7q-4 4 -5 10t-3 10q-6 10 2 17.5t19 7.5q39 4 75.5 8t75.5 8q8 0 15.5 1t15.5 1l143 195 q27 35 52.5 68.5t50.5 68.5q14 18 27.5 36.5t25.5 37.5l28 39q4 4 7.5 10t7.5 10l2 2q0 2 2 4q2 10 13.5 12t23.5 -1t19 -11t5 -18q-4 -12 -12 -23.5t-16 -21.5q-72 -102 -146.5 -201.5t-146.5 -200.5q119 8 244 13q43 2 87 3t89 -1h84l86 -4q12 -2 28.5 -15.5t-2.5 -28.5 l-18 -14q-10 -6 -21.5 -4t-19.5 8q-4 2 -7 5t-24 3q-20 0 -39.5 1t-40.5 1q-92 0 -180 -2t-178 -8q-33 -2 -63.5 -3t-63.5 -5q-14 -18 -27.5 -37.5t-27.5 -38.5q-45 -63 -87 -126.5t-83 -129.5q-16 -29 -35 -57.5t-35 -56.5l-35 -66v-2q-6 -10 -12 -22.5t-14 -24.5v-2 q-8 -16 -15.5 -30.5t-13.5 -31.5q-4 -16 -9 -30.5t-7 -30.5v-2v-2v-6v-10h10q6 2 1 1t3 1q6 0 18 4q18 4 36 11t34 13q39 16 77 31.5t79 32.5q86 31 172 58.5t176 49.5q98 25 195.5 42.5t195.5 27.5t194 12q39 0 85.5 -6t66.5 -45q6 -10 -2 -17.5t-18 -9.5q-29 0 -46 21h3 h-3v2h-4h-2h-2q-4 2 -12 2q-4 0 -8 2h-4h-17q-10 0 -19 -1t-20 -1q-43 -2 -87 -4t-89 -6q-195 -20 -382 -69.5t-371 -119.5l-43 -16l-31 -12q-20 -10 -40 -18.5t-40 -14.5q-20 -8 -40.5 -13.5t-43.5 -7.5q-20 -2 -45 0q-31 6 -43 35q-8 29 -3 56.5zM356 954q-6 12 6 21l9 6 q10 8 24.5 5t24.5 -11h22q10 0 19.5 1t19.5 1q2 0 4 1t7 1h4h2q59 4 119.5 7t119.5 7q186 12 374.5 21.5t375.5 -10.5q25 -5 35 -23q4 -10 0 -16.5t-13 -8.5q-66 -18 -129 -24q-12 0 -25.5 5t-17.5 17q-2 4 -2 13h-59q-190 2 -375.5 -13.5t-374.5 -21.5q-6 -2 -13 -2h-11 q-12 -2 -23.5 -2h-21.5q-27 -4 -51 0q-12 2 -29 7t-21 19zM510 932h10h-8h-2zM926 1149q2 4 8 8t10 8q18 10 45 21q12 4 24.5 8t24.5 8q4 0 13 4q2 0 4 1t4 1q10 6 20 11q10 4 21.5 1t19.5 -10q6 -4 11.5 -13t-3.5 -15q-10 -8 -22 -12.5t-23 -8.5q-12 -4 -23 -6t-24 -6 q-12 -4 -22 -8q-4 0 -6 -1t-7 -1q0 -2 -4 -3t-2 1q-10 -6 -20.5 -12.5t-22.5 -4.5q-10 2 -20 9.5t-6 19.5zM1210 -133q2 0 4 -2v2h-4zM1214 -133v-2v2zM1214 -135z" />
<glyph unicode="&#xca;" horiz-adv-x="1185" d="M-132 -320.5q5 27.5 15 52.5v4l6 12q8 23 18.5 42.5t20.5 37.5q145 266 322 506l2 4q-12 -2 -25.5 -3t-25.5 -3l-45 -4q-10 -2 -31 -2q-2 -4 -3 -4t-3 -3q-8 -2 -23 7q-4 4 -5 10t-3 10q-6 10 2 17.5t19 7.5q39 4 75.5 8t75.5 8q8 0 15.5 1t15.5 1l143 195 q27 35 52.5 68.5t50.5 68.5q14 18 27.5 36.5t25.5 37.5l28 39q4 4 7.5 10t7.5 10l2 2q0 2 2 4q2 10 13.5 12t23.5 -1t19 -11t5 -18q-4 -12 -12 -23.5t-16 -21.5q-72 -102 -146.5 -201.5t-146.5 -200.5q119 8 244 13q43 2 87 3t89 -1h84l86 -4q12 -2 28.5 -15.5t-2.5 -28.5 l-18 -14q-10 -6 -21.5 -4t-19.5 8q-4 2 -7 5t-24 3q-20 0 -39.5 1t-40.5 1q-92 0 -180 -2t-178 -8q-33 -2 -63.5 -3t-63.5 -5q-14 -18 -27.5 -37.5t-27.5 -38.5q-45 -63 -87 -126.5t-83 -129.5q-16 -29 -35 -57.5t-35 -56.5l-35 -66v-2q-6 -10 -12 -22.5t-14 -24.5v-2 q-8 -16 -15.5 -30.5t-13.5 -31.5q-4 -16 -9 -30.5t-7 -30.5v-2v-2v-6v-10h10q6 2 1 1t3 1q6 0 18 4q18 4 36 11t34 13q39 16 77 31.5t79 32.5q86 31 172 58.5t176 49.5q98 25 195.5 42.5t195.5 27.5t194 12q39 0 85.5 -6t66.5 -45q6 -10 -2 -17.5t-18 -9.5q-29 0 -46 21h3 h-3v2h-4h-2h-2q-4 2 -12 2q-4 0 -8 2h-4h-17q-10 0 -19 -1t-20 -1q-43 -2 -87 -4t-89 -6q-195 -20 -382 -69.5t-371 -119.5l-43 -16l-31 -12q-20 -10 -40 -18.5t-40 -14.5q-20 -8 -40.5 -13.5t-43.5 -7.5q-20 -2 -45 0q-31 6 -43 35q-8 29 -3 56.5zM356 954q-6 12 6 21l9 6 q10 8 24.5 5t24.5 -11h22q10 0 19.5 1t19.5 1q2 0 4 1t7 1h4h2q59 4 119.5 7t119.5 7q186 12 374.5 21.5t375.5 -10.5q25 -5 35 -23q4 -10 0 -16.5t-13 -8.5q-66 -18 -129 -24q-12 0 -25.5 5t-17.5 17q-2 4 -2 13h-59q-190 2 -375.5 -13.5t-374.5 -21.5q-6 -2 -13 -2h-11 q-12 -2 -23.5 -2h-21.5q-27 -4 -51 0q-12 2 -29 7t-21 19zM510 932h10h-8h-2zM857 1110q-3 8 7 16t20.5 14.5t20.5 12.5l45 25q29 10 47 -11q10 -10 16.5 -21t14.5 -22q4 -4 9.5 -9t9.5 -11q2 -6 -0.5 -12.5t-10.5 -8.5q-23 -4 -39 10.5t-30 34.5q-14 -8 -28.5 -17 t-29.5 -19q-8 -4 -19 -3t-20.5 7t-12.5 14zM1210 -133q2 0 4 -2v2h-4zM1214 -133v-2v2zM1214 -135z" />
<glyph unicode="&#xcb;" horiz-adv-x="1185" d="M-132 -320.5q5 27.5 15 52.5v4l6 12q8 23 18.5 42.5t20.5 37.5q145 266 322 506l2 4q-12 -2 -25.5 -3t-25.5 -3l-45 -4q-10 -2 -31 -2q-2 -4 -3 -4t-3 -3q-8 -2 -23 7q-4 4 -5 10t-3 10q-6 10 2 17.5t19 7.5q39 4 75.5 8t75.5 8q8 0 15.5 1t15.5 1l143 195 q27 35 52.5 68.5t50.5 68.5q14 18 27.5 36.5t25.5 37.5l28 39q4 4 7.5 10t7.5 10l2 2q0 2 2 4q2 10 13.5 12t23.5 -1t19 -11t5 -18q-4 -12 -12 -23.5t-16 -21.5q-72 -102 -146.5 -201.5t-146.5 -200.5q119 8 244 13q43 2 87 3t89 -1h84l86 -4q12 -2 28.5 -15.5t-2.5 -28.5 l-18 -14q-10 -6 -21.5 -4t-19.5 8q-4 2 -7 5t-24 3q-20 0 -39.5 1t-40.5 1q-92 0 -180 -2t-178 -8q-33 -2 -63.5 -3t-63.5 -5q-14 -18 -27.5 -37.5t-27.5 -38.5q-45 -63 -87 -126.5t-83 -129.5q-16 -29 -35 -57.5t-35 -56.5l-35 -66v-2q-6 -10 -12 -22.5t-14 -24.5v-2 q-8 -16 -15.5 -30.5t-13.5 -31.5q-4 -16 -9 -30.5t-7 -30.5v-2v-2v-6v-10h10q6 2 1 1t3 1q6 0 18 4q18 4 36 11t34 13q39 16 77 31.5t79 32.5q86 31 172 58.5t176 49.5q98 25 195.5 42.5t195.5 27.5t194 12q39 0 85.5 -6t66.5 -45q6 -10 -2 -17.5t-18 -9.5q-29 0 -46 21h3 h-3v2h-4h-2h-2q-4 2 -12 2q-4 0 -8 2h-4h-17q-10 0 -19 -1t-20 -1q-43 -2 -87 -4t-89 -6q-195 -20 -382 -69.5t-371 -119.5l-43 -16l-31 -12q-20 -10 -40 -18.5t-40 -14.5q-20 -8 -40.5 -13.5t-43.5 -7.5q-20 -2 -45 0q-31 6 -43 35q-8 29 -3 56.5zM356 954q-6 12 6 21l9 6 q10 8 24.5 5t24.5 -11h22q10 0 19.5 1t19.5 1q2 0 4 1t7 1h4h2q59 4 119.5 7t119.5 7q186 12 374.5 21.5t375.5 -10.5q25 -5 35 -23q4 -10 0 -16.5t-13 -8.5q-66 -18 -129 -24q-12 0 -25.5 5t-17.5 17q-2 4 -2 13h-59q-190 2 -375.5 -13.5t-374.5 -21.5q-6 -2 -13 -2h-11 q-12 -2 -23.5 -2h-21.5q-27 -4 -51 0q-12 2 -29 7t-21 19zM510 932h10h-8h-2zM889 1106l6 10q6 8 18 8q27 4 37 -18q2 -2 2 -4q0 -6 -2 -8l2 2l-12 -15q-4 -8 -13 -8t-18 2q-10 0 -14 4q-2 0 -2 2v4l-2 2q-10 10 -2 19zM977 1084.5q-6 7.5 0 15.5l6 8l2 2v2v-2v4q4 8 14.5 8 t18.5 -2q8 -4 18 -12q4 -4 4 -10q0 -10 -12 -23q-6 -10 -17.5 -8t-19.5 6t-14 11.5zM979 1104l4 6v-2zM983 1110h2h-2zM1210 -133q2 0 4 -2v2h-4zM1214 -133v-2v2zM1214 -135z" />
<glyph unicode="&#xcc;" horiz-adv-x="1159" d="M-330 -440q4 10 8 12q59 31 120 54.5t122 43.5q172 57 350 99q35 8 72 14t72 12q8 10 16 22.5t16 22.5l205 275q59 82 121 163.5t123 161.5q53 72 107.5 142.5t109.5 142.5l80 94q6 10 13 17.5t16 15.5l6 6h2l4 4q14 12 31 12q8 2 17 0t13 -10q8 -4 2 -10v-2 q-35 -41 -70.5 -86t-70.5 -88q-55 -72 -110.5 -144.5t-108.5 -146.5l-244 -326q-45 -63 -91 -125.5t-93 -123.5q39 4 77 9t77 9q76 8 150.5 11t150.5 -1q35 -2 66.5 -5t64.5 -9q23 -4 48 -15.5t38 -33.5q6 -8 -2 -17q-12 -27 -39 -32q-10 -4 -21.5 -4t-23.5 -3 q-10 0 -19.5 4.5t-13.5 14.5q-10 14 10 18q8 4 16 4l9 5q6 4 2 0q8 2 8 8q-8 4 -12 4q0 2 -9 2l-28 6l-64 6h-35q-2 0 -5 1t3 1h-8h-16h-63.5t-61.5 -2q-86 -4 -171 -13t-171 -26q-8 -10 -16.5 -21.5t-18.5 -21.5q-10 -12 -18.5 -22.5t-20.5 -14.5h2q-23 -12 -45 7 q-6 4 -9 14t5 16q6 6 11 12.5t12 12.5q-35 -6 -68 -13.5t-68 -15.5q-86 -23 -172 -49q-78 -23 -154.5 -49.5t-152.5 -61.5l-2 -2q-2 0 -10 -4v-2q-4 -10 -14 -10l-7 -2q-2 0 -4 -1t-6 -1q-10 0 -22.5 5t-16.5 15q-2 8 0 15zM-330 -442q0 -4 2 -7.5t0 0.5q0 5 -2 7zM246 748 h2q0 2 4 6h2q4 4 6 4q4 4 7 5t7 3l37 16q23 8 42.5 15.5t41.5 13.5q84 25 168 43t170 35q104 18 209 33.5t211 25.5q98 10 194.5 15.5t194.5 3.5q74 -2 148.5 -8.5t144.5 -34.5q23 -10 44.5 -24.5t33.5 -37.5q10 -16 10 -37q0 -6 -1 -11t-3 -11q0 -2 -4 -10l-2 -5 q0 -2 -2 -4q-4 -10 -16.5 -12t-22.5 2q-8 2 -19.5 11.5t-5.5 19.5l6 22v2v2v3v10q0 2 -2 4q0 2 2 2q-4 4 -4 6q4 -2 -2 4l-6 8q-4 4 0 -1t0 -1l-2 2l-8 6l-2 3l-10 4l-11 6q-6 2 -1 0t3 -2t-3 1t-3 1q-8 4 -24 8l-15 4q-4 0 -10 2t4 0l-30 6l-72 8q-10 0 -19.5 1.5 t-19.5 1.5q-14 0 -23 2h-8h-4h-2h-86q-49 0 -98 -2.5t-97 -6.5q-104 -8 -207.5 -19t-207.5 -28l-27 -4q-4 0 -6 -1t-6 -1l-4 -2h-4q-12 -2 -24.5 -3t-25.5 -5q-25 -4 -48 -8t-48 -11q-86 -14 -174 -36q-35 -10 -69.5 -19.5t-69.5 -21.5l-27 -9l-12 -6q-4 0 -6 -2h-2l-13 -6 v-2q4 -10 -5 -12t-17 0h-6h-6h4h-4h-4q-8 -2 -17.5 2t-15.5 10q-8 12 -2 21zM330 735h2h-2zM840 856h2q2 0 2 1t-4 -1zM1085 -219h2h-2zM1187 1128.5q-7 8.5 1 18.5q4 6 14 7t19 -3q18 -4 35.5 -11t33.5 -16q12 -4 25.5 -9t23.5 -15q8 -6 11.5 -16.5t-7.5 -16.5 q-10 -6 -24 -4t-25 10q0 2 4.5 -1t-2.5 1q-2 0 -10 4t-29 13q-14 6 -28.5 12t-28.5 14q-6 4 -13 12.5zM1229 860q4 2 5 3t-1 -1t-4 -2zM1272 872h2h-2zM1292 850h2h-2zM1294 856q2 0 2 -2q0 2 -2 2zM1826 877.5q3 -0.5 5 -3.5l2 -2q-10 6 -7 5.5zM1845 860l4 -4zM1909 782h2 h-2z" />
<glyph unicode="&#xcd;" horiz-adv-x="1159" d="M-330 -440q4 10 8 12q59 31 120 54.5t122 43.5q172 57 350 99q35 8 72 14t72 12q8 10 16 22.5t16 22.5l205 275q59 82 121 163.5t123 161.5q53 72 107.5 142.5t109.5 142.5l80 94q6 10 13 17.5t16 15.5l6 6h2l4 4q14 12 31 12q8 2 17 0t13 -10q8 -4 2 -10v-2 q-35 -41 -70.5 -86t-70.5 -88q-55 -72 -110.5 -144.5t-108.5 -146.5l-244 -326q-45 -63 -91 -125.5t-93 -123.5q39 4 77 9t77 9q76 8 150.5 11t150.5 -1q35 -2 66.5 -5t64.5 -9q23 -4 48 -15.5t38 -33.5q6 -8 -2 -17q-12 -27 -39 -32q-10 -4 -21.5 -4t-23.5 -3 q-10 0 -19.5 4.5t-13.5 14.5q-10 14 10 18q8 4 16 4l9 5q6 4 2 0q8 2 8 8q-8 4 -12 4q0 2 -9 2l-28 6l-64 6h-35q-2 0 -5 1t3 1h-8h-16h-63.5t-61.5 -2q-86 -4 -171 -13t-171 -26q-8 -10 -16.5 -21.5t-18.5 -21.5q-10 -12 -18.5 -22.5t-20.5 -14.5h2q-23 -12 -45 7 q-6 4 -9 14t5 16q6 6 11 12.5t12 12.5q-35 -6 -68 -13.5t-68 -15.5q-86 -23 -172 -49q-78 -23 -154.5 -49.5t-152.5 -61.5l-2 -2q-2 0 -10 -4v-2q-4 -10 -14 -10l-7 -2q-2 0 -4 -1t-6 -1q-10 0 -22.5 5t-16.5 15q-2 8 0 15zM-330 -442q0 -4 2 -7.5t0 0.5q0 5 -2 7zM246 748 h2q0 2 4 6h2q4 4 6 4q4 4 7 5t7 3l37 16q23 8 42.5 15.5t41.5 13.5q84 25 168 43t170 35q104 18 209 33.5t211 25.5q98 10 194.5 15.5t194.5 3.5q74 -2 148.5 -8.5t144.5 -34.5q23 -10 44.5 -24.5t33.5 -37.5q10 -16 10 -37q0 -6 -1 -11t-3 -11q0 -2 -4 -10l-2 -5 q0 -2 -2 -4q-4 -10 -16.5 -12t-22.5 2q-8 2 -19.5 11.5t-5.5 19.5l6 22v2v2v3v10q0 2 -2 4q0 2 2 2q-4 4 -4 6q4 -2 -2 4l-6 8q-4 4 0 -1t0 -1l-2 2l-8 6l-2 3l-10 4l-11 6q-6 2 -1 0t3 -2t-3 1t-3 1q-8 4 -24 8l-15 4q-4 0 -10 2t4 0l-30 6l-72 8q-10 0 -19.5 1.5 t-19.5 1.5q-14 0 -23 2h-8h-4h-2h-86q-49 0 -98 -2.5t-97 -6.5q-104 -8 -207.5 -19t-207.5 -28l-27 -4q-4 0 -6 -1t-6 -1l-4 -2h-4q-12 -2 -24.5 -3t-25.5 -5q-25 -4 -48 -8t-48 -11q-86 -14 -174 -36q-35 -10 -69.5 -19.5t-69.5 -21.5l-27 -9l-12 -6q-4 0 -6 -2h-2l-13 -6 v-2q4 -10 -5 -12t-17 0h-6h-6h4h-4h-4q-8 -2 -17.5 2t-15.5 10q-8 12 -2 21zM330 735h2h-2zM840 856h2q2 0 2 1t-4 -1zM1085 -219h2h-2zM1122 1083q2 4 8.5 8.5t10.5 8.5q18 10 45 20q12 4 24.5 8.5t24.5 8.5q4 0 12 4q2 0 4 1t4 1q10 6 21 10q10 4 21.5 1t19.5 -9 q6 -4 11 -13.5t-3 -15.5q-10 -8 -22.5 -12t-22.5 -8q-12 -4 -23.5 -6.5t-23.5 -6.5t-23 -8q-4 0 -6 -1t-6 -1q0 -2 -4 -3t-2 1q-10 -6 -20.5 -12t-22.5 -4q-10 2 -20.5 9t-6.5 19zM1229 860q4 2 5 3t-1 -1t-4 -2zM1272 872h2h-2zM1292 850h2h-2zM1294 856q2 0 2 -2q0 2 -2 2 zM1826 877.5q3 -0.5 5 -3.5l2 -2q-10 6 -7 5.5zM1845 860l4 -4zM1909 782h2h-2z" />
<glyph unicode="&#xce;" horiz-adv-x="1159" d="M-330 -440q4 10 8 12q59 31 120 54.5t122 43.5q172 57 350 99q35 8 72 14t72 12q8 10 16 22.5t16 22.5l205 275q59 82 121 163.5t123 161.5q53 72 107.5 142.5t109.5 142.5l80 94q6 10 13 17.5t16 15.5l6 6h2l4 4q14 12 31 12q8 2 17 0t13 -10q8 -4 2 -10v-2 q-35 -41 -70.5 -86t-70.5 -88q-55 -72 -110.5 -144.5t-108.5 -146.5l-244 -326q-45 -63 -91 -125.5t-93 -123.5q39 4 77 9t77 9q76 8 150.5 11t150.5 -1q35 -2 66.5 -5t64.5 -9q23 -4 48 -15.5t38 -33.5q6 -8 -2 -17q-12 -27 -39 -32q-10 -4 -21.5 -4t-23.5 -3 q-10 0 -19.5 4.5t-13.5 14.5q-10 14 10 18q8 4 16 4l9 5q6 4 2 0q8 2 8 8q-8 4 -12 4q0 2 -9 2l-28 6l-64 6h-35q-2 0 -5 1t3 1h-8h-16h-63.5t-61.5 -2q-86 -4 -171 -13t-171 -26q-8 -10 -16.5 -21.5t-18.5 -21.5q-10 -12 -18.5 -22.5t-20.5 -14.5h2q-23 -12 -45 7 q-6 4 -9 14t5 16q6 6 11 12.5t12 12.5q-35 -6 -68 -13.5t-68 -15.5q-86 -23 -172 -49q-78 -23 -154.5 -49.5t-152.5 -61.5l-2 -2q-2 0 -10 -4v-2q-4 -10 -14 -10l-7 -2q-2 0 -4 -1t-6 -1q-10 0 -22.5 5t-16.5 15q-2 8 0 15zM-330 -442q0 -4 2 -7.5t0 0.5q0 5 -2 7zM246 748 h2q0 2 4 6h2q4 4 6 4q4 4 7 5t7 3l37 16q23 8 42.5 15.5t41.5 13.5q84 25 168 43t170 35q104 18 209 33.5t211 25.5q98 10 194.5 15.5t194.5 3.5q74 -2 148.5 -8.5t144.5 -34.5q23 -10 44.5 -24.5t33.5 -37.5q10 -16 10 -37q0 -6 -1 -11t-3 -11q0 -2 -4 -10l-2 -5 q0 -2 -2 -4q-4 -10 -16.5 -12t-22.5 2q-8 2 -19.5 11.5t-5.5 19.5l6 22v2v2v3v10q0 2 -2 4q0 2 2 2q-4 4 -4 6q4 -2 -2 4l-6 8q-4 4 0 -1t0 -1l-2 2l-8 6l-2 3l-10 4l-11 6q-6 2 -1 0t3 -2t-3 1t-3 1q-8 4 -24 8l-15 4q-4 0 -10 2t4 0l-30 6l-72 8q-10 0 -19.5 1.5 t-19.5 1.5q-14 0 -23 2h-8h-4h-2h-86q-49 0 -98 -2.5t-97 -6.5q-104 -8 -207.5 -19t-207.5 -28l-27 -4q-4 0 -6 -1t-6 -1l-4 -2h-4q-12 -2 -24.5 -3t-25.5 -5q-25 -4 -48 -8t-48 -11q-86 -14 -174 -36q-35 -10 -69.5 -19.5t-69.5 -21.5l-27 -9l-12 -6q-4 0 -6 -2h-2l-13 -6 v-2q4 -10 -5 -12t-17 0h-6h-6h4h-4h-4q-8 -2 -17.5 2t-15.5 10q-8 12 -2 21zM330 735h2h-2zM840 856h2q2 0 2 1t-4 -1zM1085 -219h2h-2zM1187 1073q-3 8 7 17q10 8 20.5 14t20.5 12l45 25q29 10 47 -11q10 -10 16.5 -21t14.5 -22l9 -9t9 -11q2 -6 0 -12t-10 -8 q-23 -4 -39 10t-31 35q-14 -8 -28.5 -17.5t-28.5 -19.5q-8 -4 -19.5 -3t-20.5 7t-12 14zM1229 860q4 2 5 3t-1 -1t-4 -2zM1272 872h2h-2zM1292 850h2h-2zM1294 856q2 0 2 -2q0 2 -2 2zM1826 877.5q3 -0.5 5 -3.5l2 -2q-10 6 -7 5.5zM1845 860l4 -4zM1909 782h2h-2z" />
<glyph unicode="&#xcf;" horiz-adv-x="1159" d="M-330 -440q4 10 8 12q59 31 120 54.5t122 43.5q172 57 350 99q35 8 72 14t72 12q8 10 16 22.5t16 22.5l205 275q59 82 121 163.5t123 161.5q53 72 107.5 142.5t109.5 142.5l80 94q6 10 13 17.5t16 15.5l6 6h2l4 4q14 12 31 12q8 2 17 0t13 -10q8 -4 2 -10v-2 q-35 -41 -70.5 -86t-70.5 -88q-55 -72 -110.5 -144.5t-108.5 -146.5l-244 -326q-45 -63 -91 -125.5t-93 -123.5q39 4 77 9t77 9q76 8 150.5 11t150.5 -1q35 -2 66.5 -5t64.5 -9q23 -4 48 -15.5t38 -33.5q6 -8 -2 -17q-12 -27 -39 -32q-10 -4 -21.5 -4t-23.5 -3 q-10 0 -19.5 4.5t-13.5 14.5q-10 14 10 18q8 4 16 4l9 5q6 4 2 0q8 2 8 8q-8 4 -12 4q0 2 -9 2l-28 6l-64 6h-37q-6 0 -8 2h-16h-63.5t-61.5 -2q-86 -4 -171 -13t-171 -26q-8 -10 -16.5 -21.5t-18.5 -21.5q-10 -12 -18.5 -22.5t-20.5 -14.5h2q-23 -12 -45 7q-6 4 -9 14t5 16 q6 6 11 12.5t12 12.5q-35 -6 -68 -13.5t-68 -15.5q-86 -23 -172 -49q-78 -23 -154.5 -49.5t-152.5 -61.5l-2 -2q-2 0 -10 -4v-2q-4 -10 -14 -10l-7 -2q-2 0 -4 -1t-6 -1q-10 0 -22.5 5t-16.5 15q-2 8 0 15zM-330 -442q0 -4 2 -7.5t0 0.5q0 5 -2 7zM246 748h2q0 2 4 6h2 q4 4 6 4q4 4 7 5t7 3l37 16q23 8 42.5 15.5t41.5 13.5q84 25 168 43t170 35q104 18 209 33.5t211 25.5q98 10 194.5 15.5t194.5 3.5q74 -2 148.5 -8.5t144.5 -34.5q23 -10 44.5 -24.5t33.5 -37.5q10 -16 10 -37q0 -6 -1 -11t-3 -11q0 -2 -4 -10l-2 -5q0 -2 -2 -4 q-4 -10 -16.5 -12t-22.5 2q-8 2 -19.5 11.5t-5.5 19.5l6 22v2v2v3v10q0 2 -2 4q0 2 2 2q-4 4 -4 6q4 -2 -2 4l-6 8q-4 4 0 -1t0 -1l-2 2l-8 6l-2 3l-10 4l-11 6q-6 2 -1 0t3 -2t-3 1t-3 1q-8 4 -24 8l-15 4q-4 0 -10 2t4 0l-30 6l-72 8q-10 0 -19.5 1.5t-19.5 1.5 q-14 0 -23 2h-8h-4h-2h-86q-49 0 -98 -2.5t-97 -6.5q-104 -8 -207.5 -19t-207.5 -28l-27 -4q-4 0 -6 -1t-6 -1l-4 -2h-4q-12 -2 -24.5 -3t-25.5 -5q-25 -4 -48 -8t-48 -11q-86 -14 -174 -36q-35 -10 -69.5 -19.5t-69.5 -21.5l-27 -9l-12 -6q-4 0 -6 -2h-2l-13 -6v-2 q4 -10 -5 -12t-17 0h-6h-6h4h-4h-4q-8 -2 -17.5 2t-15.5 10q-8 12 -2 21zM330 735h2h-2zM840 856h2q2 0 2 1t-4 -1zM1085 -219h2h-2zM1226 1047.5q-1 5.5 3 9.5l6 10q6 8 18 8q27 4 37 -18q2 -2 2 -4q0 -6 -2 -9l2 3l-12 -15q-4 -8 -13.5 -8t-17.5 2q-10 0 -14 4q-2 0 -2 2 v4l-2 2q-4 4 -5 9.5zM1229 860q4 2 5 3t-1 -1t-4 -2zM1272 872h2h-2zM1292 850h2h-2zM1294 856q2 0 2 -2q0 2 -2 2zM1317 1035q-6 7 0 16l6 8l2 2v2v-2v4q4 8 14.5 8t18.5 -2q8 -4 18 -12q4 -4 4 -10q0 -10 -12 -23q-6 -10 -17.5 -8t-19.5 6t-14 11zM1319 1055l4 6v-2z M1323 1061h2h-2zM1826 877.5q3 -0.5 5 -3.5l2 -2q-10 6 -7 5.5zM1845 860l4 -4zM1909 782h2h-2z" />
<glyph unicode="&#xd1;" horiz-adv-x="1423" d="M-35 -371q-2 16 6.5 32.5t16.5 31.5q14 25 28.5 48t30.5 48q33 47 65.5 93t63.5 93q23 35 44.5 69t43.5 69q25 39 50.5 75.5t52.5 75.5l217 311q55 82 113.5 161t111.5 163l53 80q12 20 23.5 40.5t23.5 39.5q10 14 18.5 27.5t14.5 27.5q4 6 6 13.5t6 15.5h-2l-20 -6 l-14 -7h-5l-4 -4q-16 -4 -26 -12q-14 -6 -27.5 -13t-28.5 -16q-27 -16 -51 -32.5t-49 -32.5q-49 -35 -96 -73t-92 -77q-63 -53 -125 -109t-121 -116q-29 -29 -56.5 -58.5t-52.5 -62.5q-23 -31 -41 -59l-14 -27q10 -12 -2 -26q-8 -12 -16 -15q-4 0 -6.5 -1t-6.5 -1 q-16 -4 -31.5 2t-19.5 23q-2 8 1 14t7 12l11 21l24 41q10 20 23.5 37.5t27.5 36.5q29 33 59.5 63.5l61.5 61.5l129 120q53 47 107.5 93.5t111.5 91.5q82 68 185 125q57 33 112 51q14 4 34 7t38 0t31.5 -13.5t15.5 -30.5q2 -35 -18.5 -65.5t-36.5 -59.5q-23 -41 -48.5 -82 t-52.5 -82q-55 -82 -112.5 -161.5t-114.5 -159.5l-217 -314q-27 -37 -51.5 -73.5t-48.5 -75.5q-23 -35 -44.5 -68t-43.5 -67q-29 -43 -58.5 -86t-60.5 -86l106 125q127 150 255 296t259 293q59 66 119 130.5t121 125.5q47 47 97 91.5t104 85.5q29 23 58.5 46t61.5 42 q59 33 117 47q29 8 60.5 10t60.5 -6q27 -8 48.5 -24.5t25.5 -45.5q4 -14 2 -27.5t-6 -27.5q-4 -16 -10.5 -33.5t-12.5 -34.5q-29 -72 -72 -145q-47 -84 -96 -165t-96 -163l-61 -108l-13 -19q0 -2 -1 -2t-1 -2v-4l-4 -4l-16 -33q-27 -51 -50.5 -102t-46.5 -105 q-20 -47 -36.5 -96t-26.5 -100q-4 -12 -6 -25.5t-4 -26.5q-2 -6 -2 -14v-2v-4q0 -4 -1 -7t1 -7q10 -2 22 -9.5t12 -17.5q0 -8 -2 -10q0 -10 -3 -17.5t-13 -11.5q-18 -6 -41 6q-12 4 -23.5 12.5t-15.5 20.5q-10 20 -8 43t6 45q8 53 23.5 106.5t36.5 104.5q10 29 23 55.5 t26 53.5l45 100q18 39 38.5 77t43.5 74l184 312q23 37 43 73.5t37 75.5q16 33 30.5 68t22.5 70q2 6 2 16v6v10q0 4 -2 4q0 2 -4 11l-2 2q-2 0 -4 2h-2l4 -2q-2 0 -4 2h-4h-2q-2 2 -6 2h-3h-2q-16 0 -24 -2q-4 0 -9 -1t1 1q-4 0 -6.5 -1t-6.5 -1q-29 -6 -57 -19q-2 0 -10 -4 q4 4 2 2t-4 -2l-13 -6q-16 -6 -26 -14q-33 -18 -62.5 -41t-58.5 -45q-51 -41 -99 -83t-96 -89q-63 -61 -121.5 -125t-117.5 -129q-262 -293 -516 -590q-33 -39 -63.5 -78t-65.5 -76q-16 -20 -35 -39.5t-41 -38.5q-16 -14 -34.5 -25t-43.5 -9q-10 0 -20.5 5t-14.5 15 q-4 8 -4 10zM965 1145h2q2 0 2 1t-4 -1zM1362 1151q-6 14 6 25q6 6 16 10q14 8 37 12q18 2 38 -3t34 -21h8h6q-6 0 -4 1t4 1q4 0 13 4q2 2 4 2q4 0 8 4q6 2 18 10q10 4 21.5 2t19.5 -8q16 -12 8 -27q-20 -29 -61 -36t-74 8q-8 4 -20 16h-2q-4 0 -12 -4q-4 0 -17 -8 q-4 -2 -18 -2l-2 -2q-8 0 -17.5 4t-13.5 12zM1530 1012l2 -2zM1532 1010h2h-2zM1532 1010q2 0 2 -1t2 -1q-2 0 -2 2h-2z" />
<glyph unicode="&#xd2;" horiz-adv-x="1341" d="M-205 -187.5q10 68.5 31 132.5q16 57 43 118q14 33 30.5 64t32.5 63q84 152 189 299q53 74 108.5 145t114.5 136q61 70 127.5 133.5t142.5 118.5q8 6 21.5 4t24 -9t14.5 -16.5t-8 -17.5q-14 -10 -26.5 -21.5t-27.5 -21.5q-72 -59 -134 -123.5t-122 -136.5 q-57 -68 -111.5 -138.5t-103.5 -144.5q-49 -72 -94 -148.5t-86 -154.5q-29 -53 -49.5 -111.5t-34.5 -117.5q-16 -72 -16 -131v-31.5t4 -32.5q2 -4 2 -8t2 -8q0 -6 2 -8v-4v2q2 -8 4 -14.5t6 -14.5q4 -6 7 -13.5t8 -13.5q-4 4 -2 2l4 -4q0 -2 4 -6q2 -2 3 -4t5 -6l6 -6l2 -2 q6 -6 10 -8q4 -4 6.5 -5.5t6.5 -5.5q2 0 3 -1t3 -1q4 -6 14 -8q2 -2 8 -5t-2 1q6 -2 13.5 -4t13.5 -4q4 -2 10 -2q2 -2 5 -2t-5 2q4 -2 7 -2t7 -2q8 -2 15.5 -2t15.5 -2h19h2h8h31q10 2 17 2t17 2q10 0 17 2h8h4q2 0 1 1t-3 1q61 8 123 30q8 2 14 4.5t15 6.5q4 2 6 2t6 2 q2 0 3 1t3 1q10 4 21.5 10t21.5 10q33 18 63.5 37t61.5 39q135 88 250.5 196.5t218.5 233.5q104 129 197 281q23 39 43 75.5t40 77.5q27 51 50 111q10 25 17 48.5t13 49.5q4 12 6.5 25.5t4.5 25.5q2 8 3 14.5t1 12.5q0 4 2 8q0 4 -1 0t1 2v13q4 53 -8 98q0 4 -3 8q0 4 1.5 0 t-1.5 0q0 4 -1 5t-1 5q-4 4 -5 10.5t-5 10.5q-4 8 -6 10q0 2 -1 3t-1 3q4 -6 2 -4t-2 4q-4 6 -14 17q-4 4 -4 6q-4 2 -9 6q-4 2 -5 3t-5 3l-4 4q6 -4 4 -3t-4 3l-12 6q-2 2 -8.5 4t4.5 -2q-10 4 -27 8q-2 2 -10 3q-6 2 1 1t-1 -1q-4 2 -7 2t-8 2q-8 0 -16 1t-16 1h-6h-9h-16 q-8 0 -16.5 -1t-16.5 -1q-6 -2 -20 -2q4 0 4 -1t-2 -1h-4h-9q-12 -4 -32 -9q-8 -4 -16.5 -5t-16.5 -5q-12 -4 -16 -6q-2 -2 -4.5 -2t-4.5 -2h-4q-33 -16 -63.5 -32.5t-59.5 -37.5q-117 -80 -209 -190.5t-165 -231.5q-8 -10 -23.5 -8t-23.5 6q-10 4 -16.5 14.5t-0.5 20.5 q25 41 50.5 78t54.5 74q47 59 96 113.5t104 101.5q57 47 119 87t133 62q35 12 71 18.5t70 8.5q35 2 71 -2t71 -17q29 -10 54.5 -26.5t43.5 -38.5q33 -37 45 -90q12 -51 8 -104.5t-14 -104.5q-14 -53 -33.5 -104.5t-44.5 -100.5q-78 -156 -175 -298t-216 -269 q-106 -117 -228 -215.5t-259 -175.5q-104 -55 -222 -80q-66 -12 -136 -14.5t-136 22.5q-33 12 -61.5 30.5t-51.5 47.5q-37 47 -51 116q-10 66 0 134.5zM1092.5 1253.5q-7.5 8.5 1.5 18.5q4 6 14 7t18 -3q18 -4 36 -11.5t34 -15.5q12 -4 25.5 -9t23.5 -15q8 -6 11.5 -16.5 t-7.5 -16.5q-10 -6 -24.5 -4t-24.5 10q0 2 4 -1t-2 1q-2 0 -10 4t-29 12q-14 6 -28.5 12.5t-28.5 14.5q-6 4 -13.5 12.5z" />
<glyph unicode="&#xd3;" horiz-adv-x="1341" d="M-205 -187.5q10 68.5 31 132.5q16 57 43 118q14 33 30.5 64t32.5 63q84 152 189 299q53 74 108.5 145t114.5 136q61 70 127.5 133.5t142.5 118.5q8 6 21.5 4t24 -9t14.5 -16.5t-8 -17.5q-14 -10 -26.5 -21.5t-27.5 -21.5q-72 -59 -134 -123.5t-122 -136.5 q-57 -68 -111.5 -138.5t-103.5 -144.5q-49 -72 -94 -148.5t-86 -154.5q-29 -53 -49.5 -111.5t-34.5 -117.5q-16 -72 -16 -131v-31.5t4 -32.5q2 -4 2 -8t2 -8q0 -6 2 -8v-4v2q2 -8 4 -14.5t6 -14.5q4 -6 7 -13.5t8 -13.5q-4 4 -2 2l4 -4q0 -2 4 -6q2 -2 3 -4t5 -6l6 -6l2 -2 q6 -6 10 -8q4 -4 6.5 -5.5t6.5 -5.5q2 0 3 -1t3 -1q4 -6 14 -8q2 -2 8 -5t-2 1q6 -2 13.5 -4t13.5 -4q4 -2 10 -2q2 -2 5 -2t-5 2q4 -2 7 -2t7 -2q8 -2 15.5 -2t15.5 -2h19h2h8h31q10 2 17 2t17 2q10 0 17 2h8h4q2 0 1 1t-3 1q61 8 123 30q8 2 14 4.5t15 6.5q4 2 6 2t6 2 q2 0 3 1t3 1q10 4 21.5 10t21.5 10q33 18 63.5 37t61.5 39q135 88 250.5 196.5t218.5 233.5q104 129 197 281q23 39 43 75.5t40 77.5q27 51 50 111q10 25 17 48.5t13 49.5q4 12 6.5 25.5t4.5 25.5q2 8 3 14.5t1 12.5q0 4 2 8q0 4 -1 0t1 2v13q4 53 -8 98q0 4 -3 8q0 4 1.5 0 t-1.5 0q0 4 -1 5t-1 5q-4 4 -5 10.5t-5 10.5q-4 8 -6 10q0 2 -1 3t-1 3q4 -6 2 -4t-2 4q-4 6 -14 17q-4 4 -4 6q-4 2 -9 6q-4 2 -5 3t-5 3l-4 4q6 -4 4 -3t-4 3l-12 6q-2 2 -8.5 4t4.5 -2q-10 4 -27 8q-2 2 -10 3q-6 2 1 1t-1 -1q-4 2 -7 2t-8 2q-8 0 -16 1t-16 1h-6h-9h-16 q-8 0 -16.5 -1t-16.5 -1q-6 -2 -20 -2q4 0 4 -1t-2 -1h-4h-9q-12 -4 -32 -9q-8 -4 -16.5 -5t-16.5 -5q-12 -4 -16 -6q-2 -2 -4.5 -2t-4.5 -2h-4q-33 -16 -63.5 -32.5t-59.5 -37.5q-117 -80 -209 -190.5t-165 -231.5q-8 -10 -23.5 -8t-23.5 6q-10 4 -16.5 14.5t-0.5 20.5 q25 41 50.5 78t54.5 74q47 59 96 113.5t104 101.5q57 47 119 87t133 62q35 12 71 18.5t70 8.5q35 2 71 -2t71 -17q29 -10 54.5 -26.5t43.5 -38.5q33 -37 45 -90q12 -51 8 -104.5t-14 -104.5q-14 -53 -33.5 -104.5t-44.5 -100.5q-78 -156 -175 -298t-216 -269 q-106 -117 -228 -215.5t-259 -175.5q-104 -55 -222 -80q-66 -12 -136 -14.5t-136 22.5q-33 12 -61.5 30.5t-51.5 47.5q-37 47 -51 116q-10 66 0 134.5zM946 1210q2 4 8.5 8.5t10.5 8.5q18 10 45 20q12 4 24.5 8.5t24.5 8.5q4 0 12 4q2 0 4 1t4 1q10 6 21 10q10 4 21.5 1 t19.5 -9q6 -4 11 -13.5t-3 -15.5q-10 -8 -22.5 -12t-22.5 -8q-12 -4 -23.5 -6.5t-23.5 -6.5t-23 -8q-4 0 -6 -1t-6 -1q0 -2 -4 -3t-2 1q-10 -6 -20.5 -12t-22.5 -4q-10 2 -20.5 9t-6.5 19z" />
<glyph unicode="&#xd4;" horiz-adv-x="1341" d="M-205 -187.5q10 68.5 31 132.5q16 57 43 118q14 33 30.5 64t32.5 63q84 152 189 299q53 74 108.5 145t114.5 136q61 70 127.5 133.5t142.5 118.5q8 6 21.5 4t24 -9t14.5 -16.5t-8 -17.5q-14 -10 -26.5 -21.5t-27.5 -21.5q-72 -59 -134 -123.5t-122 -136.5 q-57 -68 -111.5 -138.5t-103.5 -144.5q-49 -72 -94 -148.5t-86 -154.5q-29 -53 -49.5 -111.5t-34.5 -117.5q-16 -72 -16 -131v-31.5t4 -32.5q2 -4 2 -8t2 -8q0 -6 2 -8v-4v2q2 -8 4 -14.5t6 -14.5q4 -6 7 -13.5t8 -13.5q-4 4 -2 2l4 -4q0 -2 4 -6q2 -2 3 -4t5 -6l6 -6l2 -2 q6 -6 10 -8q4 -4 6.5 -5.5t6.5 -5.5q2 0 3 -1t3 -1q4 -6 14 -8q2 -2 8 -5t-2 1q6 -2 13.5 -4t13.5 -4q4 -2 10 -2q2 -2 5 -2t-5 2q4 -2 7 -2t7 -2q8 -2 15.5 -2t15.5 -2h19h2h8h31q10 2 17 2t17 2q10 0 17 2h8h4q2 0 1 1t-3 1q61 8 123 30q8 2 14 4.5t15 6.5q4 2 6 2t6 2 q2 0 3 1t3 1q10 4 21.5 10t21.5 10q33 18 63.5 37t61.5 39q135 88 250.5 196.5t218.5 233.5q104 129 197 281q23 39 43 75.5t40 77.5q27 51 50 111q10 25 17 48.5t13 49.5q4 12 6.5 25.5t4.5 25.5q2 8 3 14.5t1 12.5q0 4 2 8q0 4 -1 0t1 2v13q4 53 -8 98q0 4 -3 8q0 4 1.5 0 t-1.5 0q0 4 -1 5t-1 5q-4 4 -5 10.5t-5 10.5q-4 8 -6 10q0 2 -1 3t-1 3q4 -6 2 -4t-2 4q-4 6 -14 17q-4 4 -4 6q-4 2 -9 6q-4 2 -5 3t-5 3l-4 4q6 -4 4 -3t-4 3l-12 6q-2 2 -8.5 4t4.5 -2q-10 4 -27 8q-2 2 -10 3q-6 2 1 1t-1 -1q-4 2 -7 2t-8 2q-8 0 -16 1t-16 1h-6h-9h-16 q-8 0 -16.5 -1t-16.5 -1q-6 -2 -20 -2q4 0 4 -1t-2 -1h-4h-9q-12 -4 -32 -9q-8 -4 -16.5 -5t-16.5 -5q-12 -4 -16 -6q-2 -2 -4.5 -2t-4.5 -2h-4q-33 -16 -63.5 -32.5t-59.5 -37.5q-117 -80 -209 -190.5t-165 -231.5q-8 -10 -23.5 -8t-23.5 6q-10 4 -16.5 14.5t-0.5 20.5 q25 41 50.5 78t54.5 74q47 59 96 113.5t104 101.5q57 47 119 87t133 62q35 12 71 18.5t70 8.5q35 2 71 -2t71 -17q29 -10 54.5 -26.5t43.5 -38.5q33 -37 45 -90q12 -51 8 -104.5t-14 -104.5q-14 -53 -33.5 -104.5t-44.5 -100.5q-78 -156 -175 -298t-216 -269 q-106 -117 -228 -215.5t-259 -175.5q-104 -55 -222 -80q-66 -12 -136 -14.5t-136 22.5q-33 12 -61.5 30.5t-51.5 47.5q-37 47 -51 116q-10 66 0 134.5zM1148 1184q-3 8 7 16t20.5 14.5t20.5 12.5l45 24q29 10 47 -10q10 -10 16.5 -21.5t14.5 -21.5l9 -9t9 -11q2 -6 0 -12.5 t-10 -8.5q-23 -4 -39 10.5t-31 34.5q-14 -8 -28.5 -17t-28.5 -20q-8 -4 -19.5 -3t-20.5 7.5t-12 14.5z" />
<glyph unicode="&#xd5;" horiz-adv-x="1341" d="M-205 -187.5q10 68.5 31 132.5q16 57 43 118q14 33 30.5 64t32.5 63q84 152 189 299q53 74 108.5 145t114.5 136q61 70 127.5 133.5t142.5 118.5q8 6 21.5 4t24 -9t14.5 -16.5t-8 -17.5q-14 -10 -26.5 -21.5t-27.5 -21.5q-72 -59 -134 -123.5t-122 -136.5 q-57 -68 -111.5 -138.5t-103.5 -144.5q-49 -72 -94 -148.5t-86 -154.5q-29 -53 -49.5 -111.5t-34.5 -117.5q-16 -72 -16 -131v-31.5t4 -32.5q2 -4 2 -8t2 -8q0 -6 2 -8v-4v2q2 -8 4 -14.5t6 -14.5q4 -6 7 -13.5t8 -13.5q-4 4 -2 2l4 -4q0 -2 4 -6q2 -2 3 -4t5 -6l6 -6l2 -2 q6 -6 10 -8q4 -4 6.5 -5.5t6.5 -5.5q2 0 3 -1t3 -1q4 -6 14 -8q2 -2 8 -5t-2 1q6 -2 13.5 -4t13.5 -4q4 -2 10 -2q2 -2 5 -2t-5 2q4 -2 7 -2t7 -2q8 -2 15.5 -2t15.5 -2h19h2h8h31q10 2 17 2t17 2q10 0 17 2h8h4q2 0 1 1t-3 1q61 8 123 30q8 2 14 4.5t15 6.5q4 2 6 2t6 2 q2 0 3 1t3 1q10 4 21.5 10t21.5 10q33 18 63.5 37t61.5 39q135 88 250.5 196.5t218.5 233.5q104 129 197 281q23 39 43 75.5t40 77.5q27 51 50 111q10 25 17 48.5t13 49.5q4 12 6.5 25.5t4.5 25.5q2 8 3 14.5t1 12.5q0 4 2 8q0 4 -1 0t1 2v13q4 53 -8 98q0 4 -3 8q0 4 1.5 0 t-1.5 0q0 4 -1 5t-1 5q-4 4 -5 10.5t-5 10.5q-4 8 -6 10q0 2 -1 3t-1 3q4 -6 2 -4t-2 4q-4 6 -14 17q-4 4 -4 6q-4 2 -9 6q-4 2 -5 3t-5 3l-4 4q6 -4 4 -3t-4 3l-12 6q-2 2 -8.5 4t4.5 -2q-10 4 -27 8q-2 2 -10 3q-6 2 1 1t-1 -1q-4 2 -7 2t-8 2q-8 0 -16 1t-16 1h-6h-9h-16 q-8 0 -16.5 -1t-16.5 -1q-6 -2 -20 -2q4 0 4 -1t-2 -1h-4h-9q-12 -4 -32 -9q-8 -4 -16.5 -5t-16.5 -5q-12 -4 -16 -6q-2 -2 -4.5 -2t-4.5 -2h-4q-33 -16 -63.5 -32.5t-59.5 -37.5q-117 -80 -209 -190.5t-165 -231.5q-8 -10 -23.5 -8t-23.5 6q-10 4 -16.5 14.5t-0.5 20.5 q25 41 50.5 78t54.5 74q47 59 96 113.5t104 101.5q57 47 119 87t133 62q35 12 71 18.5t70 8.5q35 2 71 -2t71 -17q29 -10 54.5 -26.5t43.5 -38.5q33 -37 45 -90q12 -51 8 -104.5t-14 -104.5q-14 -53 -33.5 -104.5t-44.5 -100.5q-78 -156 -175 -298t-216 -269 q-106 -117 -228 -215.5t-259 -175.5q-104 -55 -222 -80q-66 -12 -136 -14.5t-136 22.5q-33 12 -61.5 30.5t-51.5 47.5q-37 47 -51 116q-10 66 0 134.5zM1065 1229q-6 14 6 24q6 6 16 11q14 8 37 12q20 2 40 -4t34 -23q2 -2 5 -4t-3 2q4 -4 -1 0t-1 2q-4 2 -10 2h2h4h10h6 q-6 0 -4 1t4 1q4 0 13 4l4 3q4 0 8 4q6 2 18 10q10 4 21.5 2t19.5 -8q16 -12 9 -27q-20 -29 -61.5 -36t-74.5 7q-14 6 -22 19l-4 4q6 -6 2 -4q4 0 4 -2q-4 4 1 1t-1 -1q-4 2 -3 2t5 -2h-2h-2q-4 0 -12 -4q-4 0 -17 -8q-10 -6 -26 -3q0 8 1 15.5t1 15.5h6h-11h7q4 2 12 -1 t4 -9v-4q4 -8 -2 -12.5t-12 -6.5q-8 0 -17.5 4.5t-13.5 12.5z" />
<glyph unicode="&#xd6;" horiz-adv-x="1341" d="M-205 -187.5q10 68.5 31 132.5q16 57 43 118q14 33 30.5 64t32.5 63q84 152 189 299q53 74 108.5 145t114.5 136q61 70 127.5 133.5t142.5 118.5q8 6 21.5 4t24 -9t14.5 -16.5t-8 -17.5q-14 -10 -26.5 -21.5t-27.5 -21.5q-72 -59 -134 -123.5t-122 -136.5 q-57 -68 -111.5 -138.5t-103.5 -144.5q-49 -72 -94 -148.5t-86 -154.5q-29 -53 -49.5 -111.5t-34.5 -117.5q-16 -72 -16 -131v-31.5t4 -32.5q2 -4 2 -8t2 -8q0 -6 2 -8v-4v2q2 -8 4 -14.5t6 -14.5q4 -6 7 -13.5t8 -13.5q-4 4 -2 2l4 -4q0 -2 4 -6q2 -2 3 -4t5 -6l6 -6l2 -2 q6 -6 10 -8q4 -4 6.5 -5.5t6.5 -5.5q2 0 3 -1t3 -1q4 -6 14 -8q2 -2 8 -5t-2 1q6 -2 13.5 -4t13.5 -4q4 -2 10 -2q2 -2 5 -2t-5 2q4 -2 7 -2t7 -2q8 -2 15.5 -2t15.5 -2h19h2h8h31q10 2 17 2t17 2q10 0 17 2h8h4q2 0 1 1t-3 1q61 8 123 30q8 2 14 4.5t15 6.5q4 2 6 2t6 2 q2 0 3 1t3 1q10 4 21.5 10t21.5 10q33 18 63.5 37t61.5 39q135 88 250.5 196.5t218.5 233.5q104 129 197 281q23 39 43 75.5t40 77.5q27 51 50 111q10 25 17 48.5t13 49.5q4 12 6.5 25.5t4.5 25.5q2 8 3 14.5t1 12.5q0 4 2 8q0 4 -1 0t1 2v13q4 53 -8 98q0 4 -3 8q0 4 1.5 0 t-1.5 0q0 4 -1 5t-1 5q-4 4 -5 10.5t-5 10.5q-4 8 -6 10q0 2 -1 3t-1 3q4 -6 2 -4t-2 4q-4 6 -14 17q-4 4 -4 6q-4 2 -9 6q-4 2 -5 3t-5 3l-4 4q6 -4 4 -3t-4 3l-12 6q-2 2 -8.5 4t4.5 -2q-10 4 -27 8q-2 2 -10 3q-6 2 1 1t-1 -1q-4 2 -7 2t-8 2q-8 0 -16 1t-16 1h-6h-9h-16 q-8 0 -16.5 -1t-16.5 -1q-6 -2 -20 -2q4 0 4 -1t-2 -1h-4h-9q-12 -4 -32 -9q-8 -4 -16.5 -5t-16.5 -5q-12 -4 -16 -6q-2 -2 -4.5 -2t-4.5 -2h-4q-33 -16 -63.5 -32.5t-59.5 -37.5q-117 -80 -209 -190.5t-165 -231.5q-8 -10 -23.5 -8t-23.5 6q-10 4 -16.5 14.5t-0.5 20.5 q25 41 50.5 78t54.5 74q47 59 96 113.5t104 101.5q57 47 119 87t133 62q35 12 71 18.5t70 8.5q35 2 71 -2t71 -17q29 -10 54.5 -26.5t43.5 -38.5q33 -37 45 -90q12 -51 8 -104.5t-14 -104.5q-14 -53 -33.5 -104.5t-44.5 -100.5q-78 -156 -175 -298t-216 -269 q-106 -117 -228 -215.5t-259 -175.5q-104 -55 -222 -80q-66 -12 -136 -14.5t-136 22.5q-33 12 -61.5 30.5t-51.5 47.5q-37 47 -51 116q-10 66 0 134.5zM1110 1227q2 4 3 5t3 5q6 8 19 8q27 4 36 -18q4 -10 -2 -15.5t-14 -5.5q-10 0 -16 2q-12 4 -17 11l4 -5l22.5 4.5 t25.5 4.5q0 -6 -5 -11l5 5q-4 -6 -13 -15q-4 -8 -13 -8t-18 2q-2 0 -2 1t-2 1q4 0 5.5 -1t5.5 -1h-4h-3q-10 0 -14 4q-6 0 -2 8v2q0 -4 2 -6l-4 4q-10 10 -2 19zM1198 1205q-6 7 0 16q2 4 6 8l-4 -4q2 2 3 4t3 4q-2 -2 -2 -4q0 2 1 3t1 3q4 8 14.5 8t18.5 -2q8 -4 18 -12 q4 -4 5 -10q-1 -11 -13 -23q-6 -10 -17 -8t-20 6q-8 4 -14 11z" />
<glyph unicode="&#xd8;" horiz-adv-x="1384" d="M-170 -166.5q10 68.5 31 131.5q16 57 43 119q14 33 30.5 63.5t32.5 63.5q84 152 189 299q53 74 108 144.5t115 136.5q63 70 129.5 133t140.5 118q8 6 21.5 4t24 -9t14.5 -16t-9 -17q-14 -10 -26 -21.5t-27 -21.5q-72 -59 -134 -124t-122 -137q-57 -68 -111.5 -138 t-103.5 -144q-49 -72 -94 -148.5t-86 -154.5q-29 -53 -49.5 -111.5t-34.5 -118.5q-16 -72 -16 -131v-31.5t4 -31.5q0 -8 4 -17q0 -6 2 -8v-4v2q2 -8 4 -14t6 -15q4 -6 7 -13t7 -13q-4 4 -2 2l4 -4q0 -2 5 -6q2 -2 3 -4.5t5 -6.5l6 -6l2 -2q6 -6 10 -8q4 -4 12 -8 q0 -2 3.5 -4t-3.5 2q2 0 3.5 -1t3.5 -1q4 -6 14 -8q2 -2 8 -5.5t-2 0.5q6 -2 13.5 -4t13.5 -4q4 -2 10 -2q2 -2 5 -2t-5 2q4 -2 8 -2t8 -2q6 -2 13.5 -2t15.5 -2h18h2h9h30q10 2 17.5 2t17.5 2q10 0 17 2h8h4q2 0 1 1t-3 1q31 4 62.5 12.5t60.5 18.5q8 2 14 4t14 6 q4 2 6.5 2t6.5 2q2 0 3 1t3 1q10 4 21.5 10.5t21.5 10.5q33 18 63.5 36.5t61.5 39.5q135 88 250.5 196.5t218.5 233.5q53 66 103 136t93 144q23 39 43.5 76t40.5 78q27 51 49 110q10 25 17.5 48.5t13.5 50.5q4 12 6 25.5t6 25.5q0 8 1 14t1 13q2 2 3 8v2v12q2 49 -7 98 q-2 2 -2 9q-2 4 -1 -0.5t-1 0.5q0 4 -1 5t-1 5q-4 6 -5 11t-5 9l-6 13l-2 4q4 -4 2 -3t-2 3q-8 12 -15 16q-2 2 -2 3t-2 3t-4 3t-4 3q-4 2 -10 9q-2 0 -2 1t-2 1q6 -4 4 -3t-4 3l-12 6q-2 2 -8.5 4t3.5 -2q-6 4 -13 5t-13 3q-2 2 -4 2t-4 2q-8 0 -1 -1t-1 1q-8 0 -15 2 q-8 0 -16 1t-16 1h-7h-8h-16h-16.5t-16.5 -2q-4 0 -9 -1t-11 -1q4 0 4 -1t-2 -1h-5h-8q-8 -2 -15 -4t-17 -4q-8 -4 -16.5 -5t-16.5 -5q-12 -4 -17 -7q-2 -2 -4 -2t-4 -2h-4q-33 -14 -63.5 -31.5t-59.5 -37.5q-117 -80 -209 -190.5t-166 -231.5q-8 -10 -23 -8t-24 6 q-10 4 -16 14t0 21q47 76 106 151q45 59 94.5 113.5t104.5 101.5q57 47 119.5 87t132.5 63q68 23 141 26q35 2 71 -2t71 -16q29 -10 54 -26.5t44 -39.5q33 -37 45 -90q12 -51 8 -104t-14 -103q-14 -55 -33.5 -106t-44.5 -100q-78 -156 -175 -298.5t-216 -269.5 q-106 -117 -228 -215t-260 -176q-104 -55 -221 -80q-66 -12 -136.5 -14t-135.5 22q-33 12 -61.5 31t-51.5 47q-37 47 -51 117q-10 66 0 134.5zM-88 -621q4 8 12 13q2 2 3 4t-3 -2q4 4 4 6q4 8 9.5 15t11.5 16q51 78 108.5 150.5t112.5 148.5q59 80 114.5 160.5t110.5 162.5 q115 166 227.5 329t231.5 325q59 80 119.5 159.5t122.5 159.5q29 35 56.5 71t53.5 70q25 33 49.5 67t55.5 58q10 6 22.5 4t20.5 -6t14 -11t4 -17q-4 -12 -8 -19q-6 -10 -21.5 -8t-23.5 6q-6 4 -14.5 11.5t-4.5 17.5q2 0 3 4v2q16 -4 32.5 -9t32.5 -10q-8 -10 -16.5 -19 t-16.5 -19q-27 -31 -50 -64t-48 -63q-31 -39 -61.5 -77t-61.5 -79q-121 -158 -240 -320q-117 -162 -229.5 -325.5t-226.5 -327.5q-55 -82 -110.5 -160.5t-114.5 -156.5q-29 -39 -58 -75t-57 -75q-14 -18 -26.5 -36.5t-26.5 -39.5q-6 -10 -13.5 -20t-13.5 -21q-2 -4 -4 -9 t-6 -9q-4 -2 -8 -6t-3.5 -3t5.5 7q-4 8 -9.5 14t-9.5 15q-12 0 -23.5 -1t-23.5 -1q2 2 3 2t3 2q10 10 23.5 9t23.5 -5q6 -4 15.5 -14.5t-0.5 -20.5l-7 -6q-10 -8 -22 -7t-23 5h-2q-6 4 -14 12t-4 16z" />
<glyph unicode="&#xd9;" horiz-adv-x="1247" d="M23 184q-2 27 3 52.5t11 48.5q4 23 10 42t12 40q4 16 12.5 34.5t18.5 34.5q8 20 18.5 39t20.5 37q41 78 92 149.5t109 137.5q59 68 122.5 129t133.5 119q16 14 32.5 25t32.5 22q25 16 49.5 30.5t51.5 28.5q25 12 49 22.5t51 14.5q31 6 57 0q14 -4 27.5 -14.5t19.5 -24.5 q10 -25 2 -49.5t-18 -46.5q-12 -25 -25.5 -47.5t-29.5 -44.5q-92 -139 -191 -277q-53 -78 -106 -155.5t-105 -155.5q-47 -78 -93 -156t-85 -160q-14 -29 -25.5 -55.5t-23.5 -54.5q-10 -16 -17.5 -34.5t-15.5 -37.5q-10 -23 -18 -46.5t-15 -47.5q-8 -27 -10 -45q-2 -4 -2 -12 l-2 -5v-2v-18q0 -4 1 -9t1 -9h2q0 -10 13 -13q2 0 2 1t2 1h4l32 9l15 6q2 0 4 1t4 1q6 4 1 1t1 1q35 14 65.5 32.5t59.5 40.5q29 20 53.5 41t48.5 43q53 47 102.5 97.5t96.5 99.5q98 98 188.5 201.5t180.5 208.5l227 270q10 18 23 33q47 66 92 132t110 118q10 6 22.5 4 t20.5 -6q6 -4 14.5 -11.5t4.5 -17.5q-10 -31 -28.5 -57.5t-39.5 -51.5q-23 -27 -45 -51t-45 -51q-35 -35 -68 -74q-16 -27 -33.5 -51.5t-33.5 -52.5q-25 -37 -46.5 -75t-41.5 -77q-41 -78 -76 -158.5t-70 -162.5q-35 -86 -69.5 -170t-52.5 -176q-6 -29 -10.5 -61t-2.5 -62 q0 -12 2 -19q12 2 25 -6q6 -4 15 -13t-1 -18l-8 -6v2q0 -2 -1 -2t-1 -2l-6 -6l-23 -6q-27 -4 -45 14q-23 16 -26 56q-4 35 0 73.5t12 73.5q18 92 53 176t70 170q27 63 53.5 126t54.5 124l-135 -160q-86 -98 -176 -189t-184 -184q-47 -47 -99.5 -90t-111.5 -77 q-31 -18 -64 -34t-67 -22q-31 -6 -60.5 -3t-52.5 26q-14 14 -18.5 33.5t-4.5 37.5q2 47 19 95q12 41 28.5 81t34.5 80q16 29 28.5 61t29.5 60q20 41 42.5 82t45.5 82q47 80 96 158t102 155l216 310q20 29 39.5 58.5t37.5 57.5q16 23 28.5 43.5t23.5 42.5q14 25 14 48v2v4 q0 4 -4 4q-2 -2 -4 -2q-4 0 -6.5 -1t-4.5 -1l-22 -8l-8 -5q-4 -2 0 1.5t-2 -1.5q-8 -4 -13 -4l-24 -12l-53 -31q-23 -12 -44.5 -25.5t-43.5 -29.5l-15 -12l-6 -4l-4 -2q-16 -12 -31.5 -25.5t-30.5 -30.5q-35 -31 -66.5 -61.5t-62.5 -65.5q-125 -131 -219 -280 q-35 -57 -63.5 -116.5t-48.5 -123.5q-16 -57 -23 -104v-4v-7v-10q0 -20 11.5 -23t15.5 -24q2 -12 -9.5 -16t-21.5 -2q-29 4 -46 22.5t-19 46.5zM176 -279v-2v2zM180 -317zM197 -328h2h-2zM1201 1229q-7 8 1 18q4 6 14.5 7t18.5 -3q18 -4 35.5 -11t34.5 -15q12 -4 25 -9.5 t24 -15.5q8 -6 11 -16t-7 -17q-10 -6 -24.5 -4t-24.5 11q0 2 4 -1.5t-2 1.5q-2 0 -11 4q-8 4 -28 12q-14 6 -29 12.5t-29 14.5q-6 4 -13 12z" />
<glyph unicode="&#xda;" horiz-adv-x="1247" d="M23 184q-2 27 3 52.5t11 48.5q4 23 10 42t12 40q4 16 12.5 34.5t18.5 34.5q8 20 18.5 39t20.5 37q41 78 92 149.5t109 137.5q59 68 122.5 129t133.5 119q16 14 32.5 25t32.5 22q25 16 49.5 30.5t51.5 28.5q25 12 49 22.5t51 14.5q31 6 57 0q14 -4 27.5 -14.5t19.5 -24.5 q10 -25 2 -49.5t-18 -46.5q-12 -25 -25.5 -47.5t-29.5 -44.5q-92 -139 -191 -277q-53 -78 -106 -155.5t-105 -155.5q-47 -78 -93 -156t-85 -160q-14 -29 -25.5 -55.5t-23.5 -54.5q-10 -16 -17.5 -34.5t-15.5 -37.5q-10 -23 -18 -46.5t-15 -47.5q-8 -27 -10 -45q-2 -4 -2 -12 l-2 -5v-2v-18q0 -4 1 -9t1 -9h2q0 -10 13 -13q2 0 2 1t2 1h4l32 9l15 6q2 0 4 1t4 1q6 4 1 1t1 1q35 14 65.5 32.5t59.5 40.5q29 20 53.5 41t48.5 43q53 47 102.5 97.5t96.5 99.5q98 98 188.5 201.5t180.5 208.5l227 270q10 18 23 33q47 66 92 132t110 118q10 6 22.5 4 t20.5 -6q6 -4 14.5 -11.5t4.5 -17.5q-10 -31 -28.5 -57.5t-39.5 -51.5q-23 -27 -45 -51t-45 -51q-35 -35 -68 -74q-16 -27 -33.5 -51.5t-33.5 -52.5q-25 -37 -46.5 -75t-41.5 -77q-41 -78 -76 -158.5t-70 -162.5q-35 -86 -69.5 -170t-52.5 -176q-6 -29 -10.5 -61t-2.5 -62 q0 -12 2 -19q12 2 25 -6q6 -4 15 -13t-1 -18l-8 -6v2q0 -2 -1 -2t-1 -2l-6 -6l-23 -6q-27 -4 -45 14q-23 16 -26 56q-4 35 0 73.5t12 73.5q18 92 53 176t70 170q27 63 53.5 126t54.5 124l-135 -160q-86 -98 -176 -189t-184 -184q-47 -47 -99.5 -90t-111.5 -77 q-31 -18 -64 -34t-67 -22q-31 -6 -60.5 -3t-52.5 26q-14 14 -18.5 33.5t-4.5 37.5q2 47 19 95q12 41 28.5 81t34.5 80q16 29 28.5 61t29.5 60q20 41 42.5 82t45.5 82q47 80 96 158t102 155l216 310q20 29 39.5 58.5t37.5 57.5q16 23 28.5 43.5t23.5 42.5q14 25 14 48v2v4 q0 4 -4 4q-2 -2 -4 -2q-4 0 -6.5 -1t-4.5 -1l-22 -8l-8 -5q-4 -2 0 1.5t-2 -1.5q-8 -4 -13 -4l-24 -12l-53 -31q-23 -12 -44.5 -25.5t-43.5 -29.5l-15 -12l-6 -4l-4 -2q-16 -12 -31.5 -25.5t-30.5 -30.5q-35 -31 -66.5 -61.5t-62.5 -65.5q-125 -131 -219 -280 q-35 -57 -63.5 -116.5t-48.5 -123.5q-16 -57 -23 -104v-4v-7v-10q0 -20 11.5 -23t15.5 -24q2 -12 -9.5 -16t-21.5 -2q-29 4 -46 22.5t-19 46.5zM176 -279v-2v2zM180 -317zM197 -328h2h-2zM1178 1163q2 4 8 8.5t10 8.5q18 10 45 20q12 4 24.5 8t24.5 9q4 0 13 4q2 0 4 1t4 1 q10 6 20 10t21.5 1t19.5 -9q6 -4 11.5 -13.5t-3.5 -15.5q-10 -8 -22 -12t-23 -8q-12 -4 -23.5 -6.5t-23.5 -6.5t-22 -8q-4 0 -6.5 -1t-6.5 -1q0 -2 -4 -3t-2 1q-10 -6 -20.5 -12t-22.5 -4q-10 2 -20 9t-6 19z" />
<glyph unicode="&#xdb;" horiz-adv-x="1247" d="M23 184q-2 27 3 52.5t11 48.5q4 23 10 42t12 40q4 16 12.5 34.5t18.5 34.5q8 20 18.5 39t20.5 37q41 78 92 149.5t109 137.5q59 68 122.5 129t133.5 119q16 14 32.5 25t32.5 22q25 16 49.5 30.5t51.5 28.5q25 12 49 22.5t51 14.5q31 6 57 0q14 -4 27.5 -14.5t19.5 -24.5 q10 -25 2 -49.5t-18 -46.5q-12 -25 -25.5 -47.5t-29.5 -44.5q-92 -139 -191 -277q-53 -78 -106 -155.5t-105 -155.5q-47 -78 -93 -156t-85 -160q-14 -29 -25.5 -55.5t-23.5 -54.5q-10 -16 -17.5 -34.5t-15.5 -37.5q-10 -23 -18 -46.5t-15 -47.5q-8 -27 -10 -45q-2 -4 -2 -12 l-2 -5v-2v-18q0 -4 1 -9t1 -9h2q0 -10 13 -13q2 0 2 1t2 1h4l32 9l15 6q2 0 4 1t4 1q6 4 1 1t1 1q35 14 65.5 32.5t59.5 40.5q29 20 53.5 41t48.5 43q53 47 102.5 97.5t96.5 99.5q98 98 188.5 201.5t180.5 208.5l227 270q10 18 23 33q47 66 92 132t110 118q10 6 22.5 4 t20.5 -6q6 -4 14.5 -11.5t4.5 -17.5q-10 -31 -28.5 -57.5t-39.5 -51.5q-23 -27 -45 -51t-45 -51q-35 -35 -68 -74q-16 -27 -33.5 -51.5t-33.5 -52.5q-25 -37 -46.5 -75t-41.5 -77q-41 -78 -76 -158.5t-70 -162.5q-35 -86 -69.5 -170t-52.5 -176q-6 -29 -10.5 -61t-2.5 -62 q0 -12 2 -19q12 2 25 -6q6 -4 15 -13t-1 -18l-8 -6v2q0 -2 -1 -2t-1 -2l-6 -6l-23 -6q-27 -4 -45 14q-23 16 -26 56q-4 35 0 73.5t12 73.5q18 92 53 176t70 170q27 63 53.5 126t54.5 124l-135 -160q-86 -98 -176 -189t-184 -184q-47 -47 -99.5 -90t-111.5 -77 q-31 -18 -64 -34t-67 -22q-31 -6 -60.5 -3t-52.5 26q-14 14 -18.5 33.5t-4.5 37.5q2 47 19 95q12 41 28.5 81t34.5 80q16 29 28.5 61t29.5 60q20 41 42.5 82t45.5 82q47 80 96 158t102 155l216 310q20 29 39.5 58.5t37.5 57.5q16 23 28.5 43.5t23.5 42.5q14 25 14 48v2v4 q0 4 -4 4q-2 -2 -4 -2q-4 0 -6.5 -1t-4.5 -1l-22 -8l-8 -5q-4 -2 0 1.5t-2 -1.5q-8 -4 -13 -4l-24 -12l-53 -31q-23 -12 -44.5 -25.5t-43.5 -29.5l-15 -12l-6 -4l-4 -2q-16 -12 -31.5 -25.5t-30.5 -30.5q-35 -31 -66.5 -61.5t-62.5 -65.5q-125 -131 -219 -280 q-35 -57 -63.5 -116.5t-48.5 -123.5q-16 -57 -23 -104v-4v-7v-10q0 -20 11.5 -23t15.5 -24q2 -12 -9.5 -16t-21.5 -2q-29 4 -46 22.5t-19 46.5zM176 -279v-2v2zM180 -317zM197 -328h2h-2zM1195 1196q-3 8 7 16t20.5 14.5t20.5 12.5l45 25q29 10 47 -11q10 -10 16.5 -21 t14.5 -22l9 -9t9 -11q2 -6 0 -12.5t-10 -8.5q-23 -4 -39 10.5t-30 34.5q-14 -8 -28.5 -17t-29.5 -19q-8 -4 -19 -3t-20.5 7t-12.5 14z" />
<glyph unicode="&#xdc;" horiz-adv-x="1247" d="M23 184q-2 27 3 52.5t11 48.5q4 23 10 42t12 40q4 16 12.5 34.5t18.5 34.5q8 20 18.5 39t20.5 37q41 78 92 149.5t109 137.5q59 68 122.5 129t133.5 119q16 14 32.5 25t32.5 22q25 16 49.5 30.5t51.5 28.5q25 12 49 22.5t51 14.5q31 6 57 0q14 -4 27.5 -14.5t19.5 -24.5 q10 -25 2 -49.5t-18 -46.5q-12 -25 -25.5 -47.5t-29.5 -44.5q-92 -139 -191 -277q-53 -78 -106 -155.5t-105 -155.5q-47 -78 -93 -156t-85 -160q-14 -29 -25.5 -55.5t-23.5 -54.5q-10 -16 -17.5 -34.5t-15.5 -37.5q-10 -23 -18 -46.5t-15 -47.5q-8 -27 -10 -45q-2 -4 -2 -12 l-2 -5v-2v-18q0 -4 1 -9t1 -9h2q0 -10 13 -13q2 0 2 1t2 1h4l32 9l15 6q2 0 4 1t4 1q6 4 1 1t1 1q35 14 65.5 32.5t59.5 40.5q29 20 53.5 41t48.5 43q53 47 102.5 97.5t96.5 99.5q98 98 188.5 201.5t180.5 208.5l227 270q10 18 23 33q47 66 92 132t110 118q10 6 22.5 4 t20.5 -6q6 -4 14.5 -11.5t4.5 -17.5q-10 -31 -28.5 -57.5t-39.5 -51.5q-23 -27 -45 -51t-45 -51q-35 -35 -68 -74q-16 -27 -33.5 -51.5t-33.5 -52.5q-25 -37 -46.5 -75t-41.5 -77q-41 -78 -76 -158.5t-70 -162.5q-35 -86 -69.5 -170t-52.5 -176q-6 -29 -10.5 -61t-2.5 -62 q0 -12 2 -19q12 2 25 -6q6 -4 15 -13t-1 -18l-8 -6v2q0 -2 -1 -2t-1 -2l-6 -6l-23 -6q-27 -4 -45 14q-23 16 -26 56q-4 35 0 73.5t12 73.5q18 92 53 176t70 170q27 63 53.5 126t54.5 124l-135 -160q-86 -98 -176 -189t-184 -184q-47 -47 -99.5 -90t-111.5 -77 q-31 -18 -64 -34t-67 -22q-31 -6 -60.5 -3t-52.5 26q-14 14 -18.5 33.5t-4.5 37.5q2 47 19 95q12 41 28.5 81t34.5 80q16 29 28.5 61t29.5 60q20 41 42.5 82t45.5 82q47 80 96 158t102 155l216 310q20 29 39.5 58.5t37.5 57.5q16 23 28.5 43.5t23.5 42.5q14 25 14 48v2v4 q0 4 -4 4q-2 -2 -4 -2q-4 0 -6.5 -1t-4.5 -1l-22 -8l-8 -5q-4 -2 0 1.5t-2 -1.5q-8 -4 -13 -4l-24 -12l-53 -31q-23 -12 -44.5 -25.5t-43.5 -29.5l-15 -12l-6 -4l-4 -2q-16 -12 -31.5 -25.5t-30.5 -30.5q-35 -31 -66.5 -61.5t-62.5 -65.5q-125 -131 -219 -280 q-35 -57 -63.5 -116.5t-48.5 -123.5q-16 -57 -23 -104v-4v-7v-10q0 -20 11.5 -23t15.5 -24q2 -12 -9.5 -16t-21.5 -2q-29 4 -46 22.5t-19 46.5zM176 -279v-2v2zM180 -317zM197 -328h2h-2zM1176 1167l6 11q6 8 18 8q27 4 37 -19q2 -2 2 -4q0 -6 -2 -8l2 2l-12 -14 q-4 -8 -13.5 -8t-17.5 2q-10 0 -14 4q-2 0 -2 2v4l-2 2q-10 10 -2 18zM1263.5 1146q-6.5 7 0.5 15l6 8l2 2v3v-3v5q4 8 14 8t19 -2q8 -5 18 -13q4 -4 4 -10q0 -10 -12 -22q-6 -10 -17.5 -8.5t-19.5 6.5q-8 4 -14.5 11zM1266 1165l4 6v-2zM1270 1171h2h-2z" />
<glyph unicode="&#xdd;" horiz-adv-x="1089" d="M-6 -123q2 6 9 9t13 3q37 2 74 3.5t74 5.5q106 4 210.5 8t211.5 8l51 2q72 127 146.5 251t152.5 247q23 33 43 63.5t41 63.5q-47 -51 -94 -100.5t-97 -100.5q-29 -29 -59.5 -57.5t-60.5 -57.5q-41 -37 -86 -73.5t-95 -65.5q-18 -12 -39.5 -23.5t-45 -18.5t-47 -7 t-44.5 12q-31 16 -42 45t-11 60.5t7 64.5t16 60q18 61 43.5 119.5t56.5 115.5q39 68 82 132.5t86 129.5q18 29 37.5 57.5t36.5 57.5q8 12 15 23.5t11 21.5q8 14 14.5 29.5t10.5 31.5q0 8 1 12.5t-1 12.5v8q-4 4 -4 8q-4 4 -2 1t0 1q0 2 -2 4q-2 0 -2 1.5t-3 1.5h3q4 -4 -5 0 q-2 2 -6 2h-6h-4h-2h-14h-2q-4 -2 -9 -2q-16 -4 -31.5 -9.5t-31.5 -13.5q-70 -39 -137 -92q-29 -23 -52.5 -47.5t-46.5 -53.5q-27 -29 -50 -58.5t-44 -63.5q-6 -12 -12 -24.5t-10 -27.5l2 2q12 4 24 -8q4 -4 3 -8t-5 -6q-16 -8 -36.5 -17.5t-34.5 13.5q-4 6 -2 15t4 16 q4 20 8 34q12 37 31 66l43 65q10 16 22 29.5t25 28.5q10 12 21 24.5t26 24.5q66 59 133 100q33 20 67.5 35.5t71.5 20.5q31 4 64.5 -3.5t52.5 -33.5q20 -27 18 -56.5t-14 -58.5t-27.5 -55.5t-31.5 -50.5l-80 -121q-78 -117 -148.5 -237t-101.5 -259q-4 -16 -6 -31.5 t-4 -29.5q0 -20 2 -29q0 -10 2 -14v-7q0 4 0 2t2 -4q0 -4 4 -12q2 0 3 -2t-1 0l2 -2l2 -2v-2h2h-2h2h2q2 0 3 1t3 1h6l19 6q2 0 3 1t3 1h2l4 2q2 0 2 2l21 11q23 14 44 28.5t44 30.5q43 33 82 66.5t79 72.5q45 41 87 85t85 91q72 74 141.5 149t139.5 152l68 76l63 72 q27 35 52.5 67.5t60.5 59.5q8 6 20.5 5t22.5 -7t15 -14.5t-1 -18.5q-29 -49 -67 -94q-63 -78 -121 -158t-115 -162q-57 -80 -110.5 -161.5t-106.5 -165.5q-57 -92 -110.5 -182.5t-106.5 -182.5l352 14q115 4 228.5 6.5t228.5 4.5q86 0 172 -2t172 -11q68 -6 135 -18 q16 -4 33.5 -8t34.5 -8l28 -9l15 -6q6 0 8 -2h2l2 -2q10 -4 20.5 -11t6.5 -20q-4 -10 -17.5 -12t-21.5 2q-12 4 -24.5 7t-25.5 7l-24 7l-12 4h-7h-2q-57 12 -108 18q-33 4 -64.5 6t-62.5 4l-137 5q-125 2 -249 -1.5t-249 -7.5q-117 -4 -231.5 -8t-231.5 -8 q-37 -63 -72.5 -127t-72.5 -129q-82 -147 -166 -292.5t-174 -289.5q-4 -10 -16.5 -10t-20.5 4q-10 2 -19.5 8t-9.5 17q-4 68 -2 135t6 135q4 78 5.5 154.5t-15.5 152.5q-6 35 -16.5 66t-26.5 61q-10 14 -17 25.5t-20 25.5l-22 25l-2 2q-2 0 -4 2l-7 6l-14 13q-4 4 -9 10 t-1 14zM92 -156q68 -72 96 -168q23 -72 27 -147.5t0 -151.5q-2 -51 -3 -102t-3 -104q86 141 168 283.5t162 287.5q18 31 35.5 61.5t33.5 63.5l-375 -17q-35 -4 -70.5 -4t-70.5 -2zM381 84h2h-2zM383 84h2h-2zM383 86q2 0 2 -2zM391 86q6 2 6 1t-4 -1h-2zM424 94h2h-2z M694 1049h4h-4zM973 1153q2 4 8 8t10 8q18 10 45 21q12 4 24.5 8t24.5 8q4 0 13 4q2 0 4 1t4 1q10 6 20 11q10 4 21.5 1t19.5 -10q6 -4 11.5 -13t-2.5 -15q-10 -8 -22.5 -12.5t-23.5 -8.5q-12 -4 -23 -6t-24 -6q-12 -4 -22 -8q-4 0 -6 -1t-6 -1q0 -2 -4.5 -3t-2.5 1 q-10 -6 -20.5 -12.5t-22.5 -4.5q-10 2 -20 9.5t-6 19.5zM2023 -139h2h-2z" />
<glyph unicode="&#xdf;" horiz-adv-x="448" d="M-192.5 32q-0.5 7 6.5 11q4 4 6 3t6 1q10 10 18.5 22.5t18.5 28.5q20 33 47 66q41 61 86 123.5t104 118.5q29 27 61 52t66 44q16 10 32.5 17t35.5 13q23 6 42 9.5t42 -0.5q20 -8 35.5 -22.5t15.5 -37.5q2 -18 -9 -36.5t-28.5 -36t-37 -32t-31.5 -20.5q-6 -4 -30 -15 t-48.5 -25.5t-42 -29t-13.5 -24.5q16 -16 37 -31.5t37 -42.5q8 -10 10 -24t7 -31q2 -29 -6.5 -60.5t-24.5 -58.5q-16 -25 -40 -50t-52.5 -46.5t-60 -35t-62.5 -13.5q-41 2 -68.5 30.5t-17.5 67.5q4 31 22.5 54.5t40.5 46.5q43 43 103 69q8 6 19 10.5t22 2.5q16 0 29.5 -9.5 t9.5 -25.5q-2 -12 -11.5 -14.5t-21.5 1.5q-14 -4 -21.5 -8t-11.5 -8q-27 -20 -52.5 -38.5t-45.5 -43.5q-14 -14 -25 -43q-12 -37 9.5 -41t50.5 6l15 6t11 7q25 12 48.5 34.5t41.5 49.5q16 31 27.5 57t13.5 57q-8 51 -53 80q-12 12 -23.5 25.5t-15.5 27.5q-2 16 4 27.5 t17 21.5q20 14 50.5 31t63.5 35t59.5 38.5t36.5 43.5q2 4 6.5 16.5t-6.5 12.5q-31 0 -64.5 -16.5t-61.5 -37.5q-35 -25 -64 -52.5t-57 -55.5q-47 -47 -87 -102.5t-75 -108.5q-16 -23 -32.5 -41.5t-31.5 -42.5l-24 -27q-14 -12 -29.5 -9t-25.5 20q-2 2 -2.5 9z" />
<glyph unicode="&#xe0;" horiz-adv-x="600" d="M-184 61q2 39 20.5 71t40.5 61q25 31 52.5 58.5t60.5 49.5q43 31 108 53q10 4 24.5 6t27.5 0q14 -4 28.5 -15t5.5 -28q-4 -10 -14 -11t-20 3q-2 0 -11 4h-2q-2 -2 -4 -1t-4 -1q-2 0 -7 -2t-1 0q-25 -10 -48.5 -21.5t-45.5 -27.5q-18 -16 -39 -37.5t-39 -44.5t-35.5 -46 t-28.5 -52q-4 -12 -6 -25.5t2 -25.5q4 0 6 2q16 10 29.5 18t26.5 21q31 25 61 59l119 127l63 57l2 2q10 14 22.5 26.5t22.5 27.5q6 6 16.5 7t21 -2t17.5 -10.5t7 -15.5v-2q0 -4 -4 -8q-2 -2 -3 -4t-3 -4q-2 -4 -4 -5t-5 -6q-6 -8 -11 -13t-12 -13t-16.5 -20.5t-23.5 -34.5 q-4 -8 -9 -15.5t-9 -15.5q-10 -18 -18.5 -37.5t-12.5 -36.5l-6 -20q-10 -29 9 -47.5t56 -8.5q31 10 58.5 24.5t60.5 31.5q76 41 139.5 94t128.5 110q10 6 21.5 5t19.5 -5t16.5 -13t0.5 -15q-51 -45 -99.5 -86t-105.5 -78q-27 -16 -42 -27.5t-36 -21.5q-61 -35 -90 -47.5 t-51 -16.5q-37 -4 -78 3.5t-62 41.5q-12 18 -11 41t7 45q-14 -16 -29.5 -30.5t-31.5 -30.5q-16 -14 -29.5 -30.5t-29.5 -26.5q-23 -20 -58 -33q-18 -8 -38.5 -7t-41.5 15q-14 10 -20 27.5t-6 33.5zM79 491.5q-7 8.5 1 18.5q4 6 14 7t19 -3q18 -4 35.5 -11t33.5 -16 q12 -4 25.5 -9t23.5 -15q8 -6 11.5 -16.5t-6.5 -16.5t-24.5 -4t-25.5 10q0 2 4.5 -1t-2.5 1q-2 0 -10 4t-28 13q-14 6 -29 12t-29 14q-6 4 -13 12.5z" />
<glyph unicode="&#xe1;" horiz-adv-x="600" d="M-182 61q2 39 20.5 71t40.5 61q25 31 52.5 58.5t60.5 49.5q43 31 108 53q10 4 24.5 6t27.5 0q14 -4 28.5 -15t5.5 -28q-4 -10 -14 -11t-20 3q-2 0 -11 4h-2q-2 -2 -4 -1t-4 -1q-2 0 -7 -2t-1 0q-25 -10 -48.5 -21.5t-45.5 -27.5q-18 -16 -39 -37.5t-39 -44.5t-35.5 -46 t-28.5 -52q-4 -12 -6 -25.5t2 -25.5q4 0 6 2q16 10 29.5 18t26.5 21q31 25 61 59l119 127l63 57l2 2q10 14 22.5 26.5t23.5 27.5q6 6 16 7t20.5 -2t17.5 -10.5t7 -15.5v-2q0 -4 -4 -8q-2 -2 -3 -4t-3 -4q-2 -4 -4 -5t-4 -6q-6 -8 -11.5 -13t-12.5 -13t-16.5 -20.5 t-23.5 -34.5q-4 -8 -9 -15.5t-9 -15.5q-10 -18 -18.5 -37.5t-12.5 -36.5l-6 -20q-10 -29 9 -47.5t56 -8.5q31 10 58.5 24.5t60.5 31.5q76 41 139.5 94t128.5 110q10 6 21.5 5t19.5 -5t16.5 -13t0.5 -15q-51 -45 -99.5 -86t-105.5 -78q-27 -16 -42 -27.5t-36 -21.5 q-61 -35 -90 -47.5t-51 -16.5q-37 -4 -78 3.5t-62 41.5q-12 18 -11 41t7 45q-14 -16 -29.5 -30.5t-31.5 -30.5q-16 -14 -29.5 -30.5t-29.5 -26.5q-23 -20 -58 -33q-18 -8 -38.5 -7t-41.5 15q-14 10 -20 27.5t-6 33.5zM12 449q2 4 8.5 8t10.5 8q18 10 45 20q12 4 24.5 8.5 t24.5 8.5q4 0 12 4q2 0 4 1t4 1q10 6 21 10q10 4 21.5 1t19.5 -9q6 -4 11 -13.5t-3 -15.5q-10 -8 -22.5 -12t-22.5 -8q-12 -4 -23.5 -6t-23.5 -6t-23 -9q-4 0 -6 -1t-6 -1q0 -2 -4 -3t-2 1q-10 -6 -20.5 -12t-22.5 -4q-10 2 -20.5 9t-6.5 20z" />
<glyph unicode="&#xe2;" horiz-adv-x="600" d="M-184 61q2 39 20.5 71t40.5 61q25 31 52.5 58.5t60.5 49.5q43 31 108 53q10 4 24.5 6t27.5 0q14 -4 28.5 -15t5.5 -28q-4 -10 -14 -11t-20 3q-2 0 -11 4h-2q-2 -2 -4 -1t-4 -1q-2 0 -7 -2t-1 0q-25 -10 -48.5 -21.5t-45.5 -27.5q-18 -16 -39 -37.5t-39 -44.5t-35.5 -46 t-28.5 -52q-4 -12 -6 -25.5t2 -25.5q4 0 6 2q16 10 29.5 18t26.5 21q31 25 61 59l119 127l63 57l2 2q10 14 22.5 26.5t22.5 27.5q6 6 16.5 7t21 -2t17.5 -10.5t7 -15.5v-2q0 -4 -4 -8q-2 -2 -3 -4t-3 -4q-2 -4 -4 -5t-5 -6q-6 -8 -11 -13t-12 -13t-16.5 -20.5t-23.5 -34.5 q-4 -8 -9 -15.5t-9 -15.5q-10 -18 -18.5 -37.5t-12.5 -36.5l-6 -20q-10 -29 9 -47.5t56 -8.5q31 10 58.5 24.5t60.5 31.5q76 41 139.5 94t128.5 110q10 6 21.5 5t19.5 -5t16.5 -13t0.5 -15q-51 -45 -99.5 -86t-105.5 -78q-27 -16 -42 -27.5t-36 -21.5q-61 -35 -90 -47.5 t-51 -16.5q-37 -4 -78 3.5t-62 41.5q-12 18 -11 41t7 45q-14 -16 -29.5 -30.5t-31.5 -30.5q-16 -14 -29.5 -30.5t-29.5 -26.5q-23 -20 -58 -33q-18 -8 -38.5 -7t-41.5 15q-14 10 -20 27.5t-6 33.5zM69 461q-3 8 7 16t20 14.5t21 12.5l45 24q29 10 47 -10q10 -10 16 -21.5 t15 -21.5l9 -9t9 -11q2 -6 0 -12.5t-10 -8.5q-23 -4 -39 10.5t-31 34.5q-14 -8 -28.5 -17t-28.5 -20q-8 -4 -19.5 -3t-20.5 7.5t-12 14.5z" />
<glyph unicode="&#xe3;" horiz-adv-x="600" d="M-184 61q2 39 20.5 71t40.5 61q25 31 52.5 58.5t60.5 49.5q43 31 108 53q10 4 24.5 6t27.5 0q14 -4 28.5 -15t5.5 -28q-4 -10 -14 -11t-20 3q-2 0 -11 4h-2q-2 -2 -4 -1t-4 -1q-2 0 -7 -2t-1 0q-25 -10 -48.5 -21.5t-45.5 -27.5q-18 -16 -39 -37.5t-39 -44.5t-35.5 -46 t-28.5 -52q-4 -12 -6 -25.5t2 -25.5q4 0 6 2q16 10 29.5 18t26.5 21q31 25 61 59l119 127l63 57l2 2q10 14 22.5 26.5t22.5 27.5q6 6 16.5 7t21 -2t17.5 -10.5t7 -15.5v-2q0 -4 -4 -8q-2 -2 -3 -4t-3 -4q-2 -4 -4 -5t-5 -6q-6 -8 -11 -13t-12 -13t-16.5 -20.5t-23.5 -34.5 q-4 -8 -9 -15.5t-9 -15.5q-10 -18 -18.5 -37.5t-12.5 -36.5l-6 -20q-10 -29 9 -47.5t56 -8.5q31 10 58.5 24.5t60.5 31.5q76 41 139.5 94t128.5 110q10 6 21.5 5t19.5 -5t16.5 -13t0.5 -15q-51 -45 -99.5 -86t-105.5 -78q-27 -16 -42 -27.5t-36 -21.5q-61 -35 -90 -47.5 t-51 -16.5q-37 -4 -78 3.5t-62 41.5q-12 18 -11 41t7 45q-14 -16 -29.5 -30.5t-31.5 -30.5q-16 -14 -29.5 -30.5t-29.5 -26.5q-23 -20 -58 -33q-18 -8 -38.5 -7t-41.5 15q-14 10 -20 27.5t-6 33.5zM59 465q-6 14 7 24q6 6 16 11q14 8 37 12q18 2 37.5 -3t33.5 -22h9h6 q-6 0 -4 1t4 1q4 0 12 5q2 2 4 2q4 0 8 4q6 2 19 10q10 4 21.5 2t19.5 -8q16 -12 8 -27q-20 -29 -61 -36t-74 8q-8 4 -21 16h-2q-4 0 -12 -4q-4 0 -16 -8q-4 -2 -19 -2l-2 -2q-8 0 -17.5 4t-13.5 12z" />
<glyph unicode="&#xe4;" horiz-adv-x="600" d="M-184 61q2 39 20.5 71t40.5 61q25 31 52.5 58.5t60.5 49.5q43 31 108 53q10 4 24.5 6t27.5 0q14 -4 28.5 -15t5.5 -28q-4 -10 -14 -11t-20 3q-2 0 -11 4h-2q-2 -2 -4 -1t-4 -1q-2 0 -7 -2t-1 0q-25 -10 -48.5 -21.5t-45.5 -27.5q-18 -16 -39 -37.5t-39 -44.5t-35.5 -46 t-28.5 -52q-4 -12 -6 -25.5t2 -25.5q4 0 6 2q16 10 29.5 18t26.5 21q31 25 61 59l119 127l63 57l2 2q10 14 22.5 26.5t22.5 27.5q6 6 16.5 7t21 -2t17.5 -10.5t7 -15.5v-2q0 -4 -4 -8q-2 -2 -3 -4t-3 -4q-2 -4 -4 -5t-5 -6q-6 -8 -11 -13t-12 -13t-16.5 -20.5t-23.5 -34.5 q-4 -8 -9 -15.5t-9 -15.5q-10 -18 -18.5 -37.5t-12.5 -36.5l-6 -20q-10 -29 9 -47.5t56 -8.5q31 10 58.5 24.5t60.5 31.5q76 41 139.5 94t128.5 110q10 6 21.5 5t19.5 -5t16.5 -13t0.5 -15q-51 -45 -99.5 -86t-105.5 -78q-27 -16 -42 -27.5t-36 -21.5q-61 -35 -90 -47.5 t-51 -16.5q-37 -4 -78 3.5t-62 41.5q-12 18 -11 41t7 45q-14 -16 -29.5 -30.5t-31.5 -30.5q-16 -14 -29.5 -30.5t-29.5 -26.5q-23 -20 -58 -33q-18 -8 -38.5 -7t-41.5 15q-14 10 -20 27.5t-6 33.5zM84 471l6 10q6 8 19 8q27 4 36 -18q2 -2 2 -4q0 -6 -2 -8l2 2l-12 -15 q-4 -8 -13 -8t-18 2q-10 0 -14 4q-2 0 -2 2v5l-2 2q-10 10 -2 18zM172 449.5q-6 7.5 0 15.5l6 8l2 2v2v-2v4q4 8 14.5 8t18.5 -2q8 -4 18 -12q4 -4 5 -10q0 -10 -13 -23q-6 -10 -17 -8t-20 6q-8 4 -14 11.5zM174 469l4 6v-2zM178 475h2h-2z" />
<glyph unicode="&#xe5;" horiz-adv-x="600" d="M-184 61q2 39 20.5 71t40.5 61q25 31 52.5 58.5t60.5 49.5q43 31 108 53q10 4 24.5 6t27.5 0q14 -4 28.5 -15t5.5 -28q-4 -10 -14 -11t-20 3q-2 0 -11 4h-2q-2 -2 -4 -1t-4 -1q-2 0 -7 -2t-1 0q-25 -10 -48.5 -21.5t-45.5 -27.5q-18 -16 -39 -37.5t-39 -44.5t-35.5 -46 t-28.5 -52q-4 -12 -6 -25.5t2 -25.5q4 0 6 2q16 10 29.5 18t26.5 21q31 25 61 59l119 127l63 57l2 2q10 14 22.5 26.5t22.5 27.5q6 6 16.5 7t21 -2t17.5 -10.5t7 -15.5v-2q0 -4 -4 -8q-2 -2 -3 -4t-3 -4q-2 -4 -4 -5t-5 -6q-6 -8 -11 -13t-12 -13t-16.5 -20.5t-23.5 -34.5 q-4 -8 -9 -15.5t-9 -15.5q-10 -18 -18.5 -37.5t-12.5 -36.5l-6 -20q-10 -29 9 -47.5t56 -8.5q31 10 58.5 24.5t60.5 31.5q76 41 139.5 94t128.5 110q10 6 21.5 5t19.5 -5t16.5 -13t0.5 -15q-51 -45 -99.5 -86t-105.5 -78q-27 -16 -42 -27.5t-36 -21.5q-61 -35 -90 -47.5 t-51 -16.5q-37 -4 -78 3.5t-62 41.5q-12 18 -11 41t7 45q-14 -16 -29.5 -30.5t-31.5 -30.5q-16 -14 -29.5 -30.5t-29.5 -26.5q-23 -20 -58 -33q-18 -8 -38.5 -7t-41.5 15q-14 10 -20 27.5t-6 33.5zM104 424q-6 20 5 39q4 10 10 21.5t14 21.5q8 16 27 35q16 12 26 10h2 q2 0 5 -2q2 0 6 -3t-2 1q4 0 6 -4q4 -2 0 -11q-7 7 -15 19q6 -2 12.5 -5t4.5 -11v4q4 -4 0 -11q-2 0 -2 -2q-2 -2 0 1t0 -1q-2 -2 -3 -4t-3 -4q-8 -12 -11 -16q-6 -10 -11 -19.5t-9 -19.5q-4 -6 -8 -19q-2 -4 -2 -10q-2 0 -2 -3t0 1v-6q4 -4 1 0t1 0q-4 4 -2 2t-2 0 q0 2 -6.5 3t-2.5 1q-6 0 -3 1t-3 -1h4q4 2 1 0t1 0l4 4q4 2 5.5 3t5.5 3l16 17q6 8 12.5 17t6.5 18q0 12 -7 22l-2 2q-4 4 -1 1t-1 1t0 1t0 -1t-3 2t5 -2h-2q-4 0 -1 1t-1 -1q0 -2 -2 -2h-2q-6 -4 -11 -7t-11 -7q-10 -6 -25.5 0t-11.5 18q4 16 19.5 26.5t31.5 8.5 q18 0 36.5 -7t28.5 -24q10 -12 13.5 -27.5t-2.5 -31.5q-4 -12 -12.5 -23.5t-18.5 -21.5t-23.5 -17.5t-29.5 -9.5q-16 -4 -33.5 4.5t-22.5 24.5z" />
<glyph unicode="&#xe6;" horiz-adv-x="667" d="M-164 63q2 35 18.5 67t39.5 60q23 29 50 57.5t56 51.5q25 18 54.5 37.5t64.5 25.5l14 5h8q2 0 4 2q2 -2 7 -2h2h4q6 0 8 -2q10 -4 14 -10.5t-4 -14.5q-4 -4 -9 -3t-9 5q-16 -6 -33 -16q-23 -12 -45.5 -26.5t-42.5 -31.5q-23 -20 -43.5 -42.5t-40.5 -45.5 q-16 -23 -32.5 -46t-24.5 -52q-4 -14 -5.5 -27.5t7.5 -27.5h2q4 4 1 1t1 1q2 0 3 1t3 1q16 10 28.5 20t24.5 23q33 31 64 63q55 63 92 103.5t61.5 66t38.5 40.5t27 32q0 2 1 2t1 2q2 6 8 8q10 8 29.5 0t19.5 -20q18 8 38.5 11t39.5 -5q33 -10 39 -39q2 -20 -12 -47 q-18 -33 -45 -57.5t-60 -45.5q-29 -20 -59 -28q-18 -4 -41 -1t-33 19l-2 4q-16 -23 -29.5 -44t-17.5 -48q-2 -6 -3 -10t1 -12q0 -4 2 -7v-2q0 -4 4 -8l2 -2v-2q2 0 2 -2l4 -2h2q4 -2 12 -2h3h4h22q4 2 12 2q-6 0 -0.5 1t7.5 1q4 0 16 4q18 4 36.5 10.5t37.5 12.5 q-4 -2 -4 -1t2 1t4 2q2 0 3 1t3 1l12 6l25 12q12 6 25.5 12.5t25.5 14.5q53 29 104.5 61.5t100.5 65.5q33 23 54.5 37t33.5 22t19.5 12.5t13.5 6.5t14 1t15 -6.5t9.5 -11.5t-6.5 -12q-4 -4 -8 -9t-8 -7q-2 -2 -4 -3.5t-4 -3.5l-4 -4l-9 -6l-24 -18l-127 -86 q-51 -33 -103.5 -63.5t-107.5 -53.5q-39 -18 -84 -31q-20 -6 -40.5 -10t-43.5 -4q-29 0 -59.5 10t-44.5 39q-12 20 -9 47l-4 -4q-33 -33 -65 -59q-23 -23 -56 -39q-16 -6 -35.5 -4t-35.5 14q-27 20 -27 61zM131 43h2h-2zM135 43l4 -2zM217 199q2 0 3 1t3 1h2v2l29 14 q25 16 45 33l8 4q2 2 4 5t4 5q4 4 7.5 7t7.5 8l20 28l8 23q2 2 2 6v2h-2q-6 0 -14 -4q-2 0 -4 -2q-2 0 -3 -1t-5 -1l-15 -11q-14 -6 -30 -20l-11 -6q0 -4 -4 -4q-4 -4 -1 -1t-1 -1q-12 -10 -23 -21.5t-22 -21.5l-4 -11l-4 -18v-6v-2v-2v-6zM221 201h4h-4zM702 324h3h-3z M721 279l2 2z" />
<glyph unicode="&#xe7;" horiz-adv-x="382" d="M-184 53q2 18 12 41t20 39q29 43 63 81t69 73q20 20 40.5 35.5t42.5 29.5h-2q18 10 37 15.5t39 -0.5q10 -4 18.5 -10.5t10.5 -16.5q2 -11 -8 -25q-6 -10 -18.5 -7t-18.5 11q-4 -4 -8 -5t-9 -5q-10 -6 -22 -14t-23 -19l-16 -12l-6 -6q-8 -14 -23 -25l-10 -10 q-18 -20 -34.5 -39.5t-32.5 -42.5l-31 -41q0 -2 -4 -6q-2 -2 -2 -8l-9 -16q-4 -8 -4 -15q0 -4 -1 -5t-1 -3v-12v-6q0 -2 2 -2h27l8 4v-4l25 6l30 12q6 0 13 6q4 0 5 1t3 1l47 21l25 12q29 16 56.5 32.5t55.5 35.5l107 73l4 4q2 2 3 2t3 3l57 45l29 24h-2q2 0 4 2l4 4l6 6h-2 l13 7q14 6 28 0q6 -4 12.5 -11.5t8.5 -13.5q-8 -16 -23 -31l-28 -26l-25 -19q-14 -10 -26.5 -19t-26.5 -20l-49 -37q-39 -27 -83 -53t-90 -49q-29 -16 -57.5 -29.5t-58.5 -21.5q-27 -10 -57.5 -13.5t-59.5 7.5q-23 8 -41 23.5t-16 41.5zM-165 -266.5q-5 10.5 1 20.5 q4 6 10.5 11.5t12.5 11.5q10 6 25.5 3t25.5 -13v2q8 4 14 11t10 11t5 6l4 4l2 9q0 4 1 6t1 4v6q2 0 0 2l-2 2h-2q-4 0 -6.5 1t-6.5 1q-10 4 -21 14.5t-1 20.5q6 8 11 15t9 16q4 8 8.5 16t10.5 14q8 6 22.5 3t16.5 -15q0 -10 -2 -18.5t-7 -18.5q0 -4 -1 -8t-1 -8 q10 -6 19.5 -14.5t13.5 -20.5q12 -33 -12 -64q-23 -35 -64 -48t-82 3q-10 4 -15 14.5zM-57 -170h2h-2zM-57 -170q2 0 2 -2v2h-2zM-55 -170h2v-2h-2v2zM-55 -170h2v-2v-2v2q0 2 -2 2zM-55 -170q0 -2 2 -2h-2h2v-2z" />
<glyph unicode="&#xe8;" horiz-adv-x="460" d="M-143 72q-6 29 5 58.5t25 51.5q37 55 86 103q20 20 46 40.5t55 36.5h-2q27 14 62.5 23.5t64.5 -10.5q25 -20 17.5 -47t-23.5 -49q-29 -39 -78 -76q-23 -16 -48.5 -31t-52.5 -25q-16 -8 -37.5 -10t-39.5 6l-5 -4q-8 -16 -10 -26q-2 -2 -2 -7q0 -2 -1 -3t-1 -3l-2 -8 q0 -18 4 -29q0 -4 2 -6l6 -6q8 -4 13 -4h18q4 0 6 1t6 1h11q-2 0 8 2h2q2 0 6 2q2 0 4 1t4 1q4 0 6 2q6 0 9.5 1t7.5 3l16 5q4 4 11 5t12 3q6 0 12 6l6 2q23 10 51.5 24.5t50.5 26.5h-2q104 61 203 129q16 12 35.5 24.5t36.5 24.5q8 4 18 10.5t21 10.5q4 2 14 2h2 q-2 0 -1 -1t3 -1h4l8 -2l5 -4l4 -4l2 -3q2 -8 0 -14l-4 -6l-7 -6l-26 -21l-8 -6l-66 -45q-45 -31 -96 -64.5t-111 -64.5q-41 -23 -88 -44t-90 -32q-49 -12 -98 -10q-29 4 -54.5 20.5t-35.5 45.5zM-43 178q0 -6 4 -6l4 2q6 0 19 4q0 2 2 2l4 2l4 4h2q4 0 6 2l12 7l29 20 l18 12l15 11l8 4h-2l6 6q4 4 2 3t4 3q16 14 29.5 30.5t23.5 34.5q2 4 5 11l6 18q-25 -6 -58 -29q-10 -6 -16 -12t-14 -12q-2 -2 -3 -2t-4 -2l-4 -4q-25 -23 -48 -45.5t-44 -48.5zM2 188v2h2zM79 491.5q-7 8.5 1 18.5q4 6 14 7t19 -3q18 -4 35.5 -11t33.5 -16q12 -4 25.5 -9 t23.5 -15q8 -6 11.5 -16.5t-6.5 -16.5t-24.5 -4t-25.5 10q0 2 4.5 -1t-2.5 1q-2 0 -10 4t-28 13q-14 6 -29 12t-29 14q-6 4 -13 12.5z" />
<glyph unicode="&#xe9;" horiz-adv-x="460" d="M-143 72q-6 29 5 58.5t25 51.5q37 55 86 103q20 20 46 40.5t55 36.5h-2q27 14 62.5 23.5t64.5 -10.5q25 -20 17.5 -47t-23.5 -49q-29 -39 -78 -76q-23 -16 -48.5 -31t-52.5 -25q-16 -8 -37.5 -10t-39.5 6l-5 -4q-8 -16 -10 -26q-2 -2 -2 -7q0 -2 -1 -3t-1 -3l-2 -8 q0 -18 4 -29q0 -4 2 -6l6 -6q8 -4 13 -4h18q4 0 6 1t6 1h11q-2 0 8 2h2q2 0 6 2q2 0 4 1t4 1q4 0 6 2q6 0 9.5 1t7.5 3l16 5q4 4 11 5t12 3q6 0 12 6l6 2q23 10 51.5 24.5t50.5 26.5h-2q104 61 203 129q16 12 35.5 24.5t36.5 24.5q8 4 18 10.5t21 10.5q4 2 14 2h2 q-2 0 -1 -1t3 -1h4l8 -2l5 -4l4 -4l2 -3q2 -8 0 -14l-4 -6l-7 -6l-26 -21l-8 -6l-66 -45q-45 -31 -96 -64.5t-111 -64.5q-41 -23 -88 -44t-90 -32q-49 -12 -98 -10q-29 4 -54.5 20.5t-35.5 45.5zM-43 178q0 -6 4 -6l4 2q6 0 19 4q0 2 2 2l4 2l4 4h2q4 0 6 2l12 7l29 20 l18 12l15 11l8 4h-2l6 6q4 4 2 3t4 3q16 14 29.5 30.5t23.5 34.5q2 4 5 11l6 18q-25 -6 -58 -29q-10 -6 -16 -12t-14 -12q-2 -2 -3 -2t-4 -2l-4 -4q-25 -23 -48 -45.5t-44 -48.5zM2 188v2h2zM12 449q2 4 8.5 8t10.5 8q18 10 45 20q12 4 24.5 8.5t24.5 8.5q4 0 12 4q2 0 4 1 t4 1q10 6 21 10q10 4 21.5 1t19.5 -9q6 -4 11 -13.5t-3 -15.5q-10 -8 -22.5 -12t-22.5 -8q-12 -4 -23.5 -6t-23.5 -6t-23 -9q-4 0 -6 -1t-6 -1q0 -2 -4 -3t-2 1q-10 -6 -20.5 -12t-22.5 -4q-10 2 -20.5 9t-6.5 20z" />
<glyph unicode="&#xea;" horiz-adv-x="460" d="M-143 72q-6 29 5 58.5t25 51.5q37 55 86 103q20 20 46 40.5t55 36.5h-2q27 14 62.5 23.5t64.5 -10.5q25 -20 17.5 -47t-23.5 -49q-29 -39 -78 -76q-23 -16 -48.5 -31t-52.5 -25q-16 -8 -37.5 -10t-39.5 6l-5 -4q-8 -16 -10 -26q-2 -2 -2 -7q0 -2 -1 -3t-1 -3l-2 -8 q0 -18 4 -29q0 -4 2 -6l6 -6q8 -4 13 -4h18q4 0 6 1t6 1h11q-2 0 8 2h2q2 0 6 2q2 0 4 1t4 1q4 0 6 2q6 0 9.5 1t7.5 3l16 5q4 4 11 5t12 3q6 0 12 6l6 2q23 10 51.5 24.5t50.5 26.5h-2q104 61 203 129q16 12 35.5 24.5t36.5 24.5q8 4 18 10.5t21 10.5q4 2 14 2h2 q-2 0 -1 -1t3 -1h4l8 -2l5 -4l4 -4l2 -3q2 -8 0 -14l-4 -6l-7 -6l-26 -21l-8 -6l-66 -45q-45 -31 -96 -64.5t-111 -64.5q-41 -23 -88 -44t-90 -32q-49 -12 -98 -10q-29 4 -54.5 20.5t-35.5 45.5zM-43 178q0 -6 4 -6l4 2q6 0 19 4q0 2 2 2l4 2l4 4h2q4 0 6 2l12 7l29 20 l18 12l15 11l8 4h-2l6 6q4 4 2 3t4 3q16 14 29.5 30.5t23.5 34.5q2 4 5 11l6 18q-25 -6 -58 -29q-10 -6 -16 -12t-14 -12q-2 -2 -3 -2t-4 -2l-4 -4q-25 -23 -48 -45.5t-44 -48.5zM2 188v2h2zM69 461q-3 8 7 16t20 14.5t21 12.5l45 24q29 10 47 -10q10 -10 16 -21.5t15 -21.5 l9 -9t9 -11q2 -6 0 -12.5t-10 -8.5q-23 -4 -39 10.5t-31 34.5q-14 -8 -28.5 -17t-28.5 -20q-8 -4 -19.5 -3t-20.5 7.5t-12 14.5z" />
</font>
</defs>
</svg>
